{
date = "2013-03-13 10:54:56 +0200";
familyName = "Open Sans Hebrew Condensed";
fontMaster = (
{
alignmentZones = (
"{1567, 16}",
"{1462, 24}",
"{1295, 30}",
"{1133, 21}",
"{0, -31}",
"{-492, -46}"
);
ascender = 1567;
capHeight = 1462;
descender = "-492";
id = UUID0;
italicAngle = 12;
weight = Bold;
xHeight = 1133;
}
);
glyphs = (
{
glyphname = A;
lastChange = "2013-03-13 10:29:38 +0200";
layers = (
{
layerId = UUID0;
name = "Bold Italic";
paths = (
{
closed = 1;
nodes = (
"509 1468 LINE",
"-166 0 LINE",
"185 0 LINE",
"342 358 LINE",
"637 358 LINE",
"642 0 LINE",
"994 0 LINE",
"942 1468 LINE"
);
},
{
closed = 1;
nodes = (
"636 635 LINE",
"464 635 LINE",
"544 818 OFFCURVE",
"598 943 OFFCURVE",
"631 1020 CURVE"
);
}
);
width = 1140;
}
);
unicode = 0041;
},
{
glyphname = Aacute;
lastChange = "2013-03-13 10:29:38 +0200";
layers = (
{
layerId = UUID0;
name = "Bold Italic";
paths = (
{
closed = 1;
nodes = (
"422 1468 LINE",
"-253 0 LINE",
"98 0 LINE",
"255 358 LINE",
"550 358 LINE",
"555 0 LINE",
"907 0 LINE",
"855 1468 LINE"
);
},
{
closed = 1;
nodes = (
"549 635 LINE",
"377 635 LINE",
"457 818 OFFCURVE",
"511 943 OFFCURVE",
"543 1020 CURVE"
);
},
{
closed = 1;
nodes = (
"742 1904 LINE",
"722 1882 OFFCURVE",
"696 1857 OFFCURVE",
"665 1828 CURVE SMOOTH",
"635 1800 OFFCURVE",
"565 1738 OFFCURVE",
"454 1641 CURVE",
"449 1616 LINE",
"677 1616 LINE",
"726 1642 OFFCURVE",
"797 1684 OFFCURVE",
"891 1742 CURVE SMOOTH",
"985 1801 OFFCURVE",
"1060 1849 OFFCURVE",
"1115 1886 CURVE",
"1118 1904 LINE"
);
}
);
width = 1074;
}
);
unicode = 00C1;
},
{
glyphname = Acircumflex;
lastChange = "2013-03-13 10:29:38 +0200";
layers = (
{
layerId = UUID0;
name = "Bold Italic";
paths = (
{
closed = 1;
nodes = (
"422 1468 LINE",
"-253 0 LINE",
"98 0 LINE",
"255 358 LINE",
"550 358 LINE",
"555 0 LINE",
"907 0 LINE",
"855 1468 LINE"
);
},
{
closed = 1;
nodes = (
"549 635 LINE",
"377 635 LINE",
"456 818 OFFCURVE",
"511 943 OFFCURVE",
"543 1020 CURVE"
);
},
{
closed = 1;
nodes = (
"558 1905 LINE",
"529 1871 OFFCURVE",
"487 1828 OFFCURVE",
"431 1776 CURVE SMOOTH",
"376 1725 OFFCURVE",
"325 1680 OFFCURVE",
"276 1642 CURVE",
"270 1617 LINE",
"497 1617 LINE",
"544 1642 OFFCURVE",
"610 1686 OFFCURVE",
"696 1749 CURVE",
"753 1689 OFFCURVE",
"802 1645 OFFCURVE",
"845 1617 CURVE",
"1069 1617 LINE",
"1075 1642 LINE",
"1000 1737 OFFCURVE",
"942 1825 OFFCURVE",
"904 1905 CURVE"
);
}
);
width = 1074;
}
);
unicode = 00C2;
},
{
glyphname = Adieresis;
lastChange = "2013-03-13 10:29:38 +0200";
layers = (
{
layerId = UUID0;
name = "Bold Italic";
paths = (
{
closed = 1;
nodes = (
"423 1468 LINE",
"-252 0 LINE",
"99 0 LINE",
"256 358 LINE",
"551 358 LINE",
"556 0 LINE",
"908 0 LINE",
"856 1468 LINE"
);
},
{
closed = 1;
nodes = (
"550 635 LINE",
"378 635 LINE",
"458 818 OFFCURVE",
"512 943 OFFCURVE",
"545 1020 CURVE"
);
},
{
closed = 1;
nodes = (
"437 1892 OFFCURVE",
"370 1840 OFFCURVE",
"351 1751 CURVE SMOOTH",
"333 1664 OFFCURVE",
"378 1613 OFFCURVE",
"474 1613 CURVE SMOOTH",
"568 1613 OFFCURVE",
"637 1668 OFFCURVE",
"655 1751 CURVE SMOOTH",
"673 1836 OFFCURVE",
"627 1892 OFFCURVE",
"533 1892 CURVE SMOOTH"
);
},
{
closed = 1;
nodes = (
"860 1892 OFFCURVE",
"793 1840 OFFCURVE",
"774 1751 CURVE SMOOTH",
"756 1664 OFFCURVE",
"801 1613 OFFCURVE",
"897 1613 CURVE SMOOTH",
"991 1613 OFFCURVE",
"1060 1668 OFFCURVE",
"1078 1751 CURVE SMOOTH",
"1096 1836 OFFCURVE",
"1050 1892 OFFCURVE",
"956 1892 CURVE SMOOTH"
);
}
);
width = 1074;
}
);
unicode = 00C4;
},
{
glyphname = Agrave;
lastChange = "2013-03-13 10:29:38 +0200";
layers = (
{
layerId = UUID0;
name = "Bold Italic";
paths = (
{
closed = 1;
nodes = (
"422 1468 LINE",
"-253 0 LINE",
"98 0 LINE",
"255 358 LINE",
"550 358 LINE",
"555 0 LINE",
"907 0 LINE",
"855 1468 LINE"
);
},
{
closed = 1;
nodes = (
"549 635 LINE",
"377 635 LINE",
"456 818 OFFCURVE",
"511 943 OFFCURVE",
"543 1020 CURVE"
);
},
{
closed = 1;
nodes = (
"342 1905 LINE",
"339 1887 LINE",
"384 1844 OFFCURVE",
"440 1794 OFFCURVE",
"507 1738 CURVE SMOOTH",
"574 1683 OFFCURVE",
"626 1642 OFFCURVE",
"661 1617 CURVE",
"889 1617 LINE",
"895 1642 LINE",
"856 1700 LINE SMOOTH",
"787 1796 OFFCURVE",
"743 1864 OFFCURVE",
"720 1905 CURVE"
);
}
);
width = 1074;
}
);
unicode = 00C0;
},
{
glyphname = Aring;
lastChange = "2013-03-13 10:29:38 +0200";
layers = (
{
layerId = UUID0;
name = "Bold Italic";
paths = (
{
closed = 1;
nodes = (
"433 1468 LINE",
"-243 0 LINE",
"108 0 LINE",
"266 358 LINE",
"561 358 LINE",
"565 0 LINE",
"917 0 LINE",
"866 1468 LINE"
);
},
{
closed = 1;
nodes = (
"559 635 LINE",
"387 635 LINE",
"467 818 OFFCURVE",
"522 943 OFFCURVE",
"554 1020 CURVE"
);
},
{
closed = 1;
nodes = (
"739 1652 OFFCURVE",
"765 1623 OFFCURVE",
"756 1578 CURVE SMOOTH",
"747 1535 OFFCURVE",
"707 1504 OFFCURVE",
"666 1504 CURVE SMOOTH",
"618 1504 OFFCURVE",
"600 1535 OFFCURVE",
"609 1578 CURVE SMOOTH",
"618 1623 OFFCURVE",
"658 1652 OFFCURVE",
"698 1652 CURVE SMOOTH"
);
},
{
closed = 1;
nodes = (
"659 1802 OFFCURVE",
"598 1782 OFFCURVE",
"548 1741 CURVE SMOOTH",
"497 1700 OFFCURVE",
"464 1646 OFFCURVE",
"450 1578 CURVE SMOOTH",
"436 1511 OFFCURVE",
"445 1457 OFFCURVE",
"478 1416 CURVE SMOOTH",
"512 1376 OFFCURVE",
"564 1356 OFFCURVE",
"635 1356 CURVE SMOOTH",
"706 1356 OFFCURVE",
"767 1377 OFFCURVE",
"821 1418 CURVE SMOOTH",
"875 1459 OFFCURVE",
"908 1513 OFFCURVE",
"922 1580 CURVE SMOOTH",
"936 1645 OFFCURVE",
"925 1699 OFFCURVE",
"888 1740 CURVE SMOOTH",
"852 1781 OFFCURVE",
"799 1802 OFFCURVE",
"730 1802 CURVE SMOOTH"
);
}
);
width = 1074;
}
);
unicode = 00C5;
},
{
glyphname = Atilde;
lastChange = "2013-03-13 10:29:38 +0200";
layers = (
{
layerId = UUID0;
name = "Bold Italic";
paths = (
{
closed = 1;
nodes = (
"424 1468 LINE",
"-251 0 LINE",
"100 0 LINE",
"258 358 LINE",
"553 358 LINE",
"557 0 LINE",
"909 0 LINE",
"857 1468 LINE"
);
},
{
closed = 1;
nodes = (
"551 635 LINE",
"379 635 LINE",
"459 818 OFFCURVE",
"514 943 OFFCURVE",
"546 1020 CURVE"
);
},
{
closed = 1;
nodes = (
"939 1878 LINE",
"916 1822 OFFCURVE",
"890 1792 OFFCURVE",
"857 1792 CURVE SMOOTH",
"768 1792 OFFCURVE",
"668 1877 OFFCURVE",
"579 1877 CURVE SMOOTH",
"440 1877 OFFCURVE",
"350 1781 OFFCURVE",
"294 1576 CURVE",
"452 1576 LINE",
"476 1633 OFFCURVE",
"503 1662 OFFCURVE",
"534 1662 CURVE SMOOTH",
"622 1662 OFFCURVE",
"712 1577 OFFCURVE",
"819 1577 CURVE SMOOTH",
"947 1577 OFFCURVE",
"1045 1682 OFFCURVE",
"1099 1878 CURVE"
);
}
);
width = 1074;
}
);
unicode = 00C3;
},
{
glyphname = AE;
lastChange = "2013-03-13 10:29:38 +0200";
layers = (
{
layerId = UUID0;
name = "Bold Italic";
paths = (
{
closed = 1;
nodes = (
"578 1462 LINE",
"-205 0 LINE",
"145 0 LINE",
"203 115 OFFCURVE",
"270 243 OFFCURVE",
"330 358 CURVE",
"542 358 LINE",
"466 0 LINE",
"1187 0 LINE",
"1245 274 LINE",
"874 274 LINE",
"948 624 LINE",
"1292 624 LINE",
"1350 896 LINE",
"1006 896 LINE",
"1069 1191 LINE",
"1440 1191 LINE",
"1497 1462 LINE"
);
},
{
closed = 1;
nodes = (
"601 635 LINE",
"476 635 LINE",
"689 1052 LINE"
);
},
{
closed = 1;
nodes = (
"762 1191 LINE",
"761 1191 LINE",
"754 1180 OFFCURVE",
"749 1170 OFFCURVE",
"744 1159 CURVE SMOOTH",
"689 1052 LINE",
"723 1213 LINE"
);
}
);
width = 1405;
}
);
unicode = 00C6;
},
{
glyphname = B;
lastChange = "2013-03-13 10:29:38 +0200";
layers = (
{
layerId = UUID0;
name = "Bold Italic";
paths = (
{
closed = 1;
nodes = (
"303 1462 LINE",
"-7 0 LINE",
"462 0 LINE SMOOTH",
"720 3 OFFCURVE",
"925 160 OFFCURVE",
"983 433 CURVE SMOOTH",
"1019 604 OFFCURVE",
"980 714 OFFCURVE",
"848 769 CURVE",
"902 788 OFFCURVE",
"949 819 OFFCURVE",
"986 863 CURVE SMOOTH",
"1040 925 OFFCURVE",
"1075 998 OFFCURVE",
"1092 1081 CURVE SMOOTH",
"1149 1346 OFFCURVE",
"1033 1462 OFFCURVE",
"707 1462 CURVE SMOOTH"
);
},
{
closed = 1;
nodes = (
"629 628 OFFCURVE",
"658 572 OFFCURVE",
"634 459 CURVE SMOOTH",
"607 333 OFFCURVE",
"555 274 OFFCURVE",
"475 274 CURVE SMOOTH",
"384 274 LINE",
"459 628 LINE",
"546 628 LINE SMOOTH"
);
},
{
closed = 1;
nodes = (
"731 1191 OFFCURVE",
"758 1149 OFFCURVE",
"736 1047 CURVE SMOOTH",
"714 945 OFFCURVE",
"675 891 OFFCURVE",
"594 891 CURVE SMOOTH",
"515 891 LINE",
"579 1191 LINE",
"648 1191 LINE SMOOTH"
);
}
);
width = 1132;
}
);
unicode = 0042;
},
{
glyphname = C;
lastChange = "2013-03-13 10:29:38 +0200";
layers = (
{
layerId = UUID0;
name = "Bold Italic";
paths = (
{
closed = 1;
nodes = (
"389 1482 OFFCURVE",
"175 1111 OFFCURVE",
"93 729 CURVE SMOOTH",
"12 344 OFFCURVE",
"59 -19 OFFCURVE",
"474 -19 CURVE SMOOTH",
"593 -19 OFFCURVE",
"704 10 OFFCURVE",
"802 66 CURVE",
"864 361 LINE",
"727 291 OFFCURVE",
"627 255 OFFCURVE",
"563 255 CURVE SMOOTH",
"419 255 OFFCURVE",
"381 413 OFFCURVE",
"448 727 CURVE SMOOTH",
"485 899 OFFCURVE",
"575 1209 OFFCURVE",
"752 1209 CURVE SMOOTH",
"879 1209 OFFCURVE",
"967 1122 OFFCURVE",
"967 1122 CURVE",
"1120 1369 LINE",
"1008 1452 OFFCURVE",
"913 1482 OFFCURVE",
"798 1482 CURVE SMOOTH"
);
}
);
width = 1037;
}
);
unicode = 0043;
},
{
glyphname = Ccedilla;
lastChange = "2013-03-13 10:29:38 +0200";
layers = (
{
layerId = UUID0;
name = "Bold Italic";
paths = (
{
closed = 1;
nodes = (
"374 1482 OFFCURVE",
"160 1111 OFFCURVE",
"79 729 CURVE SMOOTH",
"-3 344 OFFCURVE",
"45 -19 OFFCURVE",
"460 -19 CURVE SMOOTH",
"579 -19 OFFCURVE",
"689 10 OFFCURVE",
"787 66 CURVE",
"850 361 LINE",
"713 291 OFFCURVE",
"613 255 OFFCURVE",
"549 255 CURVE SMOOTH",
"405 255 OFFCURVE",
"367 413 OFFCURVE",
"434 727 CURVE SMOOTH",
"470 899 OFFCURVE",
"561 1209 OFFCURVE",
"738 1209 CURVE SMOOTH",
"865 1209 OFFCURVE",
"953 1122 OFFCURVE",
"953 1122 CURVE",
"1105 1369 LINE",
"994 1452 OFFCURVE",
"898 1482 OFFCURVE",
"783 1482 CURVE SMOOTH"
);
},
{
closed = 1;
nodes = (
"486 1 OFFCURVE",
"339 1 OFFCURVE",
"338 1 CURVE SMOOTH",
"337 1 OFFCURVE",
"254 -114 OFFCURVE",
"254 -114 CURVE SMOOTH",
"254 -114 OFFCURVE",
"377 -147 OFFCURVE",
"364 -207 CURVE SMOOTH",
"356 -245 OFFCURVE",
"325 -255 OFFCURVE",
"300 -255 CURVE SMOOTH",
"239 -255 OFFCURVE",
"171 -226 OFFCURVE",
"171 -226 CURVE SMOOTH",
"171 -226 OFFCURVE",
"135 -395 OFFCURVE",
"135 -395 CURVE SMOOTH",
"135 -395 OFFCURVE",
"213 -431 OFFCURVE",
"292 -431 CURVE SMOOTH",
"413 -431 OFFCURVE",
"553 -397 OFFCURVE",
"591 -219 CURVE SMOOTH",
"622 -74 OFFCURVE",
"494 -27 OFFCURVE",
"472 -24 CURVE",
"472 -24 OFFCURVE",
"486 1 OFFCURVE",
"486 1 CURVE SMOOTH"
);
}
);
width = 928;
}
);
unicode = 00C7;
},
{
glyphname = D;
lastChange = "2013-03-13 10:29:38 +0200";
layers = (
{
layerId = UUID0;
name = "Bold Italic";
paths = (
{
closed = 1;
nodes = (
"303 1462 LINE",
"-7 0 LINE",
"383 0 LINE SMOOTH",
"822 0 OFFCURVE",
"1050 325 OFFCURVE",
"1139 745 CURVE SMOOTH",
"1222 1134 OFFCURVE",
"1132 1462 OFFCURVE",
"725 1462 CURVE SMOOTH"
);
},
{
closed = 1;
nodes = (
"805 1191 OFFCURVE",
"846 1040 OFFCURVE",
"781 737 CURVE SMOOTH",
"716 428 OFFCURVE",
"607 274 OFFCURVE",
"443 274 CURVE SMOOTH",
"401 274 LINE",
"596 1191 LINE",
"659 1191 LINE SMOOTH"
);
}
);
width = 1230;
}
);
unicode = 0044;
},
{
glyphname = Eth;
lastChange = "2013-03-13 10:29:38 +0200";
layers = (
{
layerId = UUID0;
name = "Bold Italic";
paths = (
{
closed = 1;
nodes = (
"303 1462 LINE",
"171 841 LINE",
"13 841 LINE",
"-37 605 LINE",
"121 605 LINE",
"-7 0 LINE",
"383 0 LINE SMOOTH",
"822 0 OFFCURVE",
"1050 325 OFFCURVE",
"1139 745 CURVE SMOOTH",
"1222 1134 OFFCURVE",
"1132 1462 OFFCURVE",
"725 1462 CURVE SMOOTH"
);
},
{
closed = 1;
nodes = (
"805 1191 OFFCURVE",
"846 1040 OFFCURVE",
"781 737 CURVE SMOOTH",
"716 428 OFFCURVE",
"607 274 OFFCURVE",
"443 274 CURVE SMOOTH",
"401 274 LINE",
"471 605 LINE",
"570 605 LINE",
"620 841 LINE",
"521 841 LINE",
"596 1191 LINE",
"659 1191 LINE SMOOTH"
);
}
);
width = 1210;
}
);
unicode = 00D0;
},
{
glyphname = E;
lastChange = "2013-03-13 10:29:38 +0200";
layers = (
{
layerId = UUID0;
name = "Bold Italic";
paths = (
{
closed = 1;
nodes = (
"303 1462 LINE",
"-7 0 LINE",
"718 0 LINE",
"776 274 LINE",
"401 274 LINE",
"475 624 LINE",
"823 624 LINE",
"881 896 LINE",
"533 896 LINE",
"596 1191 LINE",
"971 1191 LINE",
"1028 1462 LINE"
);
}
);
width = 961;
}
);
unicode = 0045;
},
{
glyphname = Eacute;
lastChange = "2013-03-13 10:29:38 +0200";
layers = (
{
layerId = UUID0;
name = "Bold Italic";
paths = (
{
closed = 1;
nodes = (
"187 1462 LINE",
"-123 0 LINE",
"602 0 LINE",
"660 274 LINE",
"285 274 LINE",
"359 624 LINE",
"707 624 LINE",
"765 896 LINE",
"417 896 LINE",
"480 1191 LINE",
"855 1191 LINE",
"912 1462 LINE"
);
},
{
closed = 1;
nodes = (
"673 1904 LINE",
"653 1882 OFFCURVE",
"627 1857 OFFCURVE",
"596 1828 CURVE SMOOTH",
"566 1800 OFFCURVE",
"496 1738 OFFCURVE",
"385 1641 CURVE",
"380 1616 LINE",
"608 1616 LINE",
"657 1642 OFFCURVE",
"728 1684 OFFCURVE",
"822 1742 CURVE SMOOTH",
"916 1801 OFFCURVE",
"991 1849 OFFCURVE",
"1046 1886 CURVE",
"1049 1904 LINE"
);
}
);
width = 852;
}
);
unicode = 00C9;
},
{
glyphname = Ecircumflex;
lastChange = "2013-03-13 10:29:38 +0200";
layers = (
{
layerId = UUID0;
name = "Bold Italic";
paths = (
{
closed = 1;
nodes = (
"187 1462 LINE",
"-123 0 LINE",
"602 0 LINE",
"660 274 LINE",
"285 274 LINE",
"359 624 LINE",
"707 624 LINE",
"765 896 LINE",
"417 896 LINE",
"480 1191 LINE",
"855 1191 LINE",
"912 1462 LINE"
);
},
{
closed = 1;
nodes = (
"469 1905 LINE",
"440 1871 OFFCURVE",
"398 1828 OFFCURVE",
"342 1776 CURVE SMOOTH",
"287 1725 OFFCURVE",
"236 1680 OFFCURVE",
"187 1642 CURVE",
"181 1617 LINE",
"408 1617 LINE",
"455 1642 OFFCURVE",
"521 1686 OFFCURVE",
"607 1749 CURVE",
"664 1689 OFFCURVE",
"713 1645 OFFCURVE",
"756 1617 CURVE",
"980 1617 LINE",
"986 1642 LINE",
"911 1737 OFFCURVE",
"853 1825 OFFCURVE",
"815 1905 CURVE"
);
}
);
width = 852;
}
);
unicode = 00CA;
},
{
glyphname = Edieresis;
lastChange = "2013-03-13 10:29:38 +0200";
layers = (
{
layerId = UUID0;
name = "Bold Italic";
paths = (
{
closed = 1;
nodes = (
"189 1462 LINE",
"-122 0 LINE",
"603 0 LINE",
"661 274 LINE",
"286 274 LINE",
"361 624 LINE",
"709 624 LINE",
"766 896 LINE",
"418 896 LINE",
"481 1191 LINE",
"856 1191 LINE",
"914 1462 LINE"
);
},
{
closed = 1;
nodes = (
"351 1892 OFFCURVE",
"284 1840 OFFCURVE",
"265 1751 CURVE SMOOTH",
"247 1664 OFFCURVE",
"292 1613 OFFCURVE",
"388 1613 CURVE SMOOTH",
"482 1613 OFFCURVE",
"551 1668 OFFCURVE",
"569 1751 CURVE SMOOTH",
"587 1836 OFFCURVE",
"541 1892 OFFCURVE",
"447 1892 CURVE SMOOTH"
);
},
{
closed = 1;
nodes = (
"774 1892 OFFCURVE",
"707 1840 OFFCURVE",
"688 1751 CURVE SMOOTH",
"670 1664 OFFCURVE",
"715 1613 OFFCURVE",
"811 1613 CURVE SMOOTH",
"905 1613 OFFCURVE",
"974 1668 OFFCURVE",
"992 1751 CURVE SMOOTH",
"1010 1836 OFFCURVE",
"964 1892 OFFCURVE",
"870 1892 CURVE SMOOTH"
);
}
);
width = 852;
}
);
unicode = 00CB;
},
{
glyphname = Egrave;
lastChange = "2013-03-13 10:29:38 +0200";
layers = (
{
layerId = UUID0;
name = "Bold Italic";
paths = (
{
closed = 1;
nodes = (
"187 1462 LINE",
"-123 0 LINE",
"602 0 LINE",
"660 274 LINE",
"285 274 LINE",
"359 624 LINE",
"707 624 LINE",
"765 896 LINE",
"417 896 LINE",
"480 1191 LINE",
"855 1191 LINE",
"912 1462 LINE"
);
},
{
closed = 1;
nodes = (
"238 1905 LINE",
"235 1887 LINE",
"280 1844 OFFCURVE",
"336 1794 OFFCURVE",
"403 1738 CURVE SMOOTH",
"470 1683 OFFCURVE",
"522 1642 OFFCURVE",
"557 1617 CURVE",
"785 1617 LINE",
"791 1642 LINE",
"752 1700 LINE SMOOTH",
"683 1796 OFFCURVE",
"639 1864 OFFCURVE",
"616 1905 CURVE"
);
}
);
width = 852;
}
);
unicode = 00C8;
},
{
glyphname = F;
lastChange = "2013-03-13 10:29:38 +0200";
layers = (
{
layerId = UUID0;
name = "Bold Italic";
paths = (
{
closed = 1;
nodes = (
"303 1462 LINE",
"-7 0 LINE",
"341 0 LINE",
"462 569 LINE",
"810 569 LINE",
"867 840 LINE",
"519 840 LINE",
"594 1191 LINE",
"967 1191 LINE",
"1024 1462 LINE"
);
}
);
width = 941;
}
);
unicode = 0046;
},
{
glyphname = G;
lastChange = "2013-03-13 10:29:38 +0200";
layers = (
{
layerId = UUID0;
name = "Bold Italic";
paths = (
{
closed = 1;
nodes = (
"439 1482 OFFCURVE",
"183 1150 OFFCURVE",
"94 733 CURVE SMOOTH",
"10 335 OFFCURVE",
"68 -19 OFFCURVE",
"491 -19 CURVE SMOOTH",
"639 -19 OFFCURVE",
"790 11 OFFCURVE",
"946 72 CURVE",
"1107 830 LINE",
"588 830 LINE",
"529 554 LINE",
"704 554 LINE",
"643 264 LINE",
"611 258 OFFCURVE",
"583 255 OFFCURVE",
"554 255 CURVE SMOOTH",
"420 255 OFFCURVE",
"383 422 OFFCURVE",
"448 727 CURVE SMOOTH",
"493 938 OFFCURVE",
"612 1207 OFFCURVE",
"834 1207 CURVE SMOOTH",
"892 1207 OFFCURVE",
"968 1176 OFFCURVE",
"1064 1113 CURVE",
"1224 1379 LINE",
"1116 1447 OFFCURVE",
"1001 1482 OFFCURVE",
"877 1482 CURVE SMOOTH"
);
}
);
width = 1216;
}
);
unicode = 0047;
},
{
glyphname = H;
lastChange = "2013-03-13 10:29:38 +0200";
layers = (
{
layerId = UUID0;
name = "Bold Italic";
paths = (
{
closed = 1;
nodes = (
"916 1462 LINE",
"796 898 LINE",
"532 898 LINE",
"652 1462 LINE",
"303 1462 LINE",
"-7 0 LINE",
"342 0 LINE",
"474 622 LINE",
"738 622 LINE",
"606 0 LINE",
"955 0 LINE",
"1265 1462 LINE"
);
}
);
width = 1258;
}
);
unicode = 0048;
},
{
glyphname = I;
lastChange = "2013-03-13 10:29:38 +0200";
layers = (
{
layerId = UUID0;
name = "Bold Italic";
paths = (
{
closed = 1;
nodes = (
"303 1462 LINE",
"-7 0 LINE",
"327 0 LINE",
"637 1462 LINE"
);
}
);
width = 630;
}
);
unicode = 0049;
},
{
glyphname = Iacute;
lastChange = "2013-03-13 10:29:38 +0200";
layers = (
{
layerId = UUID0;
name = "Bold Italic";
paths = (
{
closed = 1;
nodes = (
"233 1462 LINE",
"-77 0 LINE",
"257 0 LINE",
"567 1462 LINE"
);
},
{
closed = 1;
nodes = (
"504 1904 LINE",
"484 1882 OFFCURVE",
"458 1857 OFFCURVE",
"427 1828 CURVE SMOOTH",
"397 1800 OFFCURVE",
"327 1738 OFFCURVE",
"216 1641 CURVE",
"211 1616 LINE",
"439 1616 LINE",
"488 1642 OFFCURVE",
"559 1684 OFFCURVE",
"653 1742 CURVE SMOOTH",
"747 1801 OFFCURVE",
"822 1849 OFFCURVE",
"877 1886 CURVE",
"880 1904 LINE"
);
}
);
width = 594;
}
);
unicode = 00CD;
},
{
glyphname = Icircumflex;
lastChange = "2013-03-13 10:29:38 +0200";
layers = (
{
layerId = UUID0;
name = "Bold Italic";
paths = (
{
closed = 1;
nodes = (
"233 1462 LINE",
"-77 0 LINE",
"257 0 LINE",
"567 1462 LINE"
);
},
{
closed = 1;
nodes = (
"318 1905 LINE",
"289 1871 OFFCURVE",
"247 1828 OFFCURVE",
"191 1776 CURVE SMOOTH",
"136 1725 OFFCURVE",
"85 1680 OFFCURVE",
"36 1642 CURVE",
"30 1617 LINE",
"257 1617 LINE",
"304 1642 OFFCURVE",
"370 1686 OFFCURVE",
"456 1749 CURVE",
"513 1689 OFFCURVE",
"562 1645 OFFCURVE",
"605 1617 CURVE",
"829 1617 LINE",
"835 1642 LINE",
"760 1737 OFFCURVE",
"702 1825 OFFCURVE",
"664 1905 CURVE"
);
}
);
width = 594;
}
);
unicode = 00CE;
},
{
glyphname = Idieresis;
lastChange = "2013-03-13 10:29:38 +0200";
layers = (
{
layerId = UUID0;
name = "Bold Italic";
paths = (
{
closed = 1;
nodes = (
"235 1462 LINE",
"-76 0 LINE",
"258 0 LINE",
"569 1462 LINE"
);
},
{
closed = 1;
nodes = (
"197 1892 OFFCURVE",
"130 1840 OFFCURVE",
"111 1751 CURVE SMOOTH",
"93 1664 OFFCURVE",
"138 1613 OFFCURVE",
"234 1613 CURVE SMOOTH",
"328 1613 OFFCURVE",
"397 1668 OFFCURVE",
"415 1751 CURVE SMOOTH",
"433 1836 OFFCURVE",
"387 1892 OFFCURVE",
"293 1892 CURVE SMOOTH"
);
},
{
closed = 1;
nodes = (
"620 1892 OFFCURVE",
"553 1840 OFFCURVE",
"534 1751 CURVE SMOOTH",
"516 1664 OFFCURVE",
"561 1613 OFFCURVE",
"657 1613 CURVE SMOOTH",
"751 1613 OFFCURVE",
"820 1668 OFFCURVE",
"838 1751 CURVE SMOOTH",
"856 1836 OFFCURVE",
"810 1892 OFFCURVE",
"716 1892 CURVE SMOOTH"
);
}
);
width = 594;
}
);
unicode = 00CF;
},
{
glyphname = Igrave;
lastChange = "2013-03-13 10:29:38 +0200";
layers = (
{
layerId = UUID0;
name = "Bold Italic";
paths = (
{
closed = 1;
nodes = (
"233 1462 LINE",
"-77 0 LINE",
"257 0 LINE",
"567 1462 LINE"
);
},
{
closed = 1;
nodes = (
"99 1905 LINE",
"96 1887 LINE",
"141 1844 OFFCURVE",
"197 1794 OFFCURVE",
"264 1738 CURVE SMOOTH",
"331 1683 OFFCURVE",
"383 1642 OFFCURVE",
"418 1617 CURVE",
"646 1617 LINE",
"652 1642 LINE",
"613 1700 LINE SMOOTH",
"544 1796 OFFCURVE",
"500 1864 OFFCURVE",
"477 1905 CURVE"
);
}
);
width = 594;
}
);
unicode = 00CC;
},
{
glyphname = J;
lastChange = "2013-03-13 10:29:38 +0200";
layers = (
{
layerId = UUID0;
name = "Bold Italic";
paths = (
{
closed = 1;
nodes = (
"301 1462 LINE",
"1 51 LINE SMOOTH",
"-25 -70 OFFCURVE",
"-73 -132 OFFCURVE",
"-150 -132 CURVE SMOOTH",
"-182 -132 OFFCURVE",
"-234 -119 OFFCURVE",
"-304 -97 CURVE",
"-363 -373 LINE",
"-307 -398 OFFCURVE",
"-242 -410 OFFCURVE",
"-166 -410 CURVE SMOOTH",
"78 -412 OFFCURVE",
"296 -227 OFFCURVE",
"354 65 CURVE",
"651 1462 LINE"
);
}
);
width = 601;
}
);
unicode = 004A;
},
{
glyphname = K;
lastChange = "2013-03-13 10:29:38 +0200";
layers = (
{
layerId = UUID0;
name = "Bold Italic";
paths = (
{
closed = 1;
nodes = (
"912 1462 LINE",
"556 958 LINE",
"541 932 LINE",
"653 1462 LINE",
"303 1462 LINE",
"-7 0 LINE",
"343 0 LINE",
"453 519 LINE",
"507 564 LINE",
"604 0 LINE",
"972 0 LINE",
"806 826 LINE",
"1281 1462 LINE"
);
}
);
width = 1109;
}
);
unicode = 004B;
},
{
glyphname = L;
lastChange = "2013-03-13 10:29:38 +0200";
layers = (
{
layerId = UUID0;
name = "Bold Italic";
paths = (
{
closed = 1;
nodes = (
"303 1462 LINE",
"-7 0 LINE",
"709 0 LINE",
"767 274 LINE",
"401 274 LINE",
"653 1462 LINE"
);
}
);
width = 930;
}
);
unicode = 004C;
},
{
glyphname = M;
lastChange = "2013-03-13 10:29:38 +0200";
layers = (
{
layerId = UUID0;
name = "Bold Italic";
paths = (
{
closed = 1;
nodes = (
"1205 1462 LINE",
"1071 1147 OFFCURVE",
"930 822 OFFCURVE",
"794 505 CURVE",
"790 1462 LINE",
"303 1462 LINE",
"-7 0 LINE",
"323 0 LINE",
"495 813 LINE",
"505 0 LINE",
"869 0 LINE",
"1224 818 LINE",
"1051 0 LINE",
"1387 0 LINE",
"1697 1462 LINE"
);
}
);
width = 1690;
}
);
unicode = 004D;
},
{
glyphname = N;
lastChange = "2013-03-13 10:29:38 +0200";
layers = (
{
layerId = UUID0;
name = "Bold Italic";
paths = (
{
closed = 1;
nodes = (
"1054 1462 LINE",
"885 666 LINE",
"880 641 LINE",
"703 1462 LINE",
"303 1462 LINE",
"-7 0 LINE",
"323 0 LINE",
"492 797 LINE",
"497 822 LINE",
"674 0 LINE",
"1072 0 LINE",
"1382 1462 LINE"
);
}
);
width = 1375;
}
);
unicode = 004E;
},
{
glyphname = Ntilde;
lastChange = "2013-03-13 10:29:38 +0200";
layers = (
{
layerId = UUID0;
name = "Bold Italic";
paths = (
{
closed = 1;
nodes = (
"944 1462 LINE",
"775 666 LINE",
"770 641 LINE",
"593 1462 LINE",
"193 1462 LINE",
"-118 0 LINE",
"212 0 LINE",
"382 797 LINE",
"387 822 LINE",
"563 0 LINE",
"961 0 LINE",
"1272 1462 LINE"
);
},
{
closed = 1;
nodes = (
"1032 1878 LINE",
"1009 1822 OFFCURVE",
"983 1792 OFFCURVE",
"950 1792 CURVE SMOOTH",
"861 1792 OFFCURVE",
"761 1877 OFFCURVE",
"672 1877 CURVE SMOOTH",
"533 1877 OFFCURVE",
"443 1781 OFFCURVE",
"387 1576 CURVE",
"545 1576 LINE",
"569 1633 OFFCURVE",
"596 1662 OFFCURVE",
"627 1662 CURVE SMOOTH",
"715 1662 OFFCURVE",
"805 1577 OFFCURVE",
"912 1577 CURVE SMOOTH",
"1040 1577 OFFCURVE",
"1138 1682 OFFCURVE",
"1192 1878 CURVE"
);
}
);
width = 1262;
}
);
unicode = 00D1;
},
{
glyphname = O;
lastChange = "2013-03-13 10:29:38 +0200";
layers = (
{
layerId = UUID0;
name = "Bold Italic";
paths = (
{
closed = 1;
nodes = (
"386 1484 OFFCURVE",
"179 1132 OFFCURVE",
"95 735 CURVE SMOOTH",
"10 338 OFFCURVE",
"63 -19 OFFCURVE",
"487 -19 CURVE SMOOTH",
"909 -19 OFFCURVE",
"1115 338 OFFCURVE",
"1199 733 CURVE SMOOTH",
"1283 1128 OFFCURVE",
"1231 1484 OFFCURVE",
"809 1484 CURVE SMOOTH"
);
},
{
closed = 1;
nodes = (
"880 1209 OFFCURVE",
"910 1049 OFFCURVE",
"843 733 CURVE SMOOTH",
"776 416 OFFCURVE",
"677 257 OFFCURVE",
"546 257 CURVE SMOOTH",
"416 257 OFFCURVE",
"383 423 OFFCURVE",
"449 733 CURVE SMOOTH",
"515 1045 OFFCURVE",
"618 1209 OFFCURVE",
"750 1209 CURVE SMOOTH"
);
}
);
width = 1295;
}
);
unicode = 004F;
},
{
glyphname = Oacute;
lastChange = "2013-03-13 10:29:38 +0200";
layers = (
{
layerId = UUID0;
name = "Bold Italic";
paths = (
{
closed = 1;
nodes = (
"285 1484 OFFCURVE",
"78 1132 OFFCURVE",
"-6 735 CURVE SMOOTH",
"-90 338 OFFCURVE",
"-37 -19 OFFCURVE",
"387 -19 CURVE SMOOTH",
"809 -19 OFFCURVE",
"1015 338 OFFCURVE",
"1098 733 CURVE SMOOTH",
"1182 1128 OFFCURVE",
"1130 1484 OFFCURVE",
"708 1484 CURVE SMOOTH"
);
},
{
closed = 1;
nodes = (
"780 1209 OFFCURVE",
"810 1049 OFFCURVE",
"742 733 CURVE SMOOTH",
"675 416 OFFCURVE",
"576 257 OFFCURVE",
"445 257 CURVE SMOOTH",
"315 257 OFFCURVE",
"283 423 OFFCURVE",
"348 733 CURVE SMOOTH",
"415 1045 OFFCURVE",
"518 1209 OFFCURVE",
"650 1209 CURVE SMOOTH"
);
},
{
closed = 1;
nodes = (
"816 1904 LINE",
"796 1882 OFFCURVE",
"770 1857 OFFCURVE",
"739 1828 CURVE SMOOTH",
"709 1800 OFFCURVE",
"639 1738 OFFCURVE",
"528 1641 CURVE",
"523 1616 LINE",
"751 1616 LINE",
"800 1642 OFFCURVE",
"871 1684 OFFCURVE",
"965 1742 CURVE SMOOTH",
"1059 1801 OFFCURVE",
"1134 1849 OFFCURVE",
"1189 1886 CURVE",
"1192 1904 LINE"
);
}
);
width = 1199;
}
);
unicode = 00D3;
},
{
glyphname = Ocircumflex;
lastChange = "2013-03-13 10:29:38 +0200";
layers = (
{
layerId = UUID0;
name = "Bold Italic";
paths = (
{
closed = 1;
nodes = (
"285 1484 OFFCURVE",
"78 1132 OFFCURVE",
"-6 735 CURVE SMOOTH",
"-91 338 OFFCURVE",
"-37 -19 OFFCURVE",
"387 -19 CURVE SMOOTH",
"809 -19 OFFCURVE",
"1014 338 OFFCURVE",
"1098 733 CURVE SMOOTH",
"1182 1128 OFFCURVE",
"1130 1484 OFFCURVE",
"708 1484 CURVE SMOOTH"
);
},
{
closed = 1;
nodes = (
"780 1209 OFFCURVE",
"810 1049 OFFCURVE",
"742 733 CURVE SMOOTH",
"675 416 OFFCURVE",
"576 257 OFFCURVE",
"445 257 CURVE SMOOTH",
"315 257 OFFCURVE",
"282 423 OFFCURVE",
"348 733 CURVE SMOOTH",
"415 1045 OFFCURVE",
"518 1209 OFFCURVE",
"650 1209 CURVE SMOOTH"
);
},
{
closed = 1;
nodes = (
"620 1905 LINE",
"591 1871 OFFCURVE",
"549 1828 OFFCURVE",
"493 1776 CURVE SMOOTH",
"438 1725 OFFCURVE",
"387 1680 OFFCURVE",
"338 1642 CURVE",
"332 1617 LINE",
"559 1617 LINE",
"606 1642 OFFCURVE",
"672 1686 OFFCURVE",
"758 1749 CURVE",
"815 1689 OFFCURVE",
"864 1645 OFFCURVE",
"907 1617 CURVE",
"1131 1617 LINE",
"1137 1642 LINE",
"1062 1737 OFFCURVE",
"1004 1825 OFFCURVE",
"966 1905 CURVE"
);
}
);
width = 1199;
}
);
unicode = 00D4;
},
{
glyphname = Odieresis;
lastChange = "2013-03-13 10:29:38 +0200";
layers = (
{
layerId = UUID0;
name = "Bold Italic";
paths = (
{
closed = 1;
nodes = (
"286 1484 OFFCURVE",
"80 1132 OFFCURVE",
"-5 735 CURVE SMOOTH",
"-89 338 OFFCURVE",
"-36 -19 OFFCURVE",
"388 -19 CURVE SMOOTH",
"810 -19 OFFCURVE",
"1016 338 OFFCURVE",
"1100 733 CURVE SMOOTH",
"1184 1128 OFFCURVE",
"1131 1484 OFFCURVE",
"709 1484 CURVE SMOOTH"
);
},
{
closed = 1;
nodes = (
"781 1209 OFFCURVE",
"811 1049 OFFCURVE",
"744 733 CURVE SMOOTH",
"676 416 OFFCURVE",
"578 257 OFFCURVE",
"447 257 CURVE SMOOTH",
"317 257 OFFCURVE",
"284 423 OFFCURVE",
"350 733 CURVE SMOOTH",
"416 1045 OFFCURVE",
"519 1209 OFFCURVE",
"651 1209 CURVE SMOOTH"
);
},
{
closed = 1;
nodes = (
"499 1892 OFFCURVE",
"432 1840 OFFCURVE",
"413 1751 CURVE SMOOTH",
"395 1664 OFFCURVE",
"440 1613 OFFCURVE",
"536 1613 CURVE SMOOTH",
"630 1613 OFFCURVE",
"699 1668 OFFCURVE",
"717 1751 CURVE SMOOTH",
"735 1836 OFFCURVE",
"689 1892 OFFCURVE",
"595 1892 CURVE SMOOTH"
);
},
{
closed = 1;
nodes = (
"922 1892 OFFCURVE",
"855 1840 OFFCURVE",
"836 1751 CURVE SMOOTH",
"818 1664 OFFCURVE",
"863 1613 OFFCURVE",
"959 1613 CURVE SMOOTH",
"1053 1613 OFFCURVE",
"1122 1668 OFFCURVE",
"1140 1751 CURVE SMOOTH",
"1158 1836 OFFCURVE",
"1112 1892 OFFCURVE",
"1018 1892 CURVE SMOOTH"
);
}
);
width = 1199;
}
);
unicode = 00D6;
},
{
glyphname = Ograve;
lastChange = "2013-03-13 10:29:38 +0200";
layers = (
{
layerId = UUID0;
name = "Bold Italic";
paths = (
{
closed = 1;
nodes = (
"285 1484 OFFCURVE",
"78 1132 OFFCURVE",
"-6 735 CURVE SMOOTH",
"-91 338 OFFCURVE",
"-37 -19 OFFCURVE",
"387 -19 CURVE SMOOTH",
"809 -19 OFFCURVE",
"1014 338 OFFCURVE",
"1098 733 CURVE SMOOTH",
"1182 1128 OFFCURVE",
"1130 1484 OFFCURVE",
"708 1484 CURVE SMOOTH"
);
},
{
closed = 1;
nodes = (
"780 1209 OFFCURVE",
"810 1049 OFFCURVE",
"742 733 CURVE SMOOTH",
"675 416 OFFCURVE",
"576 257 OFFCURVE",
"445 257 CURVE SMOOTH",
"315 257 OFFCURVE",
"282 423 OFFCURVE",
"348 733 CURVE SMOOTH",
"415 1045 OFFCURVE",
"518 1209 OFFCURVE",
"650 1209 CURVE SMOOTH"
);
},
{
closed = 1;
nodes = (
"395 1905 LINE",
"392 1887 LINE",
"438 1844 OFFCURVE",
"493 1794 OFFCURVE",
"560 1738 CURVE SMOOTH",
"627 1683 OFFCURVE",
"679 1642 OFFCURVE",
"714 1617 CURVE",
"942 1617 LINE",
"948 1642 LINE",
"909 1700 LINE SMOOTH",
"840 1796 OFFCURVE",
"796 1864 OFFCURVE",
"773 1905 CURVE"
);
}
);
width = 1199;
}
);
unicode = 00D2;
},
{
glyphname = Oslash;
lastChange = "2013-03-13 10:29:38 +0200";
layers = (
{
layerId = UUID0;
name = "Bold Italic";
paths = (
{
closed = 1;
nodes = (
"988 1432 LINE",
"928 1465 OFFCURVE",
"851 1484 OFFCURVE",
"755 1484 CURVE SMOOTH",
"332 1484 OFFCURVE",
"125 1132 OFFCURVE",
"41 735 CURVE SMOOTH",
"-7 509 OFFCURVE",
"-11 296 OFFCURVE",
"73 155 CURVE",
"-47 -13 LINE",
"119 -107 LINE",
"213 25 LINE",
"272 -3 OFFCURVE",
"345 -19 OFFCURVE",
"434 -19 CURVE SMOOTH",
"856 -19 OFFCURVE",
"1062 338 OFFCURVE",
"1146 733 CURVE SMOOTH",
"1191 949 OFFCURVE",
"1196 1153 OFFCURVE",
"1123 1294 CURVE",
"1252 1475 LINE",
"1086 1568 LINE"
);
},
{
closed = 1;
nodes = (
"806 821 OFFCURVE",
"799 779 OFFCURVE",
"790 733 CURVE SMOOTH",
"722 416 OFFCURVE",
"623 257 OFFCURVE",
"492 257 CURVE SMOOTH",
"456 257 OFFCURVE",
"428 269 OFFCURVE",
"406 294 CURVE",
"813 861 LINE"
);
},
{
closed = 1;
nodes = (
"739 1209 OFFCURVE",
"771 1192 OFFCURVE",
"792 1158 CURVE",
"368 566 LINE",
"373 616 OFFCURVE",
"382 671 OFFCURVE",
"396 733 CURVE SMOOTH",
"462 1045 OFFCURVE",
"565 1209 OFFCURVE",
"697 1209 CURVE SMOOTH"
);
}
);
width = 1199;
}
);
unicode = 00D8;
},
{
glyphname = Otilde;
lastChange = "2013-03-13 10:29:38 +0200";
layers = (
{
layerId = UUID0;
name = "Bold Italic";
paths = (
{
closed = 1;
nodes = (
"288 1484 OFFCURVE",
"81 1132 OFFCURVE",
"-3 735 CURVE SMOOTH",
"-88 338 OFFCURVE",
"-35 -19 OFFCURVE",
"389 -19 CURVE SMOOTH",
"811 -19 OFFCURVE",
"1017 338 OFFCURVE",
"1101 733 CURVE SMOOTH",
"1185 1128 OFFCURVE",
"1133 1484 OFFCURVE",
"711 1484 CURVE SMOOTH"
);
},
{
closed = 1;
nodes = (
"782 1209 OFFCURVE",
"812 1049 OFFCURVE",
"745 733 CURVE SMOOTH",
"678 416 OFFCURVE",
"579 257 OFFCURVE",
"448 257 CURVE SMOOTH",
"318 257 OFFCURVE",
"285 423 OFFCURVE",
"351 733 CURVE SMOOTH",
"418 1045 OFFCURVE",
"520 1209 OFFCURVE",
"652 1209 CURVE SMOOTH"
);
},
{
closed = 1;
nodes = (
"1003 1878 LINE",
"980 1822 OFFCURVE",
"954 1792 OFFCURVE",
"921 1792 CURVE SMOOTH",
"832 1792 OFFCURVE",
"732 1877 OFFCURVE",
"643 1877 CURVE SMOOTH",
"504 1877 OFFCURVE",
"414 1781 OFFCURVE",
"358 1576 CURVE",
"516 1576 LINE",
"540 1633 OFFCURVE",
"567 1662 OFFCURVE",
"598 1662 CURVE SMOOTH",
"686 1662 OFFCURVE",
"776 1577 OFFCURVE",
"883 1577 CURVE SMOOTH",
"1011 1577 OFFCURVE",
"1109 1682 OFFCURVE",
"1163 1878 CURVE"
);
}
);
width = 1199;
}
);
unicode = 00D5;
},
{
glyphname = OE;
lastChange = "2013-03-13 10:29:38 +0200";
layers = (
{
layerId = UUID0;
name = "Bold Italic";
paths = (
{
closed = 1;
nodes = (
"569 1484 OFFCURVE",
"417 1418 OFFCURVE",
"297 1287 CURVE SMOOTH",
"176 1155 OFFCURVE",
"90 971 OFFCURVE",
"40 735 CURVE SMOOTH",
"-11 497 OFFCURVE",
"-3 312 OFFCURVE",
"61 178 CURVE SMOOTH",
"125 47 OFFCURVE",
"249 -19 OFFCURVE",
"433 -19 CURVE SMOOTH",
"484 -19 OFFCURVE",
"535 -14 OFFCURVE",
"589 0 CURVE",
"1208 0 LINE",
"1267 274 LINE",
"895 274 LINE",
"969 624 LINE",
"1312 624 LINE",
"1370 896 LINE",
"1027 896 LINE",
"1089 1191 LINE",
"1461 1191 LINE",
"1519 1462 LINE",
"912 1462 LINE",
"863 1478 OFFCURVE",
"811 1484 OFFCURVE",
"755 1484 CURVE SMOOTH"
);
},
{
closed = 1;
nodes = (
"711 1209 OFFCURVE",
"726 1208 OFFCURVE",
"742 1204 CURVE",
"542 262 LINE",
"525 258 OFFCURVE",
"509 257 OFFCURVE",
"492 257 CURVE SMOOTH",
"362 257 OFFCURVE",
"329 423 OFFCURVE",
"395 733 CURVE SMOOTH",
"461 1045 OFFCURVE",
"564 1209 OFFCURVE",
"696 1209 CURVE SMOOTH"
);
}
);
width = 1426;
}
);
unicode = 0152;
},
{
glyphname = P;
lastChange = "2013-03-13 10:29:38 +0200";
layers = (
{
layerId = UUID0;
name = "Bold Italic";
paths = (
{
closed = 1;
nodes = (
"303 1462 LINE",
"-7 0 LINE",
"343 0 LINE",
"452 515 LINE",
"475 515 LINE SMOOTH",
"790 515 OFFCURVE",
"998 688 OFFCURVE",
"1065 1004 CURVE SMOOTH",
"1130 1310 OFFCURVE",
"1010 1462 OFFCURVE",
"706 1462 CURVE SMOOTH"
);
},
{
closed = 1;
nodes = (
"709 1191 OFFCURVE",
"739 1127 OFFCURVE",
"711 993 CURVE SMOOTH",
"680 847 OFFCURVE",
"617 786 OFFCURVE",
"517 786 CURVE SMOOTH",
"510 786 LINE",
"596 1191 LINE",
"617 1191 LINE SMOOTH"
);
}
);
width = 1072;
}
);
unicode = 0050;
},
{
glyphname = Thorn;
lastChange = "2013-03-13 10:29:38 +0200";
layers = (
{
layerId = UUID0;
name = "Bold Italic";
paths = (
{
closed = 1;
nodes = (
"235 1462 LINE",
"-75 0 LINE",
"275 0 LINE",
"335 286 LINE",
"358 286 LINE SMOOTH",
"674 286 OFFCURVE",
"882 461 OFFCURVE",
"949 777 CURVE SMOOTH",
"1014 1083 OFFCURVE",
"893 1236 OFFCURVE",
"588 1236 CURVE SMOOTH",
"537 1236 LINE",
"585 1462 LINE"
);
},
{
closed = 1;
nodes = (
"592 966 OFFCURVE",
"623 899 OFFCURVE",
"595 767 CURVE SMOOTH",
"563 619 OFFCURVE",
"500 557 OFFCURVE",
"400 557 CURVE SMOOTH",
"393 557 LINE",
"480 966 LINE",
"503 966 LINE SMOOTH"
);
}
);
width = 961;
}
);
unicode = 00DE;
},
{
glyphname = Q;
lastChange = "2013-03-13 10:29:38 +0200";
layers = (
{
layerId = UUID0;
name = "Bold Italic";
paths = (
{
closed = 1;
nodes = (
"658 1484 OFFCURVE",
"506 1418 OFFCURVE",
"386 1287 CURVE SMOOTH",
"264 1155 OFFCURVE",
"179 971 OFFCURVE",
"128 735 CURVE SMOOTH",
"78 497 OFFCURVE",
"85 312 OFFCURVE",
"150 178 CURVE SMOOTH",
"212 50 OFFCURVE",
"331 -16 OFFCURVE",
"506 -19 CURVE",
"634 -338 LINE",
"1027 -338 LINE",
"970 -211 OFFCURVE",
"899 -59 OFFCURVE",
"840 69 CURVE",
"1032 191 OFFCURVE",
"1167 418 OFFCURVE",
"1234 733 CURVE SMOOTH",
"1284 969 OFFCURVE",
"1276 1154 OFFCURVE",
"1213 1286 CURVE SMOOTH",
"1150 1418 OFFCURVE",
"1027 1484 OFFCURVE",
"843 1484 CURVE SMOOTH"
);
},
{
closed = 1;
nodes = (
"914 1209 OFFCURVE",
"944 1049 OFFCURVE",
"877 733 CURVE SMOOTH",
"810 416 OFFCURVE",
"711 257 OFFCURVE",
"580 257 CURVE SMOOTH",
"450 257 OFFCURVE",
"417 423 OFFCURVE",
"483 733 CURVE SMOOTH",
"549 1045 OFFCURVE",
"652 1209 OFFCURVE",
"784 1209 CURVE SMOOTH"
);
}
);
width = 1276;
}
);
unicode = 0051;
},
{
glyphname = R;
lastChange = "2013-03-13 10:29:38 +0200";
layers = (
{
layerId = UUID0;
name = "Bold Italic";
paths = (
{
closed = 1;
nodes = (
"303 1462 LINE",
"-7 0 LINE",
"342 0 LINE",
"459 552 LINE",
"477 552 LINE",
"584 0 LINE",
"953 0 LINE",
"809 640 LINE",
"947 720 OFFCURVE",
"1032 847 OFFCURVE",
"1068 1019 CURVE SMOOTH",
"1132 1318 OFFCURVE",
"1013 1462 OFFCURVE",
"691 1462 CURVE SMOOTH"
);
},
{
closed = 1;
nodes = (
"710 1191 OFFCURVE",
"742 1141 OFFCURVE",
"715 1012 CURVE SMOOTH",
"688 886 OFFCURVE",
"636 822 OFFCURVE",
"542 822 CURVE SMOOTH",
"516 822 LINE",
"595 1191 LINE",
"619 1191 LINE SMOOTH"
);
}
);
width = 1073;
}
);
unicode = 0052;
},
{
glyphname = S;
lastChange = "2013-03-13 10:29:38 +0200";
layers = (
{
layerId = UUID0;
name = "Bold Italic";
paths = (
{
closed = 1;
nodes = (
"423 1482 OFFCURVE",
"217 1324 OFFCURVE",
"162 1065 CURVE SMOOTH",
"121 873 OFFCURVE",
"183 748 OFFCURVE",
"325 630 CURVE SMOOTH",
"395 573 OFFCURVE",
"475 500 OFFCURVE",
"451 387 CURVE SMOOTH",
"433 305 OFFCURVE",
"385 253 OFFCURVE",
"313 253 CURVE SMOOTH",
"236 253 OFFCURVE",
"133 301 OFFCURVE",
"9 396 CURVE",
"-61 68 LINE",
"30 10 OFFCURVE",
"144 -19 OFFCURVE",
"278 -19 CURVE SMOOTH",
"557 -19 OFFCURVE",
"744 134 OFFCURVE",
"803 413 CURVE SMOOTH",
"845 610 OFFCURVE",
"767 731 OFFCURVE",
"626 842 CURVE SMOOTH",
"556 897 OFFCURVE",
"486 960 OFFCURVE",
"509 1071 CURVE SMOOTH",
"527 1154 OFFCURVE",
"570 1207 OFFCURVE",
"628 1207 CURVE SMOOTH",
"698 1207 OFFCURVE",
"765 1163 OFFCURVE",
"841 1118 CURVE",
"1003 1375 LINE",
"900 1446 OFFCURVE",
"789 1482 OFFCURVE",
"668 1482 CURVE SMOOTH"
);
}
);
width = 929;
}
);
unicode = 0053;
},
{
glyphname = Scaron;
lastChange = "2013-03-13 10:29:38 +0200";
layers = (
{
layerId = UUID0;
name = "Bold Italic";
paths = (
{
closed = 1;
nodes = (
"317 1482 OFFCURVE",
"112 1324 OFFCURVE",
"57 1065 CURVE SMOOTH",
"16 873 OFFCURVE",
"77 748 OFFCURVE",
"220 630 CURVE SMOOTH",
"290 573 OFFCURVE",
"370 500 OFFCURVE",
"346 387 CURVE SMOOTH",
"328 305 OFFCURVE",
"280 253 OFFCURVE",
"208 253 CURVE SMOOTH",
"131 253 OFFCURVE",
"28 301 OFFCURVE",
"-96 396 CURVE",
"-166 68 LINE",
"-76 10 OFFCURVE",
"39 -19 OFFCURVE",
"173 -19 CURVE SMOOTH",
"452 -19 OFFCURVE",
"639 134 OFFCURVE",
"698 413 CURVE SMOOTH",
"740 610 OFFCURVE",
"662 731 OFFCURVE",
"521 842 CURVE SMOOTH",
"451 897 OFFCURVE",
"380 960 OFFCURVE",
"404 1071 CURVE SMOOTH",
"422 1154 OFFCURVE",
"465 1207 OFFCURVE",
"523 1207 CURVE SMOOTH",
"593 1207 OFFCURVE",
"660 1163 OFFCURVE",
"736 1118 CURVE",
"898 1375 LINE",
"795 1446 OFFCURVE",
"683 1482 OFFCURVE",
"562 1482 CURVE SMOOTH"
);
},
{
closed = 1;
nodes = (
"804 1907 LINE",
"749 1879 OFFCURVE",
"680 1835 OFFCURVE",
"599 1775 CURVE",
"539 1838 OFFCURVE",
"491 1882 OFFCURVE",
"456 1907 CURVE",
"229 1907 LINE",
"223 1882 LINE",
"259 1839 OFFCURVE",
"292 1793 OFFCURVE",
"324 1744 CURVE SMOOTH",
"356 1695 OFFCURVE",
"379 1654 OFFCURVE",
"394 1619 CURVE",
"740 1619 LINE",
"775 1657 OFFCURVE",
"818 1701 OFFCURVE",
"871 1750 CURVE SMOOTH",
"925 1799 OFFCURVE",
"975 1843 OFFCURVE",
"1022 1882 CURVE",
"1028 1907 LINE"
);
}
);
width = 826;
}
);
unicode = 0160;
},
{
glyphname = T;
lastChange = "2013-03-13 10:29:38 +0200";
layers = (
{
layerId = UUID0;
name = "Bold Italic";
paths = (
{
closed = 1;
nodes = (
"196 1462 LINE",
"138 1187 LINE",
"410 1187 LINE",
"158 0 LINE",
"506 0 LINE",
"758 1187 LINE",
"1030 1187 LINE",
"1088 1462 LINE"
);
}
);
width = 973;
}
);
unicode = 0054;
},
{
glyphname = U;
lastChange = "2013-03-13 10:29:38 +0200";
layers = (
{
layerId = UUID0;
name = "Bold Italic";
paths = (
{
closed = 1;
nodes = (
"914 1462 LINE",
"710 501 LINE SMOOTH",
"677 345 OFFCURVE",
"610 257 OFFCURVE",
"526 257 CURVE SMOOTH",
"434 257 OFFCURVE",
"407 341 OFFCURVE",
"442 507 CURVE SMOOTH",
"645 1462 LINE",
"297 1462 LINE",
"98 526 LINE SMOOTH",
"22 166 OFFCURVE",
"148 -19 OFFCURVE",
"459 -19 CURVE SMOOTH",
"774 -19 OFFCURVE",
"987 171 OFFCURVE",
"1062 522 CURVE SMOOTH",
"1261 1462 LINE"
);
}
);
width = 1243;
}
);
unicode = 0055;
},
{
glyphname = Uacute;
lastChange = "2013-03-13 10:29:38 +0200";
layers = (
{
layerId = UUID0;
name = "Bold Italic";
paths = (
{
closed = 1;
nodes = (
"802 1462 LINE",
"598 501 LINE SMOOTH",
"565 345 OFFCURVE",
"498 257 OFFCURVE",
"414 257 CURVE SMOOTH",
"322 257 OFFCURVE",
"295 341 OFFCURVE",
"330 507 CURVE SMOOTH",
"533 1462 LINE",
"185 1462 LINE",
"-14 526 LINE SMOOTH",
"-90 166 OFFCURVE",
"36 -19 OFFCURVE",
"347 -19 CURVE SMOOTH",
"662 -19 OFFCURVE",
"875 171 OFFCURVE",
"950 522 CURVE SMOOTH",
"1149 1462 LINE"
);
},
{
closed = 1;
nodes = (
"783 1904 LINE",
"763 1882 OFFCURVE",
"737 1857 OFFCURVE",
"706 1828 CURVE SMOOTH",
"676 1800 OFFCURVE",
"606 1738 OFFCURVE",
"495 1641 CURVE",
"490 1616 LINE",
"718 1616 LINE",
"767 1642 OFFCURVE",
"838 1684 OFFCURVE",
"932 1742 CURVE SMOOTH",
"1026 1801 OFFCURVE",
"1101 1849 OFFCURVE",
"1156 1886 CURVE",
"1159 1904 LINE"
);
}
);
width = 1131;
}
);
unicode = 00DA;
},
{
glyphname = Ucircumflex;
lastChange = "2013-03-13 10:29:38 +0200";
layers = (
{
layerId = UUID0;
name = "Bold Italic";
paths = (
{
closed = 1;
nodes = (
"802 1462 LINE",
"598 501 LINE SMOOTH",
"565 345 OFFCURVE",
"498 257 OFFCURVE",
"414 257 CURVE SMOOTH",
"322 257 OFFCURVE",
"295 341 OFFCURVE",
"330 507 CURVE SMOOTH",
"533 1462 LINE",
"185 1462 LINE",
"-14 526 LINE SMOOTH",
"-90 166 OFFCURVE",
"36 -19 OFFCURVE",
"347 -19 CURVE SMOOTH",
"662 -19 OFFCURVE",
"875 171 OFFCURVE",
"950 522 CURVE SMOOTH",
"1149 1462 LINE"
);
},
{
closed = 1;
nodes = (
"587 1905 LINE",
"558 1871 OFFCURVE",
"516 1828 OFFCURVE",
"460 1776 CURVE SMOOTH",
"405 1725 OFFCURVE",
"354 1680 OFFCURVE",
"305 1642 CURVE",
"299 1617 LINE",
"526 1617 LINE",
"573 1642 OFFCURVE",
"639 1686 OFFCURVE",
"725 1749 CURVE",
"782 1689 OFFCURVE",
"831 1645 OFFCURVE",
"874 1617 CURVE",
"1098 1617 LINE",
"1104 1642 LINE",
"1029 1737 OFFCURVE",
"971 1825 OFFCURVE",
"933 1905 CURVE"
);
}
);
width = 1131;
}
);
unicode = 00DB;
},
{
glyphname = Udieresis;
lastChange = "2013-03-13 10:29:38 +0200";
layers = (
{
layerId = UUID0;
name = "Bold Italic";
paths = (
{
closed = 1;
nodes = (
"804 1462 LINE",
"599 501 LINE SMOOTH",
"566 345 OFFCURVE",
"500 257 OFFCURVE",
"416 257 CURVE SMOOTH",
"324 257 OFFCURVE",
"296 341 OFFCURVE",
"332 507 CURVE SMOOTH",
"535 1462 LINE",
"187 1462 LINE",
"-12 526 LINE SMOOTH",
"-89 166 OFFCURVE",
"37 -19 OFFCURVE",
"348 -19 CURVE SMOOTH",
"663 -19 OFFCURVE",
"876 171 OFFCURVE",
"951 522 CURVE SMOOTH",
"1151 1462 LINE"
);
},
{
closed = 1;
nodes = (
"466 1892 OFFCURVE",
"399 1840 OFFCURVE",
"380 1751 CURVE SMOOTH",
"362 1664 OFFCURVE",
"407 1613 OFFCURVE",
"503 1613 CURVE SMOOTH",
"597 1613 OFFCURVE",
"666 1668 OFFCURVE",
"684 1751 CURVE SMOOTH",
"702 1836 OFFCURVE",
"656 1892 OFFCURVE",
"562 1892 CURVE SMOOTH"
);
},
{
closed = 1;
nodes = (
"889 1892 OFFCURVE",
"822 1840 OFFCURVE",
"803 1751 CURVE SMOOTH",
"785 1664 OFFCURVE",
"830 1613 OFFCURVE",
"926 1613 CURVE SMOOTH",
"1020 1613 OFFCURVE",
"1089 1668 OFFCURVE",
"1107 1751 CURVE SMOOTH",
"1125 1836 OFFCURVE",
"1079 1892 OFFCURVE",
"985 1892 CURVE SMOOTH"
);
}
);
width = 1131;
}
);
unicode = 00DC;
},
{
glyphname = Ugrave;
lastChange = "2013-03-13 10:29:38 +0200";
layers = (
{
layerId = UUID0;
name = "Bold Italic";
paths = (
{
closed = 1;
nodes = (
"802 1462 LINE",
"598 501 LINE SMOOTH",
"565 345 OFFCURVE",
"498 257 OFFCURVE",
"414 257 CURVE SMOOTH",
"322 257 OFFCURVE",
"295 341 OFFCURVE",
"330 507 CURVE SMOOTH",
"533 1462 LINE",
"185 1462 LINE",
"-14 526 LINE SMOOTH",
"-90 166 OFFCURVE",
"36 -19 OFFCURVE",
"347 -19 CURVE SMOOTH",
"662 -19 OFFCURVE",
"875 171 OFFCURVE",
"950 522 CURVE SMOOTH",
"1149 1462 LINE"
);
},
{
closed = 1;
nodes = (
"361 1905 LINE",
"358 1887 LINE",
"404 1844 OFFCURVE",
"459 1794 OFFCURVE",
"526 1738 CURVE SMOOTH",
"593 1683 OFFCURVE",
"645 1642 OFFCURVE",
"680 1617 CURVE",
"908 1617 LINE",
"914 1642 LINE",
"875 1700 LINE SMOOTH",
"806 1796 OFFCURVE",
"762 1864 OFFCURVE",
"739 1905 CURVE"
);
}
);
width = 1131;
}
);
unicode = 00D9;
},
{
glyphname = V;
lastChange = "2013-03-13 10:29:38 +0200";
layers = (
{
layerId = UUID0;
name = "Bold Italic";
paths = (
{
closed = 1;
nodes = (
"891 1462 LINE",
"516 579 LINE",
"498 538 LINE",
"499 555 OFFCURVE",
"499 560 OFFCURVE",
"499 579 CURVE SMOOTH",
"496 1462 LINE",
"145 1462 LINE",
"177 0 LINE",
"588 0 LINE",
"1242 1462 LINE"
);
}
);
width = 1077;
}
);
unicode = 0056;
},
{
glyphname = W;
lastChange = "2013-03-13 10:29:38 +0200";
layers = (
{
layerId = UUID0;
name = "Bold Italic";
paths = (
{
closed = 1;
nodes = (
"1462 1462 LINE",
"1162 643 LINE",
"1147 603 LINE",
"1147 638 LINE",
"1168 1462 LINE",
"816 1462 LINE",
"487 638 LINE",
"475 607 LINE",
"475 607 OFFCURVE",
"475 626 OFFCURVE",
"476 643 CURVE",
"520 1462 LINE",
"176 1462 LINE",
"131 0 LINE",
"538 0 LINE",
"837 757 LINE",
"847 786 LINE",
"847 760 LINE",
"847 761 LINE",
"828 0 LINE",
"1235 0 LINE",
"1809 1462 LINE"
);
}
);
width = 1675;
}
);
unicode = 0057;
},
{
glyphname = X;
lastChange = "2013-03-13 10:29:38 +0200";
layers = (
{
layerId = UUID0;
name = "Bold Italic";
paths = (
{
closed = 1;
nodes = (
"805 1462 LINE",
"738 1341 OFFCURVE",
"666 1215 OFFCURVE",
"596 1090 CURVE",
"525 1462 LINE",
"173 1462 LINE",
"334 759 LINE",
"-161 0 LINE",
"201 0 LINE",
"443 417 LINE",
"523 0 LINE",
"884 0 LINE",
"709 748 LINE",
"1169 1462 LINE"
);
}
);
width = 1035;
}
);
unicode = 0058;
},
{
glyphname = Y;
lastChange = "2013-03-13 10:29:38 +0200";
layers = (
{
layerId = UUID0;
name = "Bold Italic";
paths = (
{
closed = 1;
nodes = (
"816 1462 LINE",
"739 1321 OFFCURVE",
"648 1154 OFFCURVE",
"568 1009 CURVE",
"511 1462 LINE",
"145 1462 LINE",
"302 580 LINE",
"179 0 LINE",
"525 0 LINE",
"650 590 LINE",
"1180 1462 LINE"
);
}
);
width = 1015;
}
);
unicode = 0059;
},
{
glyphname = Yacute;
lastChange = "2013-03-13 10:29:38 +0200";
layers = (
{
layerId = UUID0;
name = "Bold Italic";
paths = (
{
closed = 1;
nodes = (
"725 1462 LINE",
"477 1009 LINE",
"420 1462 LINE",
"54 1462 LINE",
"211 580 LINE",
"88 0 LINE",
"434 0 LINE",
"559 590 LINE",
"1089 1462 LINE"
);
},
{
closed = 1;
nodes = (
"683 1904 LINE",
"663 1882 OFFCURVE",
"637 1857 OFFCURVE",
"606 1828 CURVE SMOOTH",
"576 1800 OFFCURVE",
"506 1738 OFFCURVE",
"395 1641 CURVE",
"390 1616 LINE",
"618 1616 LINE",
"667 1642 OFFCURVE",
"738 1684 OFFCURVE",
"832 1742 CURVE SMOOTH",
"926 1801 OFFCURVE",
"1001 1849 OFFCURVE",
"1056 1886 CURVE",
"1059 1904 LINE"
);
}
);
width = 941;
}
);
unicode = 00DD;
},
{
glyphname = Ydieresis;
lastChange = "2013-03-13 10:29:38 +0200";
layers = (
{
layerId = UUID0;
name = "Bold Italic";
paths = (
{
closed = 1;
nodes = (
"727 1462 LINE",
"650 1321 OFFCURVE",
"558 1154 OFFCURVE",
"478 1009 CURVE",
"422 1462 LINE",
"56 1462 LINE",
"212 580 LINE",
"89 0 LINE",
"435 0 LINE",
"560 590 LINE",
"1091 1462 LINE"
);
},
{
closed = 1;
nodes = (
"371 1892 OFFCURVE",
"304 1840 OFFCURVE",
"285 1751 CURVE SMOOTH",
"267 1664 OFFCURVE",
"312 1613 OFFCURVE",
"408 1613 CURVE SMOOTH",
"502 1613 OFFCURVE",
"571 1668 OFFCURVE",
"589 1751 CURVE SMOOTH",
"607 1836 OFFCURVE",
"561 1892 OFFCURVE",
"467 1892 CURVE SMOOTH"
);
},
{
closed = 1;
nodes = (
"794 1892 OFFCURVE",
"727 1840 OFFCURVE",
"708 1751 CURVE SMOOTH",
"690 1664 OFFCURVE",
"735 1613 OFFCURVE",
"831 1613 CURVE SMOOTH",
"925 1613 OFFCURVE",
"994 1668 OFFCURVE",
"1012 1751 CURVE SMOOTH",
"1030 1836 OFFCURVE",
"984 1892 OFFCURVE",
"890 1892 CURVE SMOOTH"
);
}
);
width = 941;
}
);
unicode = 0178;
},
{
glyphname = Z;
lastChange = "2013-03-13 10:29:38 +0200";
layers = (
{
layerId = UUID0;
name = "Bold Italic";
paths = (
{
closed = 1;
nodes = (
"220 1462 LINE",
"162 1189 LINE",
"592 1189 LINE",
"-61 206 LINE",
"-104 0 LINE",
"750 0 LINE",
"808 274 LINE",
"350 274 LINE",
"1002 1256 LINE",
"1045 1462 LINE"
);
}
);
width = 946;
}
);
unicode = 005A;
},
{
glyphname = Zcaron;
lastChange = "2013-03-13 10:29:38 +0200";
layers = (
{
layerId = UUID0;
name = "Bold Italic";
paths = (
{
closed = 1;
nodes = (
"117 1462 LINE",
"59 1189 LINE",
"489 1189 LINE",
"-164 206 LINE",
"-208 0 LINE",
"646 0 LINE",
"705 274 LINE",
"247 274 LINE",
"898 1256 LINE",
"942 1462 LINE"
);
},
{
closed = 1;
nodes = (
"802 1907 LINE",
"747 1879 OFFCURVE",
"678 1835 OFFCURVE",
"597 1775 CURVE",
"537 1838 OFFCURVE",
"489 1882 OFFCURVE",
"454 1907 CURVE",
"227 1907 LINE",
"221 1882 LINE",
"257 1839 OFFCURVE",
"290 1793 OFFCURVE",
"322 1744 CURVE SMOOTH",
"354 1695 OFFCURVE",
"377 1654 OFFCURVE",
"392 1619 CURVE",
"738 1619 LINE",
"773 1657 OFFCURVE",
"816 1701 OFFCURVE",
"869 1750 CURVE SMOOTH",
"923 1799 OFFCURVE",
"973 1843 OFFCURVE",
"1020 1882 CURVE",
"1026 1907 LINE"
);
}
);
width = 857;
}
);
unicode = 017D;
},
{
glyphname = a;
lastChange = "2013-03-13 10:29:38 +0200";
layers = (
{
layerId = UUID0;
name = "Bold Italic";
paths = (
{
closed = 1;
nodes = (
"514 1136 OFFCURVE",
"374 1097 OFFCURVE",
"233 1018 CURVE",
"298 793 LINE",
"422 858 OFFCURVE",
"508 891 OFFCURVE",
"560 891 CURVE SMOOTH",
"619 891 OFFCURVE",
"639 848 OFFCURVE",
"620 762 CURVE SMOOTH",
"608 704 LINE",
"505 700 LINE SMOOTH",
"230 688 OFFCURVE",
"68 576 OFFCURVE",
"17 337 CURVE SMOOTH",
"-22 154 OFFCURVE",
"26 -19 OFFCURVE",
"238 -19 CURVE SMOOTH",
"341 -19 OFFCURVE",
"430 11 OFFCURVE",
"520 90 CURVE",
"533 0 LINE",
"799 0 LINE",
"957 741 LINE SMOOTH",
"1010 993 OFFCURVE",
"905 1136 OFFCURVE",
"650 1136 CURVE SMOOTH"
);
},
{
closed = 1;
nodes = (
"550 433 LINE SMOOTH",
"523 306 OFFCURVE",
"462 223 OFFCURVE",
"394 223 CURVE SMOOTH",
"360 223 OFFCURVE",
"350 261 OFFCURVE",
"365 335 CURVE SMOOTH",
"387 438 OFFCURVE",
"445 491 OFFCURVE",
"530 498 CURVE",
"542 498 OFFCURVE",
"552 498 OFFCURVE",
"564 499 CURVE"
);
}
);
width = 1039;
}
);
unicode = 0061;
},
{
glyphname = aacute;
lastChange = "2013-03-13 10:29:38 +0200";
layers = (
{
layerId = UUID0;
name = "Bold Italic";
paths = (
{
closed = 1;
nodes = (
"413 1136 OFFCURVE",
"274 1097 OFFCURVE",
"132 1018 CURVE",
"197 793 LINE",
"321 858 OFFCURVE",
"407 891 OFFCURVE",
"459 891 CURVE SMOOTH",
"518 891 OFFCURVE",
"538 848 OFFCURVE",
"520 762 CURVE SMOOTH",
"507 704 LINE",
"404 700 LINE SMOOTH",
"129 688 OFFCURVE",
"-33 576 OFFCURVE",
"-84 337 CURVE SMOOTH",
"-123 154 OFFCURVE",
"-74 -19 OFFCURVE",
"138 -19 CURVE SMOOTH",
"241 -19 OFFCURVE",
"329 11 OFFCURVE",
"420 90 CURVE",
"433 0 LINE",
"699 0 LINE",
"856 741 LINE SMOOTH",
"910 993 OFFCURVE",
"804 1136 OFFCURVE",
"549 1136 CURVE SMOOTH"
);
},
{
closed = 1;
nodes = (
"450 433 LINE SMOOTH",
"423 306 OFFCURVE",
"361 223 OFFCURVE",
"293 223 CURVE SMOOTH",
"259 223 OFFCURVE",
"249 261 OFFCURVE",
"265 335 CURVE SMOOTH",
"287 438 OFFCURVE",
"344 491 OFFCURVE",
"429 498 CURVE",
"441 498 OFFCURVE",
"451 498 OFFCURVE",
"464 499 CURVE"
);
},
{
closed = 1;
nodes = (
"665 1566 LINE",
"645 1544 OFFCURVE",
"619 1519 OFFCURVE",
"588 1490 CURVE SMOOTH",
"558 1462 OFFCURVE",
"488 1400 OFFCURVE",
"378 1303 CURVE",
"372 1278 LINE",
"600 1278 LINE",
"649 1304 OFFCURVE",
"720 1346 OFFCURVE",
"814 1404 CURVE SMOOTH",
"909 1463 OFFCURVE",
"983 1511 OFFCURVE",
"1038 1548 CURVE",
"1041 1566 LINE"
);
}
);
width = 936;
}
);
unicode = 00E1;
},
{
glyphname = acircumflex;
lastChange = "2013-03-13 10:29:38 +0200";
layers = (
{
layerId = UUID0;
name = "Bold Italic";
paths = (
{
closed = 1;
nodes = (
"413 1136 OFFCURVE",
"274 1097 OFFCURVE",
"132 1018 CURVE",
"197 793 LINE",
"321 858 OFFCURVE",
"407 891 OFFCURVE",
"459 891 CURVE SMOOTH",
"518 891 OFFCURVE",
"538 848 OFFCURVE",
"520 762 CURVE SMOOTH",
"507 704 LINE",
"404 700 LINE SMOOTH",
"129 688 OFFCURVE",
"-33 576 OFFCURVE",
"-84 337 CURVE SMOOTH",
"-123 154 OFFCURVE",
"-74 -19 OFFCURVE",
"138 -19 CURVE SMOOTH",
"241 -19 OFFCURVE",
"329 11 OFFCURVE",
"420 90 CURVE",
"433 0 LINE",
"699 0 LINE",
"856 741 LINE SMOOTH",
"910 993 OFFCURVE",
"804 1136 OFFCURVE",
"549 1136 CURVE SMOOTH"
);
},
{
closed = 1;
nodes = (
"450 433 LINE SMOOTH",
"423 306 OFFCURVE",
"361 223 OFFCURVE",
"293 223 CURVE SMOOTH",
"259 223 OFFCURVE",
"249 261 OFFCURVE",
"265 335 CURVE SMOOTH",
"287 438 OFFCURVE",
"344 491 OFFCURVE",
"429 498 CURVE",
"441 498 OFFCURVE",
"451 498 OFFCURVE",
"464 499 CURVE"
);
},
{
closed = 1;
nodes = (
"472 1566 LINE",
"443 1532 OFFCURVE",
"401 1489 OFFCURVE",
"345 1437 CURVE SMOOTH",
"290 1386 OFFCURVE",
"239 1341 OFFCURVE",
"190 1303 CURVE",
"184 1278 LINE",
"411 1278 LINE",
"458 1303 OFFCURVE",
"524 1347 OFFCURVE",
"610 1410 CURVE",
"667 1350 OFFCURVE",
"716 1306 OFFCURVE",
"759 1278 CURVE",
"983 1278 LINE",
"989 1303 LINE",
"914 1398 OFFCURVE",
"856 1486 OFFCURVE",
"818 1566 CURVE"
);
}
);
width = 936;
}
);
unicode = 00E2;
},
{
glyphname = adieresis;
lastChange = "2013-03-13 10:29:38 +0200";
layers = (
{
layerId = UUID0;
name = "Bold Italic";
paths = (
{
closed = 1;
nodes = (
"414 1136 OFFCURVE",
"275 1097 OFFCURVE",
"133 1018 CURVE",
"198 793 LINE",
"322 858 OFFCURVE",
"408 891 OFFCURVE",
"460 891 CURVE SMOOTH",
"519 891 OFFCURVE",
"539 848 OFFCURVE",
"521 762 CURVE SMOOTH",
"509 704 LINE",
"406 700 LINE SMOOTH",
"130 688 OFFCURVE",
"-32 576 OFFCURVE",
"-83 337 CURVE SMOOTH",
"-121 154 OFFCURVE",
"-73 -19 OFFCURVE",
"139 -19 CURVE SMOOTH",
"242 -19 OFFCURVE",
"330 11 OFFCURVE",
"421 90 CURVE",
"434 0 LINE",
"700 0 LINE",
"857 741 LINE SMOOTH",
"911 993 OFFCURVE",
"805 1136 OFFCURVE",
"550 1136 CURVE SMOOTH"
);
},
{
closed = 1;
nodes = (
"451 433 LINE SMOOTH",
"424 306 OFFCURVE",
"362 223 OFFCURVE",
"294 223 CURVE SMOOTH",
"260 223 OFFCURVE",
"250 261 OFFCURVE",
"266 335 CURVE SMOOTH",
"288 438 OFFCURVE",
"345 491 OFFCURVE",
"431 498 CURVE",
"443 498 OFFCURVE",
"453 498 OFFCURVE",
"465 499 CURVE"
);
},
{
closed = 1;
nodes = (
"351 1554 OFFCURVE",
"284 1502 OFFCURVE",
"265 1413 CURVE SMOOTH",
"247 1326 OFFCURVE",
"292 1275 OFFCURVE",
"388 1275 CURVE SMOOTH",
"482 1275 OFFCURVE",
"552 1330 OFFCURVE",
"569 1413 CURVE SMOOTH",
"587 1498 OFFCURVE",
"541 1554 OFFCURVE",
"447 1554 CURVE SMOOTH"
);
},
{
closed = 1;
nodes = (
"774 1554 OFFCURVE",
"707 1502 OFFCURVE",
"688 1413 CURVE SMOOTH",
"670 1326 OFFCURVE",
"715 1275 OFFCURVE",
"811 1275 CURVE SMOOTH",
"905 1275 OFFCURVE",
"975 1330 OFFCURVE",
"992 1413 CURVE SMOOTH",
"1010 1498 OFFCURVE",
"964 1554 OFFCURVE",
"870 1554 CURVE SMOOTH"
);
}
);
width = 936;
}
);
unicode = 00E4;
},
{
glyphname = agrave;
lastChange = "2013-03-13 10:29:38 +0200";
layers = (
{
layerId = UUID0;
name = "Bold Italic";
paths = (
{
closed = 1;
nodes = (
"413 1136 OFFCURVE",
"274 1097 OFFCURVE",
"132 1018 CURVE",
"197 793 LINE",
"321 858 OFFCURVE",
"407 891 OFFCURVE",
"459 891 CURVE SMOOTH",
"518 891 OFFCURVE",
"538 848 OFFCURVE",
"519 762 CURVE SMOOTH",
"507 704 LINE",
"404 700 LINE SMOOTH",
"129 688 OFFCURVE",
"-33 576 OFFCURVE",
"-84 337 CURVE SMOOTH",
"-123 154 OFFCURVE",
"-75 -19 OFFCURVE",
"137 -19 CURVE SMOOTH",
"240 -19 OFFCURVE",
"329 11 OFFCURVE",
"420 90 CURVE",
"432 0 LINE",
"698 0 LINE",
"856 741 LINE SMOOTH",
"910 993 OFFCURVE",
"804 1136 OFFCURVE",
"549 1136 CURVE SMOOTH"
);
},
{
closed = 1;
nodes = (
"450 433 LINE SMOOTH",
"423 306 OFFCURVE",
"361 223 OFFCURVE",
"293 223 CURVE SMOOTH",
"259 223 OFFCURVE",
"249 261 OFFCURVE",
"265 335 CURVE SMOOTH",
"287 438 OFFCURVE",
"344 491 OFFCURVE",
"429 498 CURVE",
"441 498 OFFCURVE",
"451 498 OFFCURVE",
"464 499 CURVE"
);
},
{
closed = 1;
nodes = (
"262 1567 LINE",
"258 1549 LINE",
"304 1506 OFFCURVE",
"359 1456 OFFCURVE",
"426 1400 CURVE SMOOTH",
"493 1345 OFFCURVE",
"545 1304 OFFCURVE",
"580 1279 CURVE",
"808 1279 LINE",
"814 1304 LINE",
"775 1362 LINE SMOOTH",
"706 1458 OFFCURVE",
"662 1526 OFFCURVE",
"640 1567 CURVE"
);
}
);
width = 936;
}
);
unicode = 00E0;
},
{
glyphname = aring;
lastChange = "2013-03-13 10:29:38 +0200";
layers = (
{
layerId = UUID0;
name = "Bold Italic";
paths = (
{
closed = 1;
nodes = (
"398 1136 OFFCURVE",
"259 1097 OFFCURVE",
"117 1018 CURVE",
"182 793 LINE",
"306 858 OFFCURVE",
"392 891 OFFCURVE",
"444 891 CURVE SMOOTH",
"503 891 OFFCURVE",
"523 848 OFFCURVE",
"505 762 CURVE SMOOTH",
"492 704 LINE",
"389 700 LINE SMOOTH",
"114 688 OFFCURVE",
"-48 576 OFFCURVE",
"-99 337 CURVE SMOOTH",
"-138 154 OFFCURVE",
"-89 -19 OFFCURVE",
"123 -19 CURVE SMOOTH",
"226 -19 OFFCURVE",
"314 11 OFFCURVE",
"405 90 CURVE",
"418 0 LINE",
"684 0 LINE",
"841 741 LINE SMOOTH",
"895 993 OFFCURVE",
"789 1136 OFFCURVE",
"534 1136 CURVE SMOOTH"
);
},
{
closed = 1;
nodes = (
"435 433 LINE SMOOTH",
"408 306 OFFCURVE",
"346 223 OFFCURVE",
"278 223 CURVE SMOOTH",
"244 223 OFFCURVE",
"234 261 OFFCURVE",
"250 335 CURVE SMOOTH",
"272 438 OFFCURVE",
"329 491 OFFCURVE",
"415 498 CURVE",
"427 498 OFFCURVE",
"437 498 OFFCURVE",
"449 499 CURVE"
);
},
{
closed = 1;
nodes = (
"677 1556 OFFCURVE",
"704 1527 OFFCURVE",
"695 1482 CURVE SMOOTH",
"686 1439 OFFCURVE",
"646 1408 OFFCURVE",
"605 1408 CURVE SMOOTH",
"557 1408 OFFCURVE",
"539 1439 OFFCURVE",
"548 1482 CURVE SMOOTH",
"557 1527 OFFCURVE",
"596 1556 OFFCURVE",
"636 1556 CURVE SMOOTH"
);
},
{
closed = 1;
nodes = (
"597 1706 OFFCURVE",
"537 1686 OFFCURVE",
"486 1645 CURVE SMOOTH",
"436 1604 OFFCURVE",
"403 1550 OFFCURVE",
"389 1482 CURVE SMOOTH",
"374 1415 OFFCURVE",
"384 1361 OFFCURVE",
"417 1320 CURVE SMOOTH",
"451 1280 OFFCURVE",
"503 1260 OFFCURVE",
"574 1260 CURVE SMOOTH",
"645 1260 OFFCURVE",
"706 1281 OFFCURVE",
"760 1322 CURVE SMOOTH",
"813 1363 OFFCURVE",
"847 1417 OFFCURVE",
"861 1484 CURVE SMOOTH",
"875 1549 OFFCURVE",
"863 1603 OFFCURVE",
"827 1644 CURVE SMOOTH",
"791 1685 OFFCURVE",
"737 1706 OFFCURVE",
"668 1706 CURVE SMOOTH"
);
}
);
width = 936;
}
);
unicode = 00E5;
},
{
glyphname = atilde;
lastChange = "2013-03-13 10:29:38 +0200";
layers = (
{
layerId = UUID0;
name = "Bold Italic";
paths = (
{
closed = 1;
nodes = (
"416 1136 OFFCURVE",
"277 1097 OFFCURVE",
"135 1018 CURVE",
"200 793 LINE",
"324 858 OFFCURVE",
"410 891 OFFCURVE",
"462 891 CURVE SMOOTH",
"521 891 OFFCURVE",
"541 848 OFFCURVE",
"522 762 CURVE SMOOTH",
"510 704 LINE",
"407 700 LINE SMOOTH",
"132 688 OFFCURVE",
"-30 576 OFFCURVE",
"-81 337 CURVE SMOOTH",
"-120 154 OFFCURVE",
"-72 -19 OFFCURVE",
"140 -19 CURVE SMOOTH",
"243 -19 OFFCURVE",
"332 11 OFFCURVE",
"422 90 CURVE",
"435 0 LINE",
"701 0 LINE",
"859 741 LINE SMOOTH",
"912 993 OFFCURVE",
"807 1136 OFFCURVE",
"552 1136 CURVE SMOOTH"
);
},
{
closed = 1;
nodes = (
"452 433 LINE SMOOTH",
"425 306 OFFCURVE",
"364 223 OFFCURVE",
"296 223 CURVE SMOOTH",
"262 223 OFFCURVE",
"252 261 OFFCURVE",
"268 335 CURVE SMOOTH",
"289 438 OFFCURVE",
"347 491 OFFCURVE",
"432 498 CURVE",
"444 498 OFFCURVE",
"454 498 OFFCURVE",
"466 499 CURVE"
);
},
{
closed = 1;
nodes = (
"856 1540 LINE",
"833 1484 OFFCURVE",
"807 1454 OFFCURVE",
"774 1454 CURVE SMOOTH",
"685 1454 OFFCURVE",
"585 1539 OFFCURVE",
"496 1539 CURVE SMOOTH",
"357 1539 OFFCURVE",
"267 1443 OFFCURVE",
"211 1238 CURVE",
"369 1238 LINE",
"393 1295 OFFCURVE",
"420 1324 OFFCURVE",
"451 1324 CURVE SMOOTH",
"539 1324 OFFCURVE",
"629 1239 OFFCURVE",
"736 1239 CURVE SMOOTH",
"864 1239 OFFCURVE",
"962 1344 OFFCURVE",
"1016 1540 CURVE"
);
}
);
width = 936;
}
);
unicode = 00E3;
},
{
glyphname = ae;
lastChange = "2013-03-13 10:29:38 +0200";
layers = (
{
layerId = UUID0;
name = "Bold Italic";
paths = (
{
closed = 1;
nodes = (
"464 1136 OFFCURVE",
"324 1097 OFFCURVE",
"183 1018 CURVE",
"248 793 LINE",
"372 858 OFFCURVE",
"458 891 OFFCURVE",
"510 891 CURVE SMOOTH",
"569 891 OFFCURVE",
"588 847 OFFCURVE",
"570 760 CURVE SMOOTH",
"558 704 LINE",
"455 700 LINE SMOOTH",
"180 688 OFFCURVE",
"18 576 OFFCURVE",
"-33 337 CURVE SMOOTH",
"-83 104 OFFCURVE",
"12 -19 OFFCURVE",
"238 -19 CURVE SMOOTH",
"369 -19 OFFCURVE",
"475 22 OFFCURVE",
"569 114 CURVE",
"627 26 OFFCURVE",
"728 -19 OFFCURVE",
"870 -19 CURVE SMOOTH",
"996 -19 OFFCURVE",
"1115 11 OFFCURVE",
"1226 70 CURVE",
"1280 323 LINE",
"1141 246 OFFCURVE",
"1037 230 OFFCURVE",
"962 230 CURVE SMOOTH",
"861 230 OFFCURVE",
"817 307 OFFCURVE",
"844 470 CURVE",
"1357 470 LINE",
"1391 628 LINE",
"1445 906 OFFCURVE",
"1372 1134 OFFCURVE",
"1079 1134 CURVE SMOOTH",
"989 1134 OFFCURVE",
"907 1112 OFFCURVE",
"834 1066 CURVE",
"783 1112 OFFCURVE",
"705 1136 OFFCURVE",
"600 1136 CURVE SMOOTH"
);
},
{
closed = 1;
nodes = (
"500 433 LINE SMOOTH",
"473 306 OFFCURVE",
"412 223 OFFCURVE",
"344 223 CURVE SMOOTH",
"310 223 OFFCURVE",
"300 261 OFFCURVE",
"315 335 CURVE SMOOTH",
"337 438 OFFCURVE",
"396 498 OFFCURVE",
"480 498 CURVE SMOOTH",
"492 498 OFFCURVE",
"502 498 OFFCURVE",
"514 499 CURVE"
);
},
{
closed = 1;
nodes = (
"1078 895 OFFCURVE",
"1093 825 OFFCURVE",
"1072 699 CURVE",
"899 699 LINE",
"934 826 OFFCURVE",
"980 895 OFFCURVE",
"1029 895 CURVE SMOOTH"
);
}
);
width = 1426;
}
);
unicode = 00E6;
},
{
glyphname = b;
lastChange = "2013-03-13 10:29:38 +0200";
layers = (
{
layerId = UUID0;
name = "Bold Italic";
paths = (
{
closed = 1;
nodes = (
"291 1539 LINE",
"-37 0 LINE",
"229 0 LINE",
"274 79 LINE",
"320 8 OFFCURVE",
"386 -19 OFFCURVE",
"482 -19 CURVE SMOOTH",
"596 -19 OFFCURVE",
"705 40 OFFCURVE",
"785 137 CURVE SMOOTH",
"866 241 OFFCURVE",
"928 382 OFFCURVE",
"965 559 CURVE SMOOTH",
"1003 736 OFFCURVE",
"1002 875 OFFCURVE",
"964 978 CURVE SMOOTH",
"927 1082 OFFCURVE",
"848 1134 OFFCURVE",
"731 1134 CURVE SMOOTH",
"654 1134 OFFCURVE",
"589 1115 OFFCURVE",
"526 1066 CURVE",
"542 1121 LINE SMOOTH",
"546 1137 OFFCURVE",
"550 1154 OFFCURVE",
"553 1168 CURVE SMOOTH",
"632 1539 LINE"
);
},
{
closed = 1;
nodes = (
"653 875 OFFCURVE",
"663 771 OFFCURVE",
"619 563 CURVE SMOOTH",
"574 350 OFFCURVE",
"520 243 OFFCURVE",
"455 243 CURVE SMOOTH",
"427 243 OFFCURVE",
"408 265 OFFCURVE",
"399 307 CURVE SMOOTH",
"389 352 OFFCURVE",
"397 437 OFFCURVE",
"424 561 CURVE SMOOTH",
"429 587 LINE SMOOTH",
"454 701 OFFCURVE",
"481 779 OFFCURVE",
"509 819 CURVE",
"508 818 LINE",
"534 855 OFFCURVE",
"560 875 OFFCURVE",
"587 875 CURVE SMOOTH"
);
}
);
width = 1086;
}
);
unicode = 0062;
},
{
glyphname = c;
lastChange = "2013-03-13 10:29:38 +0200";
layers = (
{
layerId = UUID0;
name = "Bold Italic";
paths = (
{
closed = 1;
nodes = (
"336 1134 OFFCURVE",
"158 943 OFFCURVE",
"75 551 CURVE SMOOTH",
"-5 177 OFFCURVE",
"105 -19 OFFCURVE",
"387 -19 CURVE SMOOTH",
"481 -19 OFFCURVE",
"575 7 OFFCURVE",
"670 59 CURVE",
"732 349 LINE",
"606 278 OFFCURVE",
"518 243 OFFCURVE",
"466 243 CURVE SMOOTH",
"388 243 OFFCURVE",
"378 345 OFFCURVE",
"422 553 CURVE SMOOTH",
"467 766 OFFCURVE",
"523 873 OFFCURVE",
"601 873 CURVE SMOOTH",
"632 873 OFFCURVE",
"682 849 OFFCURVE",
"753 800 CURVE",
"897 1051 LINE",
"823 1105 OFFCURVE",
"720 1134 OFFCURVE",
"630 1134 CURVE SMOOTH"
);
}
);
width = 833;
}
);
unicode = 0063;
},
{
glyphname = ccedilla;
lastChange = "2013-03-13 10:29:38 +0200";
layers = (
{
layerId = UUID0;
name = "Bold Italic";
paths = (
{
closed = 1;
nodes = (
"329 1134 OFFCURVE",
"152 943 OFFCURVE",
"68 551 CURVE SMOOTH",
"-11 177 OFFCURVE",
"99 -19 OFFCURVE",
"381 -19 CURVE SMOOTH",
"475 -19 OFFCURVE",
"569 7 OFFCURVE",
"664 59 CURVE",
"725 349 LINE",
"599 278 OFFCURVE",
"512 243 OFFCURVE",
"460 243 CURVE SMOOTH",
"382 243 OFFCURVE",
"372 345 OFFCURVE",
"416 553 CURVE SMOOTH",
"461 766 OFFCURVE",
"517 873 OFFCURVE",
"595 873 CURVE SMOOTH",
"626 873 OFFCURVE",
"676 849 OFFCURVE",
"746 800 CURVE",
"891 1051 LINE",
"817 1105 OFFCURVE",
"713 1134 OFFCURVE",
"623 1134 CURVE SMOOTH"
);
},
{
closed = 1;
nodes = (
"418 1 OFFCURVE",
"271 1 OFFCURVE",
"270 1 CURVE SMOOTH",
"269 1 OFFCURVE",
"187 -114 OFFCURVE",
"187 -114 CURVE SMOOTH",
"187 -114 OFFCURVE",
"310 -147 OFFCURVE",
"297 -207 CURVE SMOOTH",
"289 -245 OFFCURVE",
"258 -255 OFFCURVE",
"233 -255 CURVE SMOOTH",
"172 -255 OFFCURVE",
"104 -226 OFFCURVE",
"104 -226 CURVE SMOOTH",
"104 -226 OFFCURVE",
"68 -395 OFFCURVE",
"68 -395 CURVE SMOOTH",
"68 -395 OFFCURVE",
"146 -431 OFFCURVE",
"225 -431 CURVE SMOOTH",
"346 -431 OFFCURVE",
"486 -397 OFFCURVE",
"524 -219 CURVE SMOOTH",
"555 -74 OFFCURVE",
"427 -27 OFFCURVE",
"405 -24 CURVE",
"405 -24 OFFCURVE",
"418 1 OFFCURVE",
"418 1 CURVE SMOOTH"
);
}
);
width = 740;
}
);
unicode = 00E7;
},
{
glyphname = d;
lastChange = "2013-03-13 10:29:38 +0200";
layers = (
{
layerId = UUID0;
name = "Bold Italic";
paths = (
{
closed = 1;
nodes = (
"786 1539 LINE",
"705 1160 LINE SMOOTH",
"700 1138 OFFCURVE",
"695 1106 OFFCURVE",
"688 1066 CURVE",
"647 1114 OFFCURVE",
"590 1134 OFFCURVE",
"512 1134 CURVE SMOOTH",
"222 1134 OFFCURVE",
"84 798 OFFCURVE",
"32 555 CURVE SMOOTH",
"-15 331 OFFCURVE",
"-26 -19 OFFCURVE",
"272 -19 CURVE SMOOTH",
"367 -19 OFFCURVE",
"450 14 OFFCURVE",
"522 81 CURVE",
"530 0 LINE",
"798 0 LINE",
"1126 1539 LINE"
);
},
{
closed = 1;
nodes = (
"643 871 OFFCURVE",
"601 681 OFFCURVE",
"574 553 CURVE SMOOTH",
"541 398 OFFCURVE",
"516 240 OFFCURVE",
"410 240 CURVE SMOOTH",
"342 240 OFFCURVE",
"335 343 OFFCURVE",
"380 551 CURVE SMOOTH",
"424 760 OFFCURVE",
"476 871 OFFCURVE",
"542 871 CURVE SMOOTH"
);
}
);
width = 1085;
}
);
unicode = 0064;
},
{
glyphname = eth;
lastChange = "2013-03-13 10:29:38 +0200";
layers = (
{
layerId = UUID0;
name = "Bold Italic";
paths = (
{
closed = 1;
nodes = (
"839 1532 OFFCURVE",
"741 1473 OFFCURVE",
"666 1429 CURVE",
"620 1468 OFFCURVE",
"549 1514 OFFCURVE",
"449 1572 CURVE",
"291 1377 LINE",
"343 1344 OFFCURVE",
"383 1315 OFFCURVE",
"416 1289 CURVE",
"209 1174 LINE",
"293 988 LINE",
"542 1132 LINE",
"575 1081 OFFCURVE",
"598 1027 OFFCURVE",
"612 965 CURVE",
"578 985 OFFCURVE",
"536 996 OFFCURVE",
"488 996 CURVE SMOOTH",
"352 996 OFFCURVE",
"240 950 OFFCURVE",
"150 858 CURVE SMOOTH",
"61 765 OFFCURVE",
"-1 641 OFFCURVE",
"-34 486 CURVE SMOOTH",
"-66 336 OFFCURVE",
"-52 214 OFFCURVE",
"9 118 CURVE SMOOTH",
"67 26 OFFCURVE",
"169 -19 OFFCURVE",
"314 -19 CURVE SMOOTH",
"466 -19 OFFCURVE",
"591 34 OFFCURVE",
"691 140 CURVE",
"690 140 LINE",
"793 249 OFFCURVE",
"862 392 OFFCURVE",
"900 569 CURVE SMOOTH",
"962 862 OFFCURVE",
"935 1096 OFFCURVE",
"804 1282 CURVE",
"989 1386 LINE",
"907 1572 LINE"
);
},
{
closed = 1;
nodes = (
"550 750 OFFCURVE",
"575 667 OFFCURVE",
"546 531 CURVE SMOOTH",
"505 339 OFFCURVE",
"453 241 OFFCURVE",
"374 241 CURVE SMOOTH",
"301 241 OFFCURVE",
"280 329 OFFCURVE",
"313 486 CURVE SMOOTH",
"351 663 OFFCURVE",
"402 750 OFFCURVE",
"484 750 CURVE SMOOTH"
);
}
);
width = 991;
}
);
unicode = 00F0;
},
{
glyphname = e;
lastChange = "2013-03-13 10:29:38 +0200";
layers = (
{
layerId = UUID0;
name = "Bold Italic";
paths = (
{
closed = 1;
nodes = (
"313 1134 OFFCURVE",
"138 847 OFFCURVE",
"74 549 CURVE SMOOTH",
"12 257 OFFCURVE",
"90 -19 OFFCURVE",
"428 -19 CURVE SMOOTH",
"553 -19 OFFCURVE",
"674 11 OFFCURVE",
"785 70 CURVE",
"843 343 LINE",
"700 267 OFFCURVE",
"594 230 OFFCURVE",
"521 230 CURVE SMOOTH",
"420 230 OFFCURVE",
"376 307 OFFCURVE",
"402 470 CURVE",
"916 470 LINE",
"950 628 LINE SMOOTH",
"983 782 OFFCURVE",
"1025 1134 OFFCURVE",
"639 1134 CURVE SMOOTH"
);
},
{
closed = 1;
nodes = (
"635 895 OFFCURVE",
"650 825 OFFCURVE",
"628 699 CURVE",
"455 699 LINE",
"493 840 OFFCURVE",
"539 895 OFFCURVE",
"586 895 CURVE SMOOTH"
);
}
);
width = 1011;
}
);
unicode = 0065;
},
{
glyphname = eacute;
lastChange = "2013-03-13 10:29:38 +0200";
layers = (
{
layerId = UUID0;
name = "Bold Italic";
paths = (
{
closed = 1;
nodes = (
"219 1134 OFFCURVE",
"44 847 OFFCURVE",
"-20 549 CURVE SMOOTH",
"-82 257 OFFCURVE",
"-3 -19 OFFCURVE",
"335 -19 CURVE SMOOTH",
"460 -19 OFFCURVE",
"580 11 OFFCURVE",
"691 70 CURVE",
"749 343 LINE",
"606 267 OFFCURVE",
"500 230 OFFCURVE",
"427 230 CURVE SMOOTH",
"326 230 OFFCURVE",
"282 307 OFFCURVE",
"308 470 CURVE",
"822 470 LINE",
"856 628 LINE SMOOTH",
"889 782 OFFCURVE",
"931 1134 OFFCURVE",
"545 1134 CURVE SMOOTH"
);
},
{
closed = 1;
nodes = (
"541 895 OFFCURVE",
"556 825 OFFCURVE",
"534 699 CURVE",
"361 699 LINE",
"399 840 OFFCURVE",
"445 895 OFFCURVE",
"492 895 CURVE SMOOTH"
);
},
{
closed = 1;
nodes = (
"651 1566 LINE",
"631 1544 OFFCURVE",
"605 1519 OFFCURVE",
"574 1490 CURVE SMOOTH",
"544 1462 OFFCURVE",
"474 1400 OFFCURVE",
"364 1303 CURVE",
"358 1278 LINE",
"586 1278 LINE",
"635 1304 OFFCURVE",
"706 1346 OFFCURVE",
"800 1404 CURVE SMOOTH",
"895 1463 OFFCURVE",
"969 1511 OFFCURVE",
"1024 1548 CURVE",
"1027 1566 LINE"
);
}
);
width = 922;
}
);
unicode = 00E9;
},
{
glyphname = ecircumflex;
lastChange = "2013-03-13 10:29:38 +0200";
layers = (
{
layerId = UUID0;
name = "Bold Italic";
paths = (
{
closed = 1;
nodes = (
"219 1134 OFFCURVE",
"44 847 OFFCURVE",
"-20 549 CURVE SMOOTH",
"-82 257 OFFCURVE",
"-4 -19 OFFCURVE",
"334 -19 CURVE SMOOTH",
"459 -19 OFFCURVE",
"580 11 OFFCURVE",
"691 70 CURVE",
"749 343 LINE",
"606 267 OFFCURVE",
"500 230 OFFCURVE",
"427 230 CURVE SMOOTH",
"326 230 OFFCURVE",
"282 307 OFFCURVE",
"308 470 CURVE",
"822 470 LINE",
"856 628 LINE SMOOTH",
"889 782 OFFCURVE",
"931 1134 OFFCURVE",
"545 1134 CURVE SMOOTH"
);
},
{
closed = 1;
nodes = (
"541 895 OFFCURVE",
"556 825 OFFCURVE",
"534 699 CURVE",
"361 699 LINE",
"399 840 OFFCURVE",
"445 895 OFFCURVE",
"492 895 CURVE SMOOTH"
);
},
{
closed = 1;
nodes = (
"465 1567 LINE",
"435 1533 OFFCURVE",
"393 1490 OFFCURVE",
"337 1438 CURVE SMOOTH",
"282 1387 OFFCURVE",
"231 1342 OFFCURVE",
"182 1304 CURVE",
"176 1279 LINE",
"403 1279 LINE",
"450 1304 OFFCURVE",
"516 1348 OFFCURVE",
"602 1411 CURVE",
"659 1351 OFFCURVE",
"708 1307 OFFCURVE",
"751 1279 CURVE",
"975 1279 LINE",
"981 1304 LINE",
"906 1399 OFFCURVE",
"849 1487 OFFCURVE",
"811 1567 CURVE"
);
}
);
width = 922;
}
);
unicode = 00EA;
},
{
glyphname = edieresis;
lastChange = "2013-03-13 10:29:38 +0200";
layers = (
{
layerId = UUID0;
name = "Bold Italic";
paths = (
{
closed = 1;
nodes = (
"220 1134 OFFCURVE",
"45 847 OFFCURVE",
"-18 549 CURVE SMOOTH",
"-81 257 OFFCURVE",
"-2 -19 OFFCURVE",
"336 -19 CURVE SMOOTH",
"461 -19 OFFCURVE",
"581 11 OFFCURVE",
"693 70 CURVE",
"751 343 LINE",
"608 267 OFFCURVE",
"502 230 OFFCURVE",
"429 230 CURVE SMOOTH",
"328 230 OFFCURVE",
"283 307 OFFCURVE",
"310 470 CURVE",
"824 470 LINE",
"857 628 LINE SMOOTH",
"890 782 OFFCURVE",
"932 1134 OFFCURVE",
"546 1134 CURVE SMOOTH"
);
},
{
closed = 1;
nodes = (
"542 895 OFFCURVE",
"557 825 OFFCURVE",
"535 699 CURVE",
"362 699 LINE",
"400 840 OFFCURVE",
"446 895 OFFCURVE",
"493 895 CURVE SMOOTH"
);
},
{
closed = 1;
nodes = (
"343 1554 OFFCURVE",
"276 1502 OFFCURVE",
"257 1413 CURVE SMOOTH",
"239 1326 OFFCURVE",
"284 1275 OFFCURVE",
"380 1275 CURVE SMOOTH",
"474 1275 OFFCURVE",
"544 1330 OFFCURVE",
"561 1413 CURVE SMOOTH",
"579 1498 OFFCURVE",
"533 1554 OFFCURVE",
"439 1554 CURVE SMOOTH"
);
},
{
closed = 1;
nodes = (
"766 1554 OFFCURVE",
"699 1502 OFFCURVE",
"680 1413 CURVE SMOOTH",
"662 1326 OFFCURVE",
"707 1275 OFFCURVE",
"803 1275 CURVE SMOOTH",
"897 1275 OFFCURVE",
"967 1330 OFFCURVE",
"984 1413 CURVE SMOOTH",
"1002 1498 OFFCURVE",
"956 1554 OFFCURVE",
"862 1554 CURVE SMOOTH"
);
}
);
width = 922;
}
);
unicode = 00EB;
},
{
glyphname = egrave;
lastChange = "2013-03-13 10:29:38 +0200";
layers = (
{
layerId = UUID0;
name = "Bold Italic";
paths = (
{
closed = 1;
nodes = (
"219 1134 OFFCURVE",
"44 847 OFFCURVE",
"-20 549 CURVE SMOOTH",
"-82 257 OFFCURVE",
"-4 -19 OFFCURVE",
"334 -19 CURVE SMOOTH",
"459 -19 OFFCURVE",
"580 11 OFFCURVE",
"691 70 CURVE",
"749 343 LINE",
"606 267 OFFCURVE",
"500 230 OFFCURVE",
"427 230 CURVE SMOOTH",
"326 230 OFFCURVE",
"282 307 OFFCURVE",
"308 470 CURVE",
"822 470 LINE",
"856 628 LINE SMOOTH",
"889 782 OFFCURVE",
"931 1134 OFFCURVE",
"545 1134 CURVE SMOOTH"
);
},
{
closed = 1;
nodes = (
"541 895 OFFCURVE",
"556 825 OFFCURVE",
"534 699 CURVE",
"361 699 LINE",
"399 840 OFFCURVE",
"445 895 OFFCURVE",
"492 895 CURVE SMOOTH"
);
},
{
closed = 1;
nodes = (
"260 1567 LINE",
"256 1549 LINE",
"302 1506 OFFCURVE",
"357 1456 OFFCURVE",
"424 1400 CURVE SMOOTH",
"491 1345 OFFCURVE",
"543 1304 OFFCURVE",
"578 1279 CURVE",
"806 1279 LINE",
"812 1304 LINE",
"773 1362 LINE SMOOTH",
"704 1458 OFFCURVE",
"660 1526 OFFCURVE",
"638 1567 CURVE"
);
}
);
width = 922;
}
);
unicode = 00E8;
},
{
glyphname = f;
lastChange = "2013-03-13 10:29:38 +0200";
layers = (
{
layerId = UUID0;
name = "Bold Italic";
paths = (
{
closed = 1;
nodes = (
"430 1550 OFFCURVE",
"298 1429 OFFCURVE",
"244 1176 CURVE SMOOTH",
"228 1101 LINE",
"88 1024 LINE",
"55 869 LINE",
"179 869 LINE",
"-6 0 LINE",
"335 0 LINE",
"520 869 LINE",
"697 869 LINE",
"749 1114 LINE",
"572 1114 LINE",
"584 1172 LINE SMOOTH",
"602 1254 OFFCURVE",
"623 1292 OFFCURVE",
"652 1292 CURVE SMOOTH",
"675 1292 OFFCURVE",
"714 1278 OFFCURVE",
"769 1248 CURVE",
"905 1492 LINE",
"834 1531 OFFCURVE",
"759 1550 OFFCURVE",
"679 1550 CURVE SMOOTH"
);
}
);
width = 692;
}
);
unicode = 0066;
},
{
glyphname = g;
lastChange = "2013-03-13 10:29:38 +0200";
layers = (
{
layerId = UUID0;
name = "Bold Italic";
paths = (
{
closed = 1;
nodes = (
"385 1134 OFFCURVE",
"212 993 OFFCURVE",
"159 745 CURVE SMOOTH",
"135 631 OFFCURVE",
"148 506 OFFCURVE",
"231 433 CURVE",
"168 388 OFFCURVE",
"106 334 OFFCURVE",
"89 256 CURVE SMOOTH",
"76 192 OFFCURVE",
"102 140 OFFCURVE",
"151 105 CURVE",
"20 52 OFFCURVE",
"-69 -42 OFFCURVE",
"-93 -154 CURVE SMOOTH",
"-137 -359 OFFCURVE",
"-13 -473 OFFCURVE",
"252 -473 CURVE SMOOTH",
"591 -473 OFFCURVE",
"811 -324 OFFCURVE",
"867 -62 CURVE SMOOTH",
"912 150 OFFCURVE",
"816 255 OFFCURVE",
"608 255 CURVE SMOOTH",
"453 255 LINE SMOOTH",
"403 255 OFFCURVE",
"382 270 OFFCURVE",
"389 301 CURVE SMOOTH",
"395 330 OFFCURVE",
"409 346 OFFCURVE",
"426 361 CURVE",
"440 359 OFFCURVE",
"459 359 OFFCURVE",
"481 359 CURVE SMOOTH",
"712 359 OFFCURVE",
"902 496 OFFCURVE",
"955 743 CURVE SMOOTH",
"967 802 OFFCURVE",
"967 855 OFFCURVE",
"956 902 CURVE",
"1085 928 LINE",
"1124 1112 LINE",
"787 1112 LINE",
"747 1128 OFFCURVE",
"695 1134 OFFCURVE",
"642 1134 CURVE SMOOTH"
);
},
{
closed = 1;
nodes = (
"520 -12 OFFCURVE",
"554 -20 OFFCURVE",
"537 -101 CURVE SMOOTH",
"518 -191 OFFCURVE",
"444 -245 OFFCURVE",
"317 -245 CURVE SMOOTH",
"245 -245 OFFCURVE",
"213 -206 OFFCURVE",
"228 -135 CURVE SMOOTH",
"244 -59 OFFCURVE",
"283 -12 OFFCURVE",
"326 -12 CURVE SMOOTH",
"451 -12 LINE SMOOTH"
);
},
{
closed = 1;
nodes = (
"637 920 OFFCURVE",
"645 861 OFFCURVE",
"620 745 CURVE SMOOTH",
"596 631 OFFCURVE",
"564 574 OFFCURVE",
"523 574 CURVE SMOOTH",
"479 574 OFFCURVE",
"470 631 OFFCURVE",
"494 743 CURVE SMOOTH",
"519 860 OFFCURVE",
"552 920 OFFCURVE",
"596 920 CURVE SMOOTH"
);
}
);
width = 984;
}
);
unicode = 0067;
},
{
glyphname = h;
lastChange = "2013-03-13 10:29:38 +0200";
layers = (
{
layerId = UUID0;
name = "Bold Italic";
paths = (
{
closed = 1;
nodes = (
"289 1539 LINE",
"-39 0 LINE",
"302 0 LINE",
"416 536 LINE SMOOTH",
"463 754 OFFCURVE",
"519 875 OFFCURVE",
"605 875 CURVE SMOOTH",
"656 875 OFFCURVE",
"666 802 OFFCURVE",
"636 660 CURVE SMOOTH",
"495 0 LINE",
"838 0 LINE",
"992 721 LINE SMOOTH",
"1049 992 OFFCURVE",
"963 1134 OFFCURVE",
"739 1134 CURVE SMOOTH",
"657 1134 OFFCURVE",
"586 1111 OFFCURVE",
"524 1066 CURVE",
"538 1118 OFFCURVE",
"549 1158 OFFCURVE",
"554 1185 CURVE SMOOTH",
"630 1539 LINE"
);
}
);
width = 1123;
}
);
unicode = 0068;
},
{
glyphname = i;
lastChange = "2013-03-13 10:29:38 +0200";
layers = (
{
layerId = UUID0;
name = "Bold Italic";
paths = (
{
closed = 1;
nodes = (
"202 1114 LINE",
"-35 0 LINE",
"306 0 LINE",
"543 1114 LINE"
);
},
{
closed = 1;
nodes = (
"348 1532 OFFCURVE",
"267 1471 OFFCURVE",
"246 1373 CURVE SMOOTH",
"225 1272 OFFCURVE",
"285 1214 OFFCURVE",
"395 1214 CURVE SMOOTH",
"501 1214 OFFCURVE",
"588 1272 OFFCURVE",
"609 1373 CURVE SMOOTH",
"630 1471 OFFCURVE",
"573 1532 OFFCURVE",
"463 1532 CURVE SMOOTH"
);
}
);
width = 593;
}
);
unicode = 0069;
},
{
glyphname = dotlessi;
lastChange = "2013-03-13 10:29:38 +0200";
layers = (
{
layerId = UUID0;
name = "Bold Italic";
paths = (
{
closed = 1;
nodes = (
"256 1114 LINE",
"20 0 LINE",
"361 0 LINE",
"597 1114 LINE"
);
}
);
width = 613;
}
);
unicode = 0131;
},
{
glyphname = iacute;
lastChange = "2013-03-13 10:29:38 +0200";
layers = (
{
layerId = UUID0;
name = "Bold Italic";
paths = (
{
closed = 1;
nodes = (
"198 1114 LINE",
"-38 0 LINE",
"303 0 LINE",
"539 1114 LINE"
);
},
{
closed = 1;
nodes = (
"414 1566 LINE",
"394 1544 OFFCURVE",
"368 1519 OFFCURVE",
"337 1490 CURVE SMOOTH",
"307 1462 OFFCURVE",
"237 1400 OFFCURVE",
"127 1303 CURVE",
"121 1278 LINE",
"349 1278 LINE",
"398 1304 OFFCURVE",
"469 1346 OFFCURVE",
"563 1404 CURVE SMOOTH",
"658 1463 OFFCURVE",
"732 1511 OFFCURVE",
"787 1548 CURVE",
"790 1566 LINE"
);
}
);
width = 476;
}
);
unicode = 00ED;
},
{
glyphname = icircumflex;
lastChange = "2013-03-13 10:29:38 +0200";
layers = (
{
layerId = UUID0;
name = "Bold Italic";
paths = (
{
closed = 1;
nodes = (
"198 1114 LINE",
"-39 0 LINE",
"302 0 LINE",
"539 1114 LINE"
);
},
{
closed = 1;
nodes = (
"221 1567 LINE",
"191 1533 OFFCURVE",
"149 1490 OFFCURVE",
"94 1438 CURVE SMOOTH",
"38 1387 OFFCURVE",
"-13 1342 OFFCURVE",
"-62 1304 CURVE",
"-68 1279 LINE",
"159 1279 LINE",
"206 1304 OFFCURVE",
"272 1348 OFFCURVE",
"358 1411 CURVE",
"415 1351 OFFCURVE",
"464 1307 OFFCURVE",
"507 1279 CURVE",
"731 1279 LINE",
"737 1304 LINE",
"662 1399 OFFCURVE",
"605 1487 OFFCURVE",
"567 1567 CURVE"
);
}
);
width = 476;
}
);
unicode = 00EE;
},
{
glyphname = idieresis;
lastChange = "2013-03-13 10:29:38 +0200";
layers = (
{
layerId = UUID0;
name = "Bold Italic";
paths = (
{
closed = 1;
nodes = (
"200 1114 LINE",
"-37 0 LINE",
"304 0 LINE",
"541 1114 LINE"
);
},
{
closed = 1;
nodes = (
"100 1554 OFFCURVE",
"33 1502 OFFCURVE",
"14 1413 CURVE SMOOTH",
"-4 1326 OFFCURVE",
"41 1275 OFFCURVE",
"137 1275 CURVE SMOOTH",
"231 1275 OFFCURVE",
"301 1330 OFFCURVE",
"318 1413 CURVE SMOOTH",
"336 1498 OFFCURVE",
"290 1554 OFFCURVE",
"196 1554 CURVE SMOOTH"
);
},
{
closed = 1;
nodes = (
"523 1554 OFFCURVE",
"456 1502 OFFCURVE",
"437 1413 CURVE SMOOTH",
"419 1326 OFFCURVE",
"464 1275 OFFCURVE",
"560 1275 CURVE SMOOTH",
"654 1275 OFFCURVE",
"724 1330 OFFCURVE",
"741 1413 CURVE SMOOTH",
"759 1498 OFFCURVE",
"713 1554 OFFCURVE",
"619 1554 CURVE SMOOTH"
);
}
);
width = 476;
}
);
unicode = 00EF;
},
{
glyphname = igrave;
lastChange = "2013-03-13 10:29:38 +0200";
layers = (
{
layerId = UUID0;
name = "Bold Italic";
paths = (
{
closed = 1;
nodes = (
"198 1114 LINE",
"-39 0 LINE",
"302 0 LINE",
"539 1114 LINE"
);
},
{
closed = 1;
nodes = (
"4 1567 LINE",
"0 1549 LINE",
"46 1506 OFFCURVE",
"101 1456 OFFCURVE",
"168 1400 CURVE SMOOTH",
"235 1345 OFFCURVE",
"287 1304 OFFCURVE",
"322 1279 CURVE",
"550 1279 LINE",
"556 1304 LINE",
"517 1362 LINE SMOOTH",
"448 1458 OFFCURVE",
"404 1526 OFFCURVE",
"382 1567 CURVE"
);
}
);
width = 476;
}
);
unicode = 00EC;
},
{
glyphname = j;
lastChange = "2013-03-13 10:29:38 +0200";
layers = (
{
layerId = UUID0;
name = "Bold Italic";
paths = (
{
closed = 1;
nodes = (
"183 1114 LINE",
"-68 -69 LINE SMOOTH",
"-88 -164 OFFCURVE",
"-114 -212 OFFCURVE",
"-147 -212 CURVE SMOOTH",
"-164 -212 OFFCURVE",
"-202 -199 OFFCURVE",
"-263 -173 CURVE",
"-319 -436 LINE",
"-269 -462 OFFCURVE",
"-213 -473 OFFCURVE",
"-151 -473 CURVE SMOOTH",
"64 -473 OFFCURVE",
"215 -340 OFFCURVE",
"266 -103 CURVE SMOOTH",
"524 1114 LINE"
);
},
{
closed = 1;
nodes = (
"330 1532 OFFCURVE",
"250 1471 OFFCURVE",
"229 1373 CURVE SMOOTH",
"208 1271 OFFCURVE",
"268 1214 OFFCURVE",
"377 1214 CURVE SMOOTH",
"486 1214 OFFCURVE",
"569 1274 OFFCURVE",
"590 1373 CURVE SMOOTH",
"611 1469 OFFCURVE",
"556 1532 OFFCURVE",
"445 1532 CURVE SMOOTH"
);
}
);
width = 524;
}
);
unicode = 006A;
},
{
glyphname = k;
lastChange = "2013-03-13 10:29:38 +0200";
layers = (
{
layerId = UUID0;
name = "Bold Italic";
paths = (
{
closed = 1;
nodes = (
"289 1539 LINE",
"-39 0 LINE",
"301 0 LINE",
"382 381 LINE",
"400 394 OFFCURVE",
"415 407 OFFCURVE",
"430 418 CURVE",
"520 0 LINE",
"873 0 LINE",
"713 653 LINE",
"1095 1114 LINE",
"737 1114 LINE",
"461 765 LINE",
"474 812 LINE",
"629 1539 LINE"
);
}
);
width = 1027;
}
);
unicode = 006B;
},
{
glyphname = l;
lastChange = "2013-03-13 10:29:38 +0200";
layers = (
{
layerId = UUID0;
name = "Bold Italic";
paths = (
{
closed = 1;
nodes = (
"289 1539 LINE",
"-39 0 LINE",
"302 0 LINE",
"630 1539 LINE"
);
}
);
width = 592;
}
);
unicode = 006C;
},
{
glyphname = m;
lastChange = "2013-03-13 10:29:38 +0200";
layers = (
{
layerId = UUID0;
name = "Bold Italic";
paths = (
{
closed = 1;
nodes = (
"1204 1134 OFFCURVE",
"1105 1090 OFFCURVE",
"1028 1003 CURVE",
"991 1090 OFFCURVE",
"911 1134 OFFCURVE",
"786 1134 CURVE SMOOTH",
"694 1134 OFFCURVE",
"599 1103 OFFCURVE",
"524 1035 CURVE",
"523 1114 LINE",
"241 1114 LINE",
"4 0 LINE",
"344 0 LINE",
"458 536 LINE SMOOTH",
"487 670 OFFCURVE",
"521 875 OFFCURVE",
"646 875 CURVE SMOOTH",
"697 875 OFFCURVE",
"707 802 OFFCURVE",
"677 660 CURVE SMOOTH",
"536 0 LINE",
"878 0 LINE",
"994 542 LINE SMOOTH",
"1043 775 OFFCURVE",
"1097 875 OFFCURVE",
"1180 875 CURVE SMOOTH",
"1230 875 OFFCURVE",
"1239 802 OFFCURVE",
"1209 660 CURVE SMOOTH",
"1068 0 LINE",
"1410 0 LINE",
"1564 721 LINE SMOOTH",
"1621 991 OFFCURVE",
"1538 1134 OFFCURVE",
"1320 1134 CURVE SMOOTH"
);
}
);
width = 1652;
}
);
unicode = 006D;
},
{
glyphname = n;
lastChange = "2013-03-13 10:29:38 +0200";
layers = (
{
layerId = UUID0;
name = "Bold Italic";
paths = (
{
closed = 1;
nodes = (
"686 1134 OFFCURVE",
"595 1098 OFFCURVE",
"524 1035 CURVE",
"524 1114 LINE",
"241 1114 LINE",
"4 0 LINE",
"345 0 LINE",
"459 536 LINE",
"499 670 OFFCURVE",
"523 875 OFFCURVE",
"648 875 CURVE SMOOTH",
"702 875 OFFCURVE",
"709 801 OFFCURVE",
"679 660 CURVE SMOOTH",
"538 0 LINE",
"881 0 LINE",
"1035 721 LINE SMOOTH",
"1092 991 OFFCURVE",
"1012 1134 OFFCURVE",
"789 1134 CURVE SMOOTH"
);
}
);
width = 1123;
}
);
unicode = 006E;
},
{
glyphname = ntilde;
lastChange = "2013-03-13 10:29:38 +0200";
layers = (
{
layerId = UUID0;
name = "Bold Italic";
paths = (
{
closed = 1;
nodes = (
"583 1134 OFFCURVE",
"493 1098 OFFCURVE",
"422 1035 CURVE",
"422 1114 LINE",
"139 1114 LINE",
"-98 0 LINE",
"243 0 LINE",
"357 536 LINE",
"397 670 OFFCURVE",
"421 875 OFFCURVE",
"546 875 CURVE SMOOTH",
"600 875 OFFCURVE",
"607 801 OFFCURVE",
"577 660 CURVE SMOOTH",
"436 0 LINE",
"779 0 LINE",
"933 721 LINE SMOOTH",
"990 991 OFFCURVE",
"909 1134 OFFCURVE",
"686 1134 CURVE SMOOTH"
);
},
{
closed = 1;
nodes = (
"876 1540 LINE",
"853 1484 OFFCURVE",
"827 1454 OFFCURVE",
"794 1454 CURVE SMOOTH",
"705 1454 OFFCURVE",
"605 1539 OFFCURVE",
"516 1539 CURVE SMOOTH",
"377 1539 OFFCURVE",
"287 1443 OFFCURVE",
"231 1238 CURVE",
"389 1238 LINE",
"413 1295 OFFCURVE",
"440 1324 OFFCURVE",
"471 1324 CURVE SMOOTH",
"559 1324 OFFCURVE",
"649 1239 OFFCURVE",
"756 1239 CURVE SMOOTH",
"884 1239 OFFCURVE",
"982 1344 OFFCURVE",
"1036 1540 CURVE"
);
}
);
width = 1018;
}
);
unicode = 00F1;
},
{
glyphname = o;
lastChange = "2013-03-13 10:29:38 +0200";
layers = (
{
layerId = UUID0;
name = "Bold Italic";
paths = (
{
closed = 1;
nodes = (
"332 1134 OFFCURVE",
"146 865 OFFCURVE",
"77 559 CURVE SMOOTH",
"-2 207 OFFCURVE",
"139 -19 OFFCURVE",
"410 -19 CURVE SMOOTH",
"559 -19 OFFCURVE",
"683 33 OFFCURVE",
"783 136 CURVE SMOOTH",
"886 241 OFFCURVE",
"956 382 OFFCURVE",
"993 559 CURVE SMOOTH",
"1052 835 OFFCURVE",
"988 1134 OFFCURVE",
"660 1134 CURVE SMOOTH"
);
},
{
closed = 1;
nodes = (
"679 873 OFFCURVE",
"692 769 OFFCURVE",
"647 559 CURVE SMOOTH",
"602 347 OFFCURVE",
"543 241 OFFCURVE",
"468 241 CURVE SMOOTH",
"390 241 OFFCURVE",
"380 349 OFFCURVE",
"424 559 CURVE SMOOTH",
"469 769 OFFCURVE",
"524 873 OFFCURVE",
"602 873 CURVE SMOOTH"
);
}
);
width = 1071;
}
);
unicode = 006F;
},
{
glyphname = oacute;
lastChange = "2013-03-13 10:29:38 +0200";
layers = (
{
layerId = UUID0;
name = "Bold Italic";
paths = (
{
closed = 1;
nodes = (
"237 1134 OFFCURVE",
"51 865 OFFCURVE",
"-18 559 CURVE SMOOTH",
"-96 207 OFFCURVE",
"45 -19 OFFCURVE",
"316 -19 CURVE SMOOTH",
"465 -19 OFFCURVE",
"588 33 OFFCURVE",
"688 136 CURVE SMOOTH",
"791 241 OFFCURVE",
"861 382 OFFCURVE",
"898 559 CURVE SMOOTH",
"957 835 OFFCURVE",
"893 1134 OFFCURVE",
"565 1134 CURVE SMOOTH"
);
},
{
closed = 1;
nodes = (
"584 873 OFFCURVE",
"597 769 OFFCURVE",
"552 559 CURVE SMOOTH",
"507 347 OFFCURVE",
"448 241 OFFCURVE",
"373 241 CURVE SMOOTH",
"295 241 OFFCURVE",
"285 349 OFFCURVE",
"329 559 CURVE SMOOTH",
"374 769 OFFCURVE",
"429 873 OFFCURVE",
"507 873 CURVE SMOOTH"
);
},
{
closed = 1;
nodes = (
"669 1566 LINE",
"649 1544 OFFCURVE",
"623 1519 OFFCURVE",
"592 1490 CURVE SMOOTH",
"562 1462 OFFCURVE",
"492 1400 OFFCURVE",
"382 1303 CURVE",
"376 1278 LINE",
"604 1278 LINE",
"653 1304 OFFCURVE",
"724 1346 OFFCURVE",
"818 1404 CURVE SMOOTH",
"913 1463 OFFCURVE",
"987 1511 OFFCURVE",
"1042 1548 CURVE",
"1045 1566 LINE"
);
}
);
width = 991;
}
);
unicode = 00F3;
},
{
glyphname = ocircumflex;
lastChange = "2013-03-13 10:29:38 +0200";
layers = (
{
layerId = UUID0;
name = "Bold Italic";
paths = (
{
closed = 1;
nodes = (
"237 1134 OFFCURVE",
"51 865 OFFCURVE",
"-18 559 CURVE SMOOTH",
"-97 207 OFFCURVE",
"44 -19 OFFCURVE",
"315 -19 CURVE SMOOTH",
"464 -19 OFFCURVE",
"587 33 OFFCURVE",
"688 136 CURVE SMOOTH",
"791 241 OFFCURVE",
"861 382 OFFCURVE",
"898 559 CURVE SMOOTH",
"957 835 OFFCURVE",
"893 1134 OFFCURVE",
"565 1134 CURVE SMOOTH"
);
},
{
closed = 1;
nodes = (
"584 873 OFFCURVE",
"597 769 OFFCURVE",
"552 559 CURVE SMOOTH",
"507 347 OFFCURVE",
"448 241 OFFCURVE",
"373 241 CURVE SMOOTH",
"295 241 OFFCURVE",
"285 349 OFFCURVE",
"329 559 CURVE SMOOTH",
"374 769 OFFCURVE",
"429 873 OFFCURVE",
"507 873 CURVE SMOOTH"
);
},
{
closed = 1;
nodes = (
"484 1567 LINE",
"454 1533 OFFCURVE",
"412 1490 OFFCURVE",
"356 1438 CURVE SMOOTH",
"301 1387 OFFCURVE",
"250 1342 OFFCURVE",
"201 1304 CURVE",
"195 1279 LINE",
"422 1279 LINE",
"469 1304 OFFCURVE",
"535 1348 OFFCURVE",
"621 1411 CURVE",
"678 1351 OFFCURVE",
"727 1307 OFFCURVE",
"770 1279 CURVE",
"994 1279 LINE",
"1000 1304 LINE",
"925 1399 OFFCURVE",
"868 1487 OFFCURVE",
"830 1567 CURVE"
);
}
);
width = 991;
}
);
unicode = 00F4;
},
{
glyphname = odieresis;
lastChange = "2013-03-13 10:29:38 +0200";
layers = (
{
layerId = UUID0;
name = "Bold Italic";
paths = (
{
closed = 1;
nodes = (
"238 1134 OFFCURVE",
"53 865 OFFCURVE",
"-16 559 CURVE SMOOTH",
"-95 207 OFFCURVE",
"46 -19 OFFCURVE",
"317 -19 CURVE SMOOTH",
"466 -19 OFFCURVE",
"589 33 OFFCURVE",
"690 136 CURVE SMOOTH",
"792 241 OFFCURVE",
"862 382 OFFCURVE",
"900 559 CURVE SMOOTH",
"958 835 OFFCURVE",
"894 1134 OFFCURVE",
"566 1134 CURVE SMOOTH"
);
},
{
closed = 1;
nodes = (
"585 873 OFFCURVE",
"598 769 OFFCURVE",
"554 559 CURVE SMOOTH",
"509 347 OFFCURVE",
"449 241 OFFCURVE",
"374 241 CURVE SMOOTH",
"296 241 OFFCURVE",
"286 349 OFFCURVE",
"331 559 CURVE SMOOTH",
"375 769 OFFCURVE",
"430 873 OFFCURVE",
"508 873 CURVE SMOOTH"
);
},
{
closed = 1;
nodes = (
"362 1554 OFFCURVE",
"295 1502 OFFCURVE",
"276 1413 CURVE SMOOTH",
"258 1326 OFFCURVE",
"303 1275 OFFCURVE",
"399 1275 CURVE SMOOTH",
"493 1275 OFFCURVE",
"563 1330 OFFCURVE",
"580 1413 CURVE SMOOTH",
"598 1498 OFFCURVE",
"552 1554 OFFCURVE",
"458 1554 CURVE SMOOTH"
);
},
{
closed = 1;
nodes = (
"785 1554 OFFCURVE",
"718 1502 OFFCURVE",
"699 1413 CURVE SMOOTH",
"681 1326 OFFCURVE",
"726 1275 OFFCURVE",
"822 1275 CURVE SMOOTH",
"916 1275 OFFCURVE",
"986 1330 OFFCURVE",
"1003 1413 CURVE SMOOTH",
"1021 1498 OFFCURVE",
"975 1554 OFFCURVE",
"881 1554 CURVE SMOOTH"
);
}
);
width = 991;
}
);
unicode = 00F6;
},
{
glyphname = ograve;
lastChange = "2013-03-13 10:29:38 +0200";
layers = (
{
layerId = UUID0;
name = "Bold Italic";
paths = (
{
closed = 1;
nodes = (
"237 1134 OFFCURVE",
"51 865 OFFCURVE",
"-18 559 CURVE SMOOTH",
"-97 207 OFFCURVE",
"44 -19 OFFCURVE",
"315 -19 CURVE SMOOTH",
"464 -19 OFFCURVE",
"587 33 OFFCURVE",
"688 136 CURVE SMOOTH",
"791 241 OFFCURVE",
"861 382 OFFCURVE",
"898 559 CURVE SMOOTH",
"957 835 OFFCURVE",
"893 1134 OFFCURVE",
"565 1134 CURVE SMOOTH"
);
},
{
closed = 1;
nodes = (
"584 873 OFFCURVE",
"597 769 OFFCURVE",
"552 559 CURVE SMOOTH",
"507 347 OFFCURVE",
"448 241 OFFCURVE",
"373 241 CURVE SMOOTH",
"295 241 OFFCURVE",
"285 349 OFFCURVE",
"329 559 CURVE SMOOTH",
"374 769 OFFCURVE",
"429 873 OFFCURVE",
"507 873 CURVE SMOOTH"
);
},
{
closed = 1;
nodes = (
"272 1567 LINE",
"268 1549 LINE",
"314 1506 OFFCURVE",
"369 1456 OFFCURVE",
"436 1400 CURVE SMOOTH",
"503 1345 OFFCURVE",
"555 1304 OFFCURVE",
"590 1279 CURVE",
"818 1279 LINE",
"824 1304 LINE",
"785 1362 LINE SMOOTH",
"716 1458 OFFCURVE",
"672 1526 OFFCURVE",
"650 1567 CURVE"
);
}
);
width = 991;
}
);
unicode = 00F2;
},
{
glyphname = oslash;
lastChange = "2013-03-13 10:29:38 +0200";
layers = (
{
layerId = UUID0;
name = "Bold Italic";
paths = (
{
closed = 1;
nodes = (
"779 1100 LINE",
"734 1121 OFFCURVE",
"679 1134 OFFCURVE",
"613 1134 CURVE SMOOTH",
"285 1134 OFFCURVE",
"99 865 OFFCURVE",
"30 559 CURVE SMOOTH",
"-11 374 OFFCURVE",
"7 225 OFFCURVE",
"74 124 CURVE",
"-27 -16 LINE",
"130 -96 LINE",
"208 11 LINE",
"253 -8 OFFCURVE",
"306 -19 OFFCURVE",
"364 -19 CURVE SMOOTH",
"513 -19 OFFCURVE",
"636 33 OFFCURVE",
"737 136 CURVE SMOOTH",
"839 241 OFFCURVE",
"909 382 OFFCURVE",
"946 559 CURVE SMOOTH",
"979 710 OFFCURVE",
"973 869 OFFCURVE",
"908 981 CURVE",
"1003 1111 LINE",
"846 1191 LINE"
);
},
{
closed = 1;
nodes = (
"554 345 OFFCURVE",
"495 241 OFFCURVE",
"421 241 CURVE SMOOTH",
"406 241 OFFCURVE",
"393 245 OFFCURVE",
"382 253 CURVE",
"599 552 LINE"
);
},
{
closed = 1;
nodes = (
"574 873 OFFCURVE",
"590 866 OFFCURVE",
"601 853 CURVE",
"373 536 LINE",
"377 559 LINE SMOOTH",
"422 769 OFFCURVE",
"477 873 OFFCURVE",
"555 873 CURVE SMOOTH"
);
}
);
width = 991;
}
);
unicode = 00F8;
},
{
glyphname = otilde;
lastChange = "2013-03-13 10:29:38 +0200";
layers = (
{
layerId = UUID0;
name = "Bold Italic";
paths = (
{
closed = 1;
nodes = (
"239 1134 OFFCURVE",
"54 865 OFFCURVE",
"-15 559 CURVE SMOOTH",
"-94 207 OFFCURVE",
"47 -19 OFFCURVE",
"318 -19 CURVE SMOOTH",
"467 -19 OFFCURVE",
"590 33 OFFCURVE",
"691 136 CURVE SMOOTH",
"794 241 OFFCURVE",
"864 382 OFFCURVE",
"901 559 CURVE SMOOTH",
"960 835 OFFCURVE",
"895 1134 OFFCURVE",
"567 1134 CURVE SMOOTH"
);
},
{
closed = 1;
nodes = (
"587 873 OFFCURVE",
"600 769 OFFCURVE",
"555 559 CURVE SMOOTH",
"510 347 OFFCURVE",
"451 241 OFFCURVE",
"376 241 CURVE SMOOTH",
"298 241 OFFCURVE",
"288 349 OFFCURVE",
"332 559 CURVE SMOOTH",
"377 769 OFFCURVE",
"432 873 OFFCURVE",
"510 873 CURVE SMOOTH"
);
},
{
closed = 1;
nodes = (
"864 1540 LINE",
"841 1484 OFFCURVE",
"815 1454 OFFCURVE",
"782 1454 CURVE SMOOTH",
"693 1454 OFFCURVE",
"593 1539 OFFCURVE",
"504 1539 CURVE SMOOTH",
"365 1539 OFFCURVE",
"275 1443 OFFCURVE",
"219 1238 CURVE",
"377 1238 LINE",
"401 1295 OFFCURVE",
"428 1324 OFFCURVE",
"459 1324 CURVE SMOOTH",
"547 1324 OFFCURVE",
"637 1239 OFFCURVE",
"744 1239 CURVE SMOOTH",
"872 1239 OFFCURVE",
"970 1344 OFFCURVE",
"1024 1540 CURVE"
);
}
);
width = 991;
}
);
unicode = 00F5;
},
{
glyphname = oe;
lastChange = "2013-03-13 10:29:38 +0200";
layers = (
{
layerId = UUID0;
name = "Bold Italic";
paths = (
{
closed = 1;
nodes = (
"1052 1134 OFFCURVE",
"956 1100 OFFCURVE",
"870 1029 CURVE",
"811 1096 OFFCURVE",
"725 1134 OFFCURVE",
"616 1134 CURVE SMOOTH",
"467 1134 OFFCURVE",
"342 1082 OFFCURVE",
"242 978 CURVE SMOOTH",
"140 874 OFFCURVE",
"71 734 OFFCURVE",
"33 559 CURVE SMOOTH",
"-44 207 OFFCURVE",
"95 -24 OFFCURVE",
"367 -19 CURVE SMOOTH",
"484 -19 OFFCURVE",
"588 16 OFFCURVE",
"677 89 CURVE",
"738 16 OFFCURVE",
"831 -19 OFFCURVE",
"955 -19 CURVE SMOOTH",
"1079 -19 OFFCURVE",
"1198 11 OFFCURVE",
"1312 70 CURVE",
"1370 343 LINE",
"1228 267 OFFCURVE",
"1120 230 OFFCURVE",
"1046 230 CURVE SMOOTH",
"948 230 OFFCURVE",
"903 307 OFFCURVE",
"929 470 CURVE",
"1440 470 LINE",
"1474 628 LINE SMOOTH",
"1507 781 OFFCURVE",
"1496 903 OFFCURVE",
"1444 997 CURVE SMOOTH",
"1392 1088 OFFCURVE",
"1300 1134 OFFCURVE",
"1166 1134 CURVE SMOOTH"
);
},
{
closed = 1;
nodes = (
"635 873 OFFCURVE",
"648 769 OFFCURVE",
"603 559 CURVE SMOOTH",
"558 347 OFFCURVE",
"499 241 OFFCURVE",
"424 241 CURVE SMOOTH",
"346 241 OFFCURVE",
"336 349 OFFCURVE",
"380 559 CURVE SMOOTH",
"425 769 OFFCURVE",
"480 873 OFFCURVE",
"558 873 CURVE SMOOTH"
);
},
{
closed = 1;
nodes = (
"1162 895 OFFCURVE",
"1177 825 OFFCURVE",
"1155 699 CURVE",
"982 699 LINE",
"1020 840 OFFCURVE",
"1066 895 OFFCURVE",
"1113 895 CURVE SMOOTH"
);
}
);
width = 1512;
}
);
unicode = 0153;
},
{
glyphname = p;
lastChange = "2013-03-13 10:29:38 +0200";
layers = (
{
layerId = UUID0;
name = "Bold Italic";
paths = (
{
closed = 1;
nodes = (
"730 1134 OFFCURVE",
"647 1100 OFFCURVE",
"576 1031 CURVE",
"568 1114 LINE",
"292 1114 LINE",
"-46 -473 LINE",
"297 -473 LINE",
"395 -14 LINE SMOOTH",
"397 -5 OFFCURVE",
"400 13 OFFCURVE",
"402 38 CURVE",
"444 -3 OFFCURVE",
"500 -19 OFFCURVE",
"572 -19 CURVE SMOOTH",
"862 -19 OFFCURVE",
"1005 315 OFFCURVE",
"1057 559 CURVE SMOOTH",
"1103 778 OFFCURVE",
"1120 1134 OFFCURVE",
"825 1134 CURVE SMOOTH"
);
},
{
closed = 1;
nodes = (
"747 875 OFFCURVE",
"755 772 OFFCURVE",
"710 563 CURVE SMOOTH",
"665 350 OFFCURVE",
"611 243 OFFCURVE",
"550 243 CURVE SMOOTH",
"476 243 OFFCURVE",
"468 340 OFFCURVE",
"522 595 CURVE SMOOTH",
"565 795 OFFCURVE",
"614 875 OFFCURVE",
"683 875 CURVE SMOOTH"
);
}
);
width = 1086;
}
);
unicode = 0070;
},
{
glyphname = thorn;
lastChange = "2013-03-13 10:29:38 +0200";
layers = (
{
layerId = UUID0;
name = "Bold Italic";
paths = (
{
closed = 1;
nodes = (
"280 1539 LINE",
"-148 -473 LINE",
"195 -473 LINE",
"293 -14 LINE SMOOTH",
"295 -5 OFFCURVE",
"297 13 OFFCURVE",
"300 38 CURVE",
"342 -2 OFFCURVE",
"398 -19 OFFCURVE",
"468 -19 CURVE SMOOTH",
"588 -19 OFFCURVE",
"690 34 OFFCURVE",
"773 140 CURVE SMOOTH",
"857 245 OFFCURVE",
"918 385 OFFCURVE",
"955 559 CURVE SMOOTH",
"992 734 OFFCURVE",
"990 876 OFFCURVE",
"955 978 CURVE SMOOTH",
"917 1078 OFFCURVE",
"837 1134 OFFCURVE",
"723 1134 CURVE SMOOTH",
"645 1134 OFFCURVE",
"579 1115 OFFCURVE",
"516 1067 CURVE",
"531 1121 LINE SMOOTH",
"535 1137 OFFCURVE",
"539 1154 OFFCURVE",
"542 1168 CURVE SMOOTH",
"621 1539 LINE"
);
},
{
closed = 1;
nodes = (
"645 875 OFFCURVE",
"653 772 OFFCURVE",
"608 563 CURVE SMOOTH",
"563 350 OFFCURVE",
"509 243 OFFCURVE",
"448 243 CURVE SMOOTH",
"374 243 OFFCURVE",
"366 340 OFFCURVE",
"413 561 CURVE SMOOTH",
"420 595 LINE SMOOTH",
"466 795 OFFCURVE",
"512 875 OFFCURVE",
"581 875 CURVE SMOOTH"
);
}
);
width = 995;
}
);
unicode = 00FE;
},
{
glyphname = q;
lastChange = "2013-03-13 10:29:38 +0200";
layers = (
{
layerId = UUID0;
name = "Bold Italic";
paths = (
{
closed = 1;
nodes = (
"312 1134 OFFCURVE",
"175 797 OFFCURVE",
"124 555 CURVE SMOOTH",
"76 330 OFFCURVE",
"64 -19 OFFCURVE",
"364 -19 CURVE SMOOTH",
"437 -19 OFFCURVE",
"502 0 OFFCURVE",
"559 41 CURVE",
"554 22 OFFCURVE",
"552 9 OFFCURVE",
"550 -1 CURVE SMOOTH",
"449 -473 LINE",
"789 -473 LINE",
"1127 1114 LINE",
"830 1114 LINE",
"799 1040 LINE",
"758 1105 OFFCURVE",
"695 1134 OFFCURVE",
"602 1134 CURVE SMOOTH"
);
},
{
closed = 1;
nodes = (
"704 871 OFFCURVE",
"712 775 OFFCURVE",
"665 553 CURVE SMOOTH",
"634 407 OFFCURVE",
"600 238 OFFCURVE",
"496 238 CURVE SMOOTH",
"432 238 OFFCURVE",
"426 339 OFFCURVE",
"471 551 CURVE SMOOTH",
"516 764 OFFCURVE",
"569 871 OFFCURVE",
"631 871 CURVE SMOOTH"
);
}
);
width = 1085;
}
);
unicode = 0071;
},
{
glyphname = r;
lastChange = "2013-03-13 10:29:38 +0200";
layers = (
{
layerId = UUID0;
name = "Bold Italic";
paths = (
{
closed = 1;
nodes = (
"664 1134 OFFCURVE",
"595 1105 OFFCURVE",
"529 1033 CURVE",
"532 1114 LINE",
"241 1114 LINE",
"4 0 LINE",
"345 0 LINE",
"467 572 LINE SMOOTH",
"504 747 OFFCURVE",
"577 839 OFFCURVE",
"675 839 CURVE SMOOTH",
"696 839 OFFCURVE",
"727 830 OFFCURVE",
"777 811 CURVE",
"876 1109 LINE",
"829 1126 OFFCURVE",
"785 1134 OFFCURVE",
"745 1134 CURVE SMOOTH"
);
}
);
width = 774;
}
);
unicode = 0072;
},
{
glyphname = s;
lastChange = "2013-03-13 10:29:38 +0200";
layers = (
{
layerId = UUID0;
name = "Bold Italic";
paths = (
{
closed = 1;
nodes = (
"417 1134 OFFCURVE",
"212 1042 OFFCURVE",
"164 817 CURVE SMOOTH",
"134 673 OFFCURVE",
"187 564 OFFCURVE",
"327 466 CURVE SMOOTH",
"378 429 OFFCURVE",
"443 389 OFFCURVE",
"426 309 CURVE SMOOTH",
"415 257 OFFCURVE",
"380 223 OFFCURVE",
"328 223 CURVE SMOOTH",
"223 223 OFFCURVE",
"141 289 OFFCURVE",
"65 349 CURVE",
"3 59 LINE",
"78 7 OFFCURVE",
"174 -19 OFFCURVE",
"291 -19 CURVE SMOOTH",
"557 -19 OFFCURVE",
"725 113 OFFCURVE",
"772 335 CURVE SMOOTH",
"808 504 OFFCURVE",
"722 591 OFFCURVE",
"599 678 CURVE SMOOTH",
"553 710 OFFCURVE",
"490 748 OFFCURVE",
"506 821 CURVE SMOOTH",
"514 859 OFFCURVE",
"539 889 OFFCURVE",
"576 889 CURVE SMOOTH",
"617 889 OFFCURVE",
"681 864 OFFCURVE",
"764 812 CURVE",
"918 1043 LINE",
"829 1104 OFFCURVE",
"732 1134 OFFCURVE",
"625 1134 CURVE SMOOTH"
);
}
);
width = 891;
}
);
unicode = 0073;
},
{
glyphname = scaron;
lastChange = "2013-03-13 10:29:38 +0200";
layers = (
{
layerId = UUID0;
name = "Bold Italic";
paths = (
{
closed = 1;
nodes = (
"275 1134 OFFCURVE",
"71 1042 OFFCURVE",
"23 817 CURVE SMOOTH",
"-8 673 OFFCURVE",
"46 564 OFFCURVE",
"185 466 CURVE SMOOTH",
"236 429 OFFCURVE",
"302 389 OFFCURVE",
"285 309 CURVE SMOOTH",
"274 257 OFFCURVE",
"239 223 OFFCURVE",
"187 223 CURVE SMOOTH",
"82 223 OFFCURVE",
"0 289 OFFCURVE",
"-77 349 CURVE",
"-138 59 LINE",
"-63 7 OFFCURVE",
"33 -19 OFFCURVE",
"150 -19 CURVE SMOOTH",
"416 -19 OFFCURVE",
"583 113 OFFCURVE",
"630 335 CURVE SMOOTH",
"666 504 OFFCURVE",
"581 591 OFFCURVE",
"457 678 CURVE SMOOTH",
"412 710 OFFCURVE",
"349 748 OFFCURVE",
"365 821 CURVE SMOOTH",
"373 859 OFFCURVE",
"398 889 OFFCURVE",
"435 889 CURVE SMOOTH",
"476 889 OFFCURVE",
"540 864 OFFCURVE",
"623 812 CURVE",
"777 1043 LINE",
"688 1104 OFFCURVE",
"590 1134 OFFCURVE",
"483 1134 CURVE SMOOTH"
);
},
{
closed = 1;
nodes = (
"715 1569 LINE",
"660 1541 OFFCURVE",
"591 1497 OFFCURVE",
"510 1437 CURVE",
"450 1500 OFFCURVE",
"402 1544 OFFCURVE",
"367 1569 CURVE",
"140 1569 LINE",
"134 1544 LINE",
"170 1501 OFFCURVE",
"204 1455 OFFCURVE",
"235 1406 CURVE SMOOTH",
"267 1357 OFFCURVE",
"290 1316 OFFCURVE",
"306 1281 CURVE",
"652 1281 LINE",
"686 1319 OFFCURVE",
"729 1363 OFFCURVE",
"782 1412 CURVE SMOOTH",
"836 1461 OFFCURVE",
"886 1505 OFFCURVE",
"933 1544 CURVE",
"939 1569 LINE"
);
}
);
width = 746;
}
);
unicode = 0161;
},
{
glyphname = germandbls;
lastChange = "2013-03-13 10:29:38 +0200";
layers = (
{
layerId = UUID0;
name = "Bold Italic";
paths = (
{
closed = 1;
nodes = (
"400 1550 OFFCURVE",
"203 1401 OFFCURVE",
"145 1129 CURVE SMOOTH",
"-95 0 LINE",
"245 0 LINE",
"253 38 LINE",
"317 0 OFFCURVE",
"397 -19 OFFCURVE",
"490 -19 CURVE SMOOTH",
"752 -19 OFFCURVE",
"930 116 OFFCURVE",
"979 346 CURVE SMOOTH",
"992 410 OFFCURVE",
"994 467 OFFCURVE",
"979 518 CURVE",
"979 517 LINE",
"967 560 OFFCURVE",
"933 610 OFFCURVE",
"876 666 CURVE SMOOTH",
"828 712 OFFCURVE",
"797 748 OFFCURVE",
"782 773 CURVE",
"774 786 OFFCURVE",
"773 803 OFFCURVE",
"778 826 CURVE SMOOTH",
"782 847 OFFCURVE",
"803 872 OFFCURVE",
"836 901 CURVE",
"835 900 LINE",
"895 951 LINE SMOOTH",
"988 1031 OFFCURVE",
"1046 1121 OFFCURVE",
"1066 1219 CURVE SMOOTH",
"1088 1319 OFFCURVE",
"1064 1400 OFFCURVE",
"995 1463 CURVE SMOOTH",
"932 1521 OFFCURVE",
"831 1550 OFFCURVE",
"693 1550 CURVE SMOOTH"
);
},
{
closed = 1;
nodes = (
"702 1295 OFFCURVE",
"728 1250 OFFCURVE",
"712 1176 CURVE SMOOTH",
"706 1148 OFFCURVE",
"694 1122 OFFCURVE",
"680 1103 CURVE",
"659 1077 OFFCURVE",
"628 1045 OFFCURVE",
"591 1015 CURVE SMOOTH",
"497 939 OFFCURVE",
"448 873 OFFCURVE",
"430 790 CURVE SMOOTH",
"418 734 OFFCURVE",
"422 683 OFFCURVE",
"440 636 CURVE SMOOTH",
"456 599 OFFCURVE",
"491 556 OFFCURVE",
"547 506 CURVE",
"547 507 LINE",
"586 470 OFFCURVE",
"612 436 OFFCURVE",
"627 406 CURVE",
"635 387 OFFCURVE",
"636 361 OFFCURVE",
"629 326 CURVE SMOOTH",
"614 258 OFFCURVE",
"578 223 OFFCURVE",
"520 223 CURVE SMOOTH",
"468 223 OFFCURVE",
"399 255 OFFCURVE",
"313 320 CURVE",
"484 1121 LINE SMOOTH",
"508 1236 OFFCURVE",
"559 1295 OFFCURVE",
"635 1295 CURVE SMOOTH"
);
}
);
width = 1088;
}
);
unicode = 00DF;
},
{
glyphname = t;
lastChange = "2013-03-13 10:29:38 +0200";
layers = (
{
layerId = UUID0;
name = "Bold Italic";
paths = (
{
closed = 1;
nodes = (
"394 1345 LINE",
"357 1272 OFFCURVE",
"308 1177 OFFCURVE",
"272 1103 CURVE",
"117 1009 LINE",
"87 869 LINE",
"191 869 LINE",
"77 335 LINE SMOOTH",
"27 98 OFFCURVE",
"104 -19 OFFCURVE",
"318 -19 CURVE SMOOTH",
"414 -19 OFFCURVE",
"495 1 OFFCURVE",
"561 40 CURVE",
"614 291 LINE",
"527 256 OFFCURVE",
"472 240 OFFCURVE",
"444 240 CURVE SMOOTH",
"414 240 OFFCURVE",
"406 268 OFFCURVE",
"418 326 CURVE SMOOTH",
"534 869 LINE",
"728 869 LINE",
"780 1114 LINE",
"586 1114 LINE",
"635 1345 LINE"
);
}
);
width = 746;
}
);
unicode = 0074;
},
{
glyphname = u;
lastChange = "2013-03-13 10:29:38 +0200";
layers = (
{
layerId = UUID0;
name = "Bold Italic";
paths = (
{
closed = 1;
nodes = (
"778 1114 LINE",
"665 579 LINE SMOOTH",
"636 443 OFFCURVE",
"604 240 OFFCURVE",
"477 240 CURVE SMOOTH",
"423 240 OFFCURVE",
"416 313 OFFCURVE",
"446 455 CURVE SMOOTH",
"586 1114 LINE",
"243 1114 LINE",
"90 394 LINE SMOOTH",
"32 118 OFFCURVE",
"117 -19 OFFCURVE",
"337 -19 CURVE SMOOTH",
"436 -19 OFFCURVE",
"528 16 OFFCURVE",
"599 78 CURVE",
"601 0 LINE",
"886 0 LINE",
"1122 1114 LINE"
);
}
);
width = 1127;
}
);
unicode = 0075;
},
{
glyphname = uacute;
lastChange = "2013-03-13 10:29:38 +0200";
layers = (
{
layerId = UUID0;
name = "Bold Italic";
paths = (
{
closed = 1;
nodes = (
"663 1114 LINE",
"550 579 LINE SMOOTH",
"521 443 OFFCURVE",
"489 240 OFFCURVE",
"362 240 CURVE SMOOTH",
"308 240 OFFCURVE",
"301 313 OFFCURVE",
"331 455 CURVE SMOOTH",
"471 1114 LINE",
"128 1114 LINE",
"-25 394 LINE SMOOTH",
"-83 118 OFFCURVE",
"2 -19 OFFCURVE",
"222 -19 CURVE SMOOTH",
"321 -19 OFFCURVE",
"413 16 OFFCURVE",
"484 78 CURVE",
"486 0 LINE",
"771 0 LINE",
"1007 1114 LINE"
);
},
{
closed = 1;
nodes = (
"684 1566 LINE",
"664 1544 OFFCURVE",
"638 1519 OFFCURVE",
"607 1490 CURVE SMOOTH",
"577 1462 OFFCURVE",
"507 1400 OFFCURVE",
"397 1303 CURVE",
"391 1278 LINE",
"619 1278 LINE",
"668 1304 OFFCURVE",
"739 1346 OFFCURVE",
"833 1404 CURVE SMOOTH",
"928 1463 OFFCURVE",
"1002 1511 OFFCURVE",
"1057 1548 CURVE",
"1060 1566 LINE"
);
}
);
width = 1018;
}
);
unicode = 00FA;
},
{
glyphname = ucircumflex;
lastChange = "2013-03-13 10:29:38 +0200";
layers = (
{
layerId = UUID0;
name = "Bold Italic";
paths = (
{
closed = 1;
nodes = (
"663 1114 LINE",
"550 579 LINE SMOOTH",
"521 443 OFFCURVE",
"488 240 OFFCURVE",
"361 240 CURVE SMOOTH",
"307 240 OFFCURVE",
"301 313 OFFCURVE",
"331 455 CURVE SMOOTH",
"471 1114 LINE",
"128 1114 LINE",
"-25 394 LINE SMOOTH",
"-83 118 OFFCURVE",
"1 -19 OFFCURVE",
"221 -19 CURVE SMOOTH",
"320 -19 OFFCURVE",
"413 16 OFFCURVE",
"484 78 CURVE",
"485 0 LINE",
"770 0 LINE",
"1007 1114 LINE"
);
},
{
closed = 1;
nodes = (
"496 1567 LINE",
"466 1533 OFFCURVE",
"424 1490 OFFCURVE",
"368 1438 CURVE SMOOTH",
"313 1387 OFFCURVE",
"262 1342 OFFCURVE",
"213 1304 CURVE",
"207 1279 LINE",
"434 1279 LINE",
"481 1304 OFFCURVE",
"547 1348 OFFCURVE",
"633 1411 CURVE",
"690 1351 OFFCURVE",
"739 1307 OFFCURVE",
"782 1279 CURVE",
"1006 1279 LINE",
"1012 1304 LINE",
"937 1399 OFFCURVE",
"880 1487 OFFCURVE",
"842 1567 CURVE"
);
}
);
width = 1018;
}
);
unicode = 00FB;
},
{
glyphname = udieresis;
lastChange = "2013-03-13 10:29:38 +0200";
layers = (
{
layerId = UUID0;
name = "Bold Italic";
paths = (
{
closed = 1;
nodes = (
"665 1114 LINE",
"551 579 LINE SMOOTH",
"522 443 OFFCURVE",
"490 240 OFFCURVE",
"363 240 CURVE SMOOTH",
"309 240 OFFCURVE",
"302 313 OFFCURVE",
"333 455 CURVE SMOOTH",
"473 1114 LINE",
"130 1114 LINE",
"-23 394 LINE SMOOTH",
"-82 118 OFFCURVE",
"3 -19 OFFCURVE",
"223 -19 CURVE SMOOTH",
"322 -19 OFFCURVE",
"414 16 OFFCURVE",
"485 78 CURVE",
"487 0 LINE",
"772 0 LINE",
"1009 1114 LINE"
);
},
{
closed = 1;
nodes = (
"372 1554 OFFCURVE",
"305 1502 OFFCURVE",
"286 1413 CURVE SMOOTH",
"268 1326 OFFCURVE",
"313 1275 OFFCURVE",
"409 1275 CURVE SMOOTH",
"503 1275 OFFCURVE",
"573 1330 OFFCURVE",
"590 1413 CURVE SMOOTH",
"608 1498 OFFCURVE",
"562 1554 OFFCURVE",
"468 1554 CURVE SMOOTH"
);
},
{
closed = 1;
nodes = (
"795 1554 OFFCURVE",
"728 1502 OFFCURVE",
"709 1413 CURVE SMOOTH",
"691 1326 OFFCURVE",
"736 1275 OFFCURVE",
"832 1275 CURVE SMOOTH",
"926 1275 OFFCURVE",
"996 1330 OFFCURVE",
"1013 1413 CURVE SMOOTH",
"1031 1498 OFFCURVE",
"985 1554 OFFCURVE",
"891 1554 CURVE SMOOTH"
);
}
);
width = 1018;
}
);
unicode = 00FC;
},
{
glyphname = ugrave;
lastChange = "2013-03-13 10:29:38 +0200";
layers = (
{
layerId = UUID0;
name = "Bold Italic";
paths = (
{
closed = 1;
nodes = (
"663 1114 LINE",
"550 579 LINE SMOOTH",
"521 443 OFFCURVE",
"488 240 OFFCURVE",
"361 240 CURVE SMOOTH",
"307 240 OFFCURVE",
"301 313 OFFCURVE",
"331 455 CURVE SMOOTH",
"471 1114 LINE",
"128 1114 LINE",
"-25 394 LINE SMOOTH",
"-83 118 OFFCURVE",
"1 -19 OFFCURVE",
"221 -19 CURVE SMOOTH",
"320 -19 OFFCURVE",
"413 16 OFFCURVE",
"484 78 CURVE",
"485 0 LINE",
"770 0 LINE",
"1007 1114 LINE"
);
},
{
closed = 1;
nodes = (
"276 1567 LINE",
"272 1549 LINE",
"318 1506 OFFCURVE",
"373 1456 OFFCURVE",
"440 1400 CURVE SMOOTH",
"507 1345 OFFCURVE",
"559 1304 OFFCURVE",
"594 1279 CURVE",
"822 1279 LINE",
"828 1304 LINE",
"789 1362 LINE SMOOTH",
"720 1458 OFFCURVE",
"676 1526 OFFCURVE",
"654 1567 CURVE"
);
}
);
width = 1018;
}
);
unicode = 00F9;
},
{
glyphname = v;
lastChange = "2013-03-13 10:29:38 +0200";
layers = (
{
layerId = UUID0;
name = "Bold Italic";
paths = (
{
closed = 1;
nodes = (
"731 1114 LINE",
"601 813 OFFCURVE",
"510 602 OFFCURVE",
"464 494 CURVE",
"459 1114 LINE",
"108 1114 LINE",
"162 0 LINE",
"555 0 LINE",
"1082 1114 LINE"
);
}
);
width = 954;
}
);
unicode = 0076;
},
{
glyphname = w;
lastChange = "2013-03-13 10:29:38 +0200";
layers = (
{
layerId = UUID0;
name = "Bold Italic";
paths = (
{
closed = 1;
nodes = (
"1274 1114 LINE",
"1055 545 LINE",
"1075 1114 LINE",
"669 1114 LINE",
"449 553 LINE",
"475 1114 LINE",
"133 1114 LINE",
"119 0 LINE",
"524 0 LINE",
"638 295 OFFCURVE",
"721 506 OFFCURVE",
"765 622 CURVE",
"741 0 LINE",
"1150 0 LINE",
"1609 1114 LINE"
);
}
);
width = 1506;
}
);
unicode = 0077;
},
{
glyphname = x;
lastChange = "2013-03-13 10:29:38 +0200";
layers = (
{
layerId = UUID0;
name = "Bold Italic";
paths = (
{
closed = 1;
nodes = (
"689 1114 LINE",
"537 868 LINE",
"482 1114 LINE",
"130 1114 LINE",
"182 942 OFFCURVE",
"242 742 OFFCURVE",
"294 569 CURVE",
"-118 0 LINE",
"235 0 LINE",
"400 265 LINE",
"462 0 LINE",
"815 0 LINE",
"645 569 LINE",
"1041 1114 LINE"
);
}
);
width = 933;
}
);
unicode = 0078;
},
{
glyphname = y;
lastChange = "2013-03-13 10:29:38 +0200";
layers = (
{
layerId = UUID0;
name = "Bold Italic";
paths = (
{
closed = 1;
nodes = (
"776 1114 LINE",
"654 824 OFFCURVE",
"569 622 OFFCURVE",
"526 518 CURVE",
"508 1114 LINE",
"157 1114 LINE",
"244 6 LINE",
"212 -59 LINE",
"167 -161 OFFCURVE",
"113 -212 OFFCURVE",
"53 -212 CURVE SMOOTH",
"27 -212 OFFCURVE",
"-16 -203 OFFCURVE",
"-72 -185 CURVE",
"-128 -447 LINE",
"-69 -465 OFFCURVE",
"-11 -473 OFFCURVE",
"44 -473 CURVE SMOOTH",
"303 -473 OFFCURVE",
"447 -313 OFFCURVE",
"568 -62 CURVE SMOOTH",
"1131 1114 LINE"
);
}
);
width = 952;
}
);
unicode = 0079;
},
{
glyphname = yacute;
lastChange = "2013-03-13 10:29:38 +0200";
layers = (
{
layerId = UUID0;
name = "Bold Italic";
paths = (
{
closed = 1;
nodes = (
"691 1114 LINE",
"441 518 LINE",
"423 1114 LINE",
"72 1114 LINE",
"159 6 LINE",
"127 -59 LINE",
"82 -161 OFFCURVE",
"28 -212 OFFCURVE",
"-32 -212 CURVE SMOOTH",
"-58 -212 OFFCURVE",
"-101 -203 OFFCURVE",
"-157 -185 CURVE",
"-213 -447 LINE",
"-154 -465 OFFCURVE",
"-96 -473 OFFCURVE",
"-41 -473 CURVE SMOOTH",
"218 -473 OFFCURVE",
"362 -313 OFFCURVE",
"483 -62 CURVE SMOOTH",
"1046 1114 LINE"
);
},
{
closed = 1;
nodes = (
"662 1566 LINE",
"641 1544 OFFCURVE",
"616 1519 OFFCURVE",
"585 1490 CURVE SMOOTH",
"555 1462 OFFCURVE",
"484 1400 OFFCURVE",
"374 1303 CURVE",
"368 1278 LINE",
"596 1278 LINE",
"645 1304 OFFCURVE",
"716 1346 OFFCURVE",
"810 1404 CURVE SMOOTH",
"905 1463 OFFCURVE",
"979 1511 OFFCURVE",
"1034 1548 CURVE",
"1038 1566 LINE"
);
}
);
width = 893;
}
);
unicode = 00FD;
},
{
glyphname = ydieresis;
lastChange = "2013-03-13 10:29:38 +0200";
layers = (
{
layerId = UUID0;
name = "Bold Italic";
paths = (
{
closed = 1;
nodes = (
"692 1114 LINE",
"570 824 OFFCURVE",
"485 622 OFFCURVE",
"442 518 CURVE",
"424 1114 LINE",
"73 1114 LINE",
"160 6 LINE",
"129 -59 LINE",
"83 -161 OFFCURVE",
"29 -212 OFFCURVE",
"-31 -212 CURVE SMOOTH",
"-57 -212 OFFCURVE",
"-100 -203 OFFCURVE",
"-156 -185 CURVE",
"-212 -447 LINE",
"-153 -465 OFFCURVE",
"-94 -473 OFFCURVE",
"-39 -473 CURVE SMOOTH",
"220 -473 OFFCURVE",
"364 -313 OFFCURVE",
"484 -62 CURVE SMOOTH",
"1047 1114 LINE"
);
},
{
closed = 1;
nodes = (
"360 1554 OFFCURVE",
"293 1502 OFFCURVE",
"274 1413 CURVE SMOOTH",
"256 1326 OFFCURVE",
"301 1275 OFFCURVE",
"397 1275 CURVE SMOOTH",
"491 1275 OFFCURVE",
"561 1330 OFFCURVE",
"578 1413 CURVE SMOOTH",
"597 1498 OFFCURVE",
"550 1554 OFFCURVE",
"456 1554 CURVE SMOOTH"
);
},
{
closed = 1;
nodes = (
"783 1554 OFFCURVE",
"716 1502 OFFCURVE",
"697 1413 CURVE SMOOTH",
"679 1326 OFFCURVE",
"724 1275 OFFCURVE",
"820 1275 CURVE SMOOTH",
"914 1275 OFFCURVE",
"984 1330 OFFCURVE",
"1001 1413 CURVE SMOOTH",
"1020 1498 OFFCURVE",
"973 1554 OFFCURVE",
"879 1554 CURVE SMOOTH"
);
}
);
width = 893;
}
);
unicode = 00FF;
},
{
glyphname = z;
lastChange = "2013-03-13 10:29:38 +0200";
layers = (
{
layerId = UUID0;
name = "Bold Italic";
paths = (
{
closed = 1;
nodes = (
"178 1114 LINE",
"125 865 LINE",
"422 865 LINE",
"-40 185 LINE",
"-79 0 LINE",
"630 0 LINE",
"683 249 LINE",
"360 249 LINE",
"810 912 LINE",
"853 1114 LINE"
);
}
);
width = 789;
}
);
unicode = 007A;
},
{
glyphname = zcaron;
lastChange = "2013-03-13 10:29:38 +0200";
layers = (
{
layerId = UUID0;
name = "Bold Italic";
paths = (
{
closed = 1;
nodes = (
"85 1114 LINE",
"32 865 LINE",
"329 865 LINE",
"-133 185 LINE",
"-173 0 LINE",
"536 0 LINE",
"589 249 LINE",
"266 249 LINE",
"717 912 LINE",
"760 1114 LINE"
);
},
{
closed = 1;
nodes = (
"698 1569 LINE",
"643 1541 OFFCURVE",
"574 1497 OFFCURVE",
"493 1437 CURVE",
"433 1500 OFFCURVE",
"385 1544 OFFCURVE",
"350 1569 CURVE",
"123 1569 LINE",
"117 1544 LINE",
"153 1501 OFFCURVE",
"187 1455 OFFCURVE",
"218 1406 CURVE SMOOTH",
"250 1357 OFFCURVE",
"273 1316 OFFCURVE",
"289 1281 CURVE",
"635 1281 LINE",
"669 1319 OFFCURVE",
"712 1363 OFFCURVE",
"765 1412 CURVE SMOOTH",
"819 1461 OFFCURVE",
"869 1505 OFFCURVE",
"916 1544 CURVE",
"922 1569 LINE"
);
}
);
width = 711;
}
);
unicode = 017E;
},
{
glyphname = fi;
lastChange = "2013-03-13 10:29:38 +0200";
layers = (
{
layerId = UUID0;
name = "Bold Italic";
paths = (
{
closed = 1;
nodes = (
"377 1550 OFFCURVE",
"245 1429 OFFCURVE",
"191 1176 CURVE SMOOTH",
"175 1101 LINE",
"35 1024 LINE",
"2 869 LINE",
"126 869 LINE",
"-59 0 LINE",
"282 0 LINE",
"467 869 LINE",
"644 869 LINE",
"696 1114 LINE",
"519 1114 LINE",
"531 1172 LINE SMOOTH",
"549 1254 OFFCURVE",
"570 1292 OFFCURVE",
"599 1292 CURVE SMOOTH",
"622 1292 OFFCURVE",
"661 1278 OFFCURVE",
"716 1248 CURVE",
"852 1492 LINE",
"781 1531 OFFCURVE",
"706 1550 OFFCURVE",
"626 1550 CURVE SMOOTH"
);
},
{
closed = 1;
nodes = (
"747 1114 LINE",
"510 0 LINE",
"851 0 LINE",
"1088 1114 LINE"
);
},
{
closed = 1;
nodes = (
"893 1532 OFFCURVE",
"812 1471 OFFCURVE",
"791 1373 CURVE SMOOTH",
"770 1272 OFFCURVE",
"830 1214 OFFCURVE",
"940 1214 CURVE SMOOTH",
"1046 1214 OFFCURVE",
"1133 1272 OFFCURVE",
"1154 1373 CURVE SMOOTH",
"1175 1471 OFFCURVE",
"1118 1532 OFFCURVE",
"1008 1532 CURVE SMOOTH"
);
}
);
width = 1088;
}
);
unicode = FB01;
},
{
glyphname = fl;
lastChange = "2013-03-13 10:29:38 +0200";
layers = (
{
layerId = UUID0;
name = "Bold Italic";
paths = (
{
closed = 1;
nodes = (
"377 1550 OFFCURVE",
"245 1429 OFFCURVE",
"191 1176 CURVE SMOOTH",
"175 1101 LINE",
"35 1024 LINE",
"2 869 LINE",
"126 869 LINE",
"-59 0 LINE",
"282 0 LINE",
"467 869 LINE",
"644 869 LINE",
"696 1114 LINE",
"519 1114 LINE",
"531 1172 LINE SMOOTH",
"549 1254 OFFCURVE",
"570 1292 OFFCURVE",
"599 1292 CURVE SMOOTH",
"622 1292 OFFCURVE",
"661 1278 OFFCURVE",
"716 1248 CURVE",
"852 1492 LINE",
"781 1531 OFFCURVE",
"706 1550 OFFCURVE",
"626 1550 CURVE SMOOTH"
);
},
{
closed = 1;
nodes = (
"835 1539 LINE",
"508 0 LINE",
"849 0 LINE",
"1176 1539 LINE"
);
}
);
width = 1082;
}
);
unicode = FB02;
},
{
glyphname = ordfeminine;
lastChange = "2013-03-13 10:29:38 +0200";
layers = (
{
layerId = UUID0;
name = "Bold Italic";
paths = (
{
closed = 1;
nodes = (
"319 1465 OFFCURVE",
"216 1436 OFFCURVE",
"103 1374 CURVE",
"141 1202 LINE",
"239 1254 OFFCURVE",
"304 1281 OFFCURVE",
"338 1281 CURVE SMOOTH",
"374 1281 OFFCURVE",
"386 1253 OFFCURVE",
"378 1199 CURVE",
"338 1197 LINE SMOOTH",
"120 1184 OFFCURVE",
"12 1113 OFFCURVE",
"-20 961 CURVE SMOOTH",
"-54 801 OFFCURVE",
"20 729 OFFCURVE",
"161 729 CURVE SMOOTH",
"223 729 OFFCURVE",
"282 749 OFFCURVE",
"332 783 CURVE",
"334 741 LINE",
"526 741 LINE",
"622 1192 LINE SMOOTH",
"659 1366 OFFCURVE",
"590 1465 OFFCURVE",
"413 1465 CURVE SMOOTH"
);
},
{
closed = 1;
nodes = (
"343 1034 LINE SMOOTH",
"326 955 OFFCURVE",
"285 909 OFFCURVE",
"238 909 CURVE SMOOTH",
"225 909 OFFCURVE",
"223 927 OFFCURVE",
"231 963 CURVE SMOOTH",
"242 1016 OFFCURVE",
"272 1039 OFFCURVE",
"322 1044 CURVE SMOOTH",
"345 1046 LINE"
);
}
);
width = 662;
}
);
unicode = 00AA;
},
{
glyphname = ordmasculine;
lastChange = "2013-03-13 10:29:38 +0200";
layers = (
{
layerId = UUID0;
name = "Bold Italic";
paths = (
{
closed = 1;
nodes = (
"303 1465 OFFCURVE",
"218 1432 OFFCURVE",
"152 1366 CURVE SMOOTH",
"84 1298 OFFCURVE",
"37 1208 OFFCURVE",
"13 1099 CURVE SMOOTH",
"-9 992 OFFCURVE",
"-1 902 OFFCURVE",
"37 831 CURVE SMOOTH",
"76 764 OFFCURVE",
"145 729 OFFCURVE",
"248 729 CURVE SMOOTH",
"350 729 OFFCURVE",
"434 763 OFFCURVE",
"500 828 CURVE SMOOTH",
"571 899 OFFCURVE",
"617 988 OFFCURVE",
"640 1099 CURVE SMOOTH",
"663 1207 OFFCURVE",
"653 1295 OFFCURVE",
"613 1364 CURVE",
"614 1364 LINE",
"576 1432 OFFCURVE",
"506 1465 OFFCURVE",
"405 1465 CURVE SMOOTH"
);
},
{
closed = 1;
nodes = (
"409 1275 OFFCURVE",
"416 1220 OFFCURVE",
"390 1099 CURVE SMOOTH",
"365 978 OFFCURVE",
"333 919 OFFCURVE",
"289 919 CURVE SMOOTH",
"245 919 OFFCURVE",
"238 978 OFFCURVE",
"263 1099 CURVE SMOOTH",
"289 1220 OFFCURVE",
"321 1275 OFFCURVE",
"365 1275 CURVE SMOOTH"
);
}
);
width = 666;
}
);
unicode = 00BA;
},
{
glyphname = "alef-hb";
lastChange = "2013-03-13 10:29:38 +0200";
layers = (
{
anchors = (
{
name = bottom;
position = "{398, 0}";
},
{
name = bottomleft;
position = "{-117, 0}";
},
{
name = center;
position = "{366, 0}";
},
{
name = top;
position = "{636, 1118}";
},
{
name = topleft;
position = "{241, 1118}";
}
);
layerId = UUID0;
name = "Bold Italic";
paths = (
{
closed = 1;
nodes = (
"813 1290 LINE",
"709 800 LINE SMOOTH",
"702 769 OFFCURVE",
"691 724 OFFCURVE",
"681 703 CURVE",
"658 831 LINE",
"563 1290 LINE",
"187 1290 LINE",
"228 1143 OFFCURVE",
"280 970 OFFCURVE",
"321 820 CURVE",
"139 734 OFFCURVE",
"64 589 OFFCURVE",
"38 467 CURVE SMOOTH",
"-61 0 LINE",
"282 0 LINE",
"386 490 LINE SMOOTH",
"389 503 OFFCURVE",
"395 534 OFFCURVE",
"399 546 CURVE",
"496 0 LINE",
"872 0 LINE",
"759 450 LINE",
"976 534 OFFCURVE",
"1026 680 OFFCURVE",
"1055 813 CURVE SMOOTH",
"1156 1290 LINE"
);
}
);
width = 1069;
}
);
unicode = 05D0;
},
{
glyphname = "bet-hb";
lastChange = "2013-03-13 10:29:38 +0200";
layers = (
{
anchors = (
{
name = bottom;
position = "{333, 0}";
},
{
name = bottomleft;
position = "{-119, 0}";
},
{
name = center;
position = "{240, 559}";
},
{
name = top;
position = "{570, 1118}";
},
{
name = topleft;
position = "{211, 1118}";
}
);
layerId = UUID0;
name = "Bold Italic";
paths = (
{
closed = 1;
nodes = (
"350 1310 OFFCURVE",
"193 1282 OFFCURVE",
"193 1282 CURVE",
"140 1030 LINE",
"140 1030 OFFCURVE",
"248 1057 OFFCURVE",
"384 1057 CURVE SMOOTH",
"502 1057 OFFCURVE",
"532 1009 OFFCURVE",
"499 854 CURVE SMOOTH",
"371 251 LINE",
"-26 251 LINE",
"-79 0 LINE",
"793 0 LINE",
"846 251 LINE",
"716 251 LINE",
"844 853 LINE SMOOTH",
"907 1149 OFFCURVE",
"879 1310 OFFCURVE",
"494 1310 CURVE SMOOTH"
);
}
);
width = 943;
}
);
unicode = 05D1;
},
{
glyphname = "gimel-hb";
lastChange = "2013-03-13 10:29:38 +0200";
layers = (
{
anchors = (
{
name = bottom;
position = "{278, 0}";
},
{
name = bottomleft;
position = "{-117, 0}";
},
{
name = center;
position = "{195, 559}";
},
{
name = top;
position = "{515, 1118}";
},
{
name = topleft;
position = "{333, 1118}";
}
);
layerId = UUID0;
name = "Bold Italic";
paths = (
{
closed = 1;
nodes = (
"414 1310 OFFCURVE",
"291 1284 OFFCURVE",
"291 1284 CURVE",
"237 1032 LINE",
"237 1032 OFFCURVE",
"298 1051 OFFCURVE",
"394 1051 CURVE SMOOTH",
"470 1051 OFFCURVE",
"470 979 OFFCURVE",
"456 916 CURVE SMOOTH",
"375 532 LINE SMOOTH",
"333 337 OFFCURVE",
"249 265 OFFCURVE",
"102 265 CURVE SMOOTH",
"48 265 OFFCURVE",
"-24 288 OFFCURVE",
"-24 288 CURVE",
"-109 0 LINE",
"-109 0 OFFCURVE",
"-24 -19 OFFCURVE",
"29 -19 CURVE SMOOTH",
"178 -19 OFFCURVE",
"299 81 OFFCURVE",
"343 148 CURVE",
"354 148 LINE",
"339 0 LINE",
"606 0 LINE",
"800 916 LINE SMOOTH",
"850 1148 OFFCURVE",
"835 1310 OFFCURVE",
"503 1310 CURVE SMOOTH"
);
}
);
width = 829;
}
);
unicode = 05D2;
},
{
glyphname = "dalet-hb";
lastChange = "2013-03-13 10:29:38 +0200";
layers = (
{
anchors = (
{
name = bottom;
position = "{430, 0}";
},
{
name = bottomleft;
position = "{-117, 0}";
},
{
name = center;
position = "{189, 559}";
},
{
name = top;
position = "{554, 1118}";
},
{
name = topleft;
position = "{214, 1118}";
}
);
layerId = UUID0;
name = "Bold Italic";
paths = (
{
closed = 1;
nodes = (
"164 1290 LINE",
"111 1039 LINE",
"591 1039 LINE",
"533 1003 OFFCURVE",
"459 935 OFFCURVE",
"434 818 CURVE SMOOTH",
"260 0 LINE",
"603 0 LINE",
"775 811 LINE SMOOTH",
"799 924 OFFCURVE",
"856 1021 OFFCURVE",
"977 1062 CURVE",
"1025 1290 LINE"
);
}
);
width = 906;
}
);
unicode = 05D3;
},
{
glyphname = "he-hb";
lastChange = "2013-03-13 10:29:38 +0200";
layers = (
{
anchors = (
{
name = bottom;
position = "{392, 0}";
},
{
name = bottomleft;
position = "{-119, 0}";
},
{
name = center;
position = "{511, 559}";
},
{
name = top;
position = "{629, 1118}";
},
{
name = topleft;
position = "{251, 1118}";
}
);
layerId = UUID0;
name = "Bold Italic";
paths = (
{
closed = 1;
nodes = (
"400 1310 OFFCURVE",
"220 1264 OFFCURVE",
"220 1264 CURVE",
"167 1014 LINE",
"167 1014 OFFCURVE",
"386 1057 OFFCURVE",
"539 1057 CURVE SMOOTH",
"669 1057 OFFCURVE",
"705 1009 OFFCURVE",
"672 854 CURVE SMOOTH",
"491 0 LINE",
"836 0 LINE",
"1017 853 LINE SMOOTH",
"1080 1149 OFFCURVE",
"1052 1310 OFFCURVE",
"666 1310 CURVE SMOOTH"
);
},
{
closed = 1;
nodes = (
"130 838 LINE",
"-48 0 LINE",
"296 0 LINE",
"474 838 LINE"
);
}
);
width = 1061;
}
);
unicode = 05D4;
},
{
glyphname = "vav-hb";
lastChange = "2013-03-13 10:29:38 +0200";
layers = (
{
anchors = (
{
name = bottom;
position = "{126, 0}";
},
{
name = bottomleft;
position = "{-117, 0}";
},
{
name = center;
position = "{-12, 559}";
},
{
name = top;
position = "{364, 1118}";
},
{
name = topleft;
position = "{274, 1118}";
}
);
layerId = UUID0;
name = "Bold Italic";
paths = (
{
closed = 1;
nodes = (
"228 1290 LINE",
"-46 0 LINE",
"297 0 LINE",
"571 1290 LINE"
);
}
);
width = 525;
}
);
unicode = 05D5;
},
{
glyphname = "zayin-hb";
lastChange = "2013-03-13 10:29:38 +0200";
layers = (
{
anchors = (
{
name = bottom;
position = "{123, 0}";
},
{
name = bottomleft;
position = "{-117, 0}";
},
{
name = center;
position = "{-16, 559}";
},
{
name = top;
position = "{398, 1118}";
},
{
name = topleft;
position = "{248, 1118}";
}
);
layerId = UUID0;
name = "Bold Italic";
paths = (
{
closed = 1;
nodes = (
"207 1290 LINE",
"154 1039 LINE",
"384 1039 LINE",
"323 980 OFFCURVE",
"132 778 OFFCURVE",
"60 438 CURVE SMOOTH",
"-33 0 LINE",
"311 0 LINE",
"404 438 LINE SMOOTH",
"439 605 OFFCURVE",
"480 780 OFFCURVE",
"592 945 CURVE SMOOTH",
"646 1024 OFFCURVE",
"674 1059 OFFCURVE",
"674 1059 CURVE",
"723 1290 LINE"
);
}
);
width = 594;
}
);
unicode = 05D6;
},
{
glyphname = "het-hb";
lastChange = "2013-03-13 10:29:38 +0200";
layers = (
{
anchors = (
{
name = bottom;
position = "{392, 0}";
},
{
name = bottomleft;
position = "{-119, 0}";
},
{
name = center;
position = "{511, 559}";
},
{
name = top;
position = "{629, 1118}";
},
{
name = topleft;
position = "{251, 1118}";
}
);
layerId = UUID0;
name = "Bold Italic";
paths = (
{
closed = 1;
nodes = (
"460 1310 OFFCURVE",
"273 1283 OFFCURVE",
"222 1273 CURVE",
"-48 0 LINE",
"296 0 LINE",
"519 1052 LINE",
"539 1054 OFFCURVE",
"559 1057 OFFCURVE",
"575 1057 CURVE SMOOTH",
"682 1057 OFFCURVE",
"705 1009 OFFCURVE",
"672 854 CURVE SMOOTH",
"491 0 LINE",
"836 0 LINE",
"1017 853 LINE SMOOTH",
"1080 1149 OFFCURVE",
"1052 1310 OFFCURVE",
"666 1310 CURVE SMOOTH"
);
}
);
width = 1061;
}
);
unicode = 05D7;
},
{
glyphname = "tet-hb";
lastChange = "2013-03-13 10:29:38 +0200";
layers = (
{
anchors = (
{
name = bottom;
position = "{413, 0}";
},
{
name = bottomleft;
position = "{-117, 0}";
},
{
name = center;
position = "{523, 559}";
},
{
name = top;
position = "{641, 1118}";
},
{
name = topleft;
position = "{253, 1118}";
}
);
layerId = UUID0;
name = "Bold Italic";
paths = (
{
closed = 1;
nodes = (
"724 1310 OFFCURVE",
"656 1290 OFFCURVE",
"656 1290 CURVE",
"605 1049 LINE",
"605 1049 OFFCURVE",
"628 1057 OFFCURVE",
"644 1057 CURVE SMOOTH",
"746 1057 OFFCURVE",
"739 977 OFFCURVE",
"669 646 CURVE SMOOTH",
"599 316 OFFCURVE",
"528 234 OFFCURVE",
"465 234 CURVE SMOOTH",
"402 234 OFFCURVE",
"365 316 OFFCURVE",
"435 646 CURVE SMOOTH",
"572 1290 LINE",
"223 1290 LINE",
"86 646 LINE SMOOTH",
"-38 63 OFFCURVE",
"263 -19 OFFCURVE",
"411 -19 CURVE SMOOTH",
"560 -19 OFFCURVE",
"894 63 OFFCURVE",
"1018 646 CURVE SMOOTH",
"1077 922 OFFCURVE",
"1134 1310 OFFCURVE",
"778 1310 CURVE SMOOTH"
);
}
);
width = 1082;
}
);
unicode = 05D8;
},
{
glyphname = "yod-hb";
lastChange = "2013-03-13 10:29:38 +0200";
layers = (
{
anchors = (
{
name = bottom;
position = "{127, 0}";
},
{
name = bottomleft;
position = "{-116, 0}";
},
{
name = center;
position = "{37, 767}";
},
{
name = top;
position = "{365, 1118}";
},
{
name = topleft;
position = "{275, 1118}";
}
);
layerId = UUID0;
name = "Bold Italic";
paths = (
{
closed = 1;
nodes = (
"229 1290 LINE",
"45 423 LINE",
"216 423 LINE",
"445 694 LINE",
"572 1290 LINE"
);
}
);
width = 525;
}
);
unicode = 05D9;
},
{
glyphname = "finalkaf-hb";
lastChange = "2013-03-13 10:29:38 +0200";
layers = (
{
anchors = (
{
name = bottom;
position = "{-17, 393}";
},
{
name = bottomleft;
position = "{-116, 0}";
},
{
name = center;
position = "{122, 559}";
},
{
name = top;
position = "{526, 1118}";
},
{
name = topleft;
position = "{221, 1118}";
}
);
layerId = UUID0;
name = "Bold Italic";
paths = (
{
closed = 1;
nodes = (
"347 1310 OFFCURVE",
"258 1295 OFFCURVE",
"168 1275 CURVE",
"113 1019 LINE",
"113 1019 OFFCURVE",
"205 1042 OFFCURVE",
"326 1042 CURVE SMOOTH",
"475 1042 OFFCURVE",
"473 893 OFFCURVE",
"439 733 CURVE SMOOTH",
"182 -478 LINE",
"525 -478 LINE",
"782 733 LINE SMOOTH",
"845 1026 OFFCURVE",
"831 1310 OFFCURVE",
"464 1310 CURVE SMOOTH"
);
}
);
width = 849;
}
);
unicode = 05DA;
},
{
glyphname = "kaf-hb";
lastChange = "2013-03-13 10:29:38 +0200";
layers = (
{
anchors = (
{
name = bottom;
position = "{282, 0}";
},
{
name = bottomleft;
position = "{-106, 0}";
},
{
name = center;
position = "{202, 559}";
},
{
name = top;
position = "{519, 1118}";
},
{
name = topleft;
position = "{220, 1118}";
}
);
layerId = UUID0;
name = "Bold Italic";
paths = (
{
closed = 1;
nodes = (
"374 1310 OFFCURVE",
"269 1299 OFFCURVE",
"179 1279 CURVE",
"124 1023 LINE",
"124 1023 OFFCURVE",
"217 1046 OFFCURVE",
"350 1046 CURVE SMOOTH",
"467 1046 OFFCURVE",
"489 953 OFFCURVE",
"455 793 CURVE SMOOTH",
"399 528 LINE SMOOTH",
"364 363 OFFCURVE",
"323 245 OFFCURVE",
"196 245 CURVE SMOOTH",
"126 245 OFFCURVE",
"51 253 OFFCURVE",
"-34 280 CURVE",
"-90 16 LINE",
"-17 -7 OFFCURVE",
"108 -19 OFFCURVE",
"192 -19 CURVE SMOOTH",
"536 -19 OFFCURVE",
"693 266 OFFCURVE",
"749 528 CURVE SMOOTH",
"805 793 LINE SMOOTH",
"868 1086 OFFCURVE",
"841 1310 OFFCURVE",
"474 1310 CURVE SMOOTH"
);
}
);
width = 838;
}
);
unicode = 05DB;
},
{
glyphname = "lamed-hb";
lastChange = "2013-03-13 10:29:38 +0200";
layers = (
{
anchors = (
{
name = bottom;
position = "{289, 0}";
},
{
name = bottomleft;
position = "{-115, 0}";
},
{
name = center;
position = "{151, 559}";
},
{
name = top;
position = "{527, 1118}";
},
{
name = topleft;
position = "{-10, 1118}";
}
);
layerId = UUID0;
name = "Bold Italic";
paths = (
{
closed = 1;
nodes = (
"223 1548 LINE",
"114 1039 LINE",
"564 1039 LINE",
"303 504 LINE",
"96 0 LINE",
"431 0 LINE",
"635 495 LINE",
"927 1095 LINE",
"969 1290 LINE",
"512 1290 LINE",
"567 1548 LINE"
);
}
);
width = 848;
}
);
unicode = 05DC;
},
{
glyphname = "finalmem-hb";
lastChange = "2013-03-13 10:29:38 +0200";
layers = (
{
anchors = (
{
name = bottom;
position = "{392, 0}";
},
{
name = bottomleft;
position = "{-119, 0}";
},
{
name = center;
position = "{511, 559}";
},
{
name = top;
position = "{629, 1118}";
},
{
name = topleft;
position = "{265, 1118}";
}
);
layerId = UUID0;
name = "Bold Italic";
paths = (
{
closed = 1;
nodes = (
"491 1310 OFFCURVE",
"278 1287 OFFCURVE",
"223 1276 CURVE",
"-48 0 LINE",
"836 0 LINE",
"1017 853 LINE SMOOTH",
"1080 1149 OFFCURVE",
"1052 1310 OFFCURVE",
"666 1310 CURVE SMOOTH"
);
},
{
closed = 1;
nodes = (
"685 1057 OFFCURVE",
"705 1009 OFFCURVE",
"672 854 CURVE SMOOTH",
"544 251 LINE",
"349 251 LINE",
"519 1049 LINE",
"547 1053 OFFCURVE",
"557 1057 OFFCURVE",
"589 1057 CURVE SMOOTH"
);
}
);
width = 1061;
}
);
unicode = 05DD;
},
{
glyphname = "mem-hb";
lastChange = "2013-03-13 10:29:38 +0200";
layers = (
{
anchors = (
{
name = bottom;
position = "{430, 0}";
},
{
name = bottomleft;
position = "{-119, 0}";
},
{
name = center;
position = "{552, 559}";
},
{
name = top;
position = "{667, 1118}";
},
{
name = topleft;
position = "{191, 1118}";
}
);
layerId = UUID0;
name = "Bold Italic";
paths = (
{
closed = 1;
nodes = (
"721 1310 OFFCURVE",
"601 1229 OFFCURVE",
"515 1160 CURVE",
"510 1160 LINE",
"512 1213 OFFCURVE",
"509 1258 OFFCURVE",
"501 1290 CURVE",
"185 1290 LINE SMOOTH",
"185 1290 OFFCURVE",
"196 1229 OFFCURVE",
"201 1153 CURVE SMOOTH",
"207 1058 OFFCURVE",
"194 935 OFFCURVE",
"163 832 CURVE SMOOTH",
"-84 0 LINE",
"259 0 LINE",
"526 926 LINE",
"526 926 OFFCURVE",
"606 1050 OFFCURVE",
"701 1050 CURVE SMOOTH",
"792 1050 OFFCURVE",
"769 939 OFFCURVE",
"739 797 CURVE SMOOTH",
"623 251 LINE",
"450 251 LINE",
"397 0 LINE",
"913 0 LINE",
"1082 797 LINE SMOOTH",
"1144 1089 OFFCURVE",
"1120 1310 OFFCURVE",
"845 1310 CURVE SMOOTH"
);
}
);
width = 1138;
}
);
unicode = 05DE;
},
{
glyphname = "finalnun-hb";
lastChange = "2013-03-13 10:29:38 +0200";
layers = (
{
anchors = (
{
name = bottom;
position = "{-367, 407}";
},
{
name = bottomleft;
position = "{-113, 0}";
},
{
name = center;
position = "{-27, 559}";
},
{
name = top;
position = "{358, 1118}";
},
{
name = topleft;
position = "{234, 1118}";
}
);
layerId = UUID0;
name = "Bold Italic";
paths = (
{
closed = 1;
nodes = (
"155 1290 LINE SMOOTH",
"155 1290 OFFCURVE",
"180 1106 OFFCURVE",
"118 817 CURVE SMOOTH",
"-157 -478 LINE",
"187 -478 LINE",
"462 817 LINE SMOOTH",
"524 1108 OFFCURVE",
"500 1290 OFFCURVE",
"500 1290 CURVE SMOOTH"
);
}
);
width = 508;
}
);
unicode = 05DF;
},
{
glyphname = "nun-hb";
lastChange = "2013-03-13 10:29:38 +0200";
layers = (
{
anchors = (
{
name = bottom;
position = "{237, 0}";
},
{
name = bottomleft;
position = "{-119, 0}";
},
{
name = center;
position = "{153, 559}";
},
{
name = top;
position = "{474, 1118}";
},
{
name = topleft;
position = "{258, 1118}";
}
);
layerId = UUID0;
name = "Bold Italic";
paths = (
{
closed = 1;
nodes = (
"351 1310 OFFCURVE",
"224 1287 OFFCURVE",
"224 1287 CURVE",
"169 1029 LINE",
"169 1029 OFFCURVE",
"258 1051 OFFCURVE",
"302 1051 CURVE SMOOTH",
"388 1051 OFFCURVE",
"397 979 OFFCURVE",
"383 916 CURVE SMOOTH",
"285 453 LINE SMOOTH",
"261 340 OFFCURVE",
"239 277 OFFCURVE",
"228 251 CURVE",
"-53 251 LINE",
"-106 0 LINE",
"477 0 LINE",
"477 0 OFFCURVE",
"569 171 OFFCURVE",
"613 376 CURVE SMOOTH",
"727 916 LINE SMOOTH",
"777 1148 OFFCURVE",
"774 1310 OFFCURVE",
"430 1310 CURVE SMOOTH"
);
}
);
width = 752;
}
);
unicode = 05E0;
},
{
glyphname = "samekh-hb";
lastChange = "2013-03-13 10:29:38 +0200";
layers = (
{
anchors = (
{
name = bottom;
position = "{389, 0}";
},
{
name = bottomleft;
position = "{-117, 0}";
},
{
name = center;
position = "{508, 559}";
},
{
name = top;
position = "{627, 1118}";
},
{
name = topleft;
position = "{261, 1118}";
}
);
layerId = UUID0;
name = "Bold Italic";
paths = (
{
closed = 1;
nodes = (
"426 1310 OFFCURVE",
"211 1277 OFFCURVE",
"211 1277 CURVE",
"159 1031 LINE",
"263 1038 LINE",
"179 951 OFFCURVE",
"92 779 OFFCURVE",
"64 646 CURVE SMOOTH",
"-58 70 OFFCURVE",
"226 -20 OFFCURVE",
"385 -20 CURVE SMOOTH",
"533 -20 OFFCURVE",
"863 63 OFFCURVE",
"987 646 CURVE SMOOTH",
"1111 1230 OFFCURVE",
"815 1310 OFFCURVE",
"667 1310 CURVE SMOOTH"
);
},
{
closed = 1;
nodes = (
"677 1057 OFFCURVE",
"713 977 OFFCURVE",
"642 646 CURVE SMOOTH",
"572 316 OFFCURVE",
"501 233 OFFCURVE",
"438 233 CURVE SMOOTH",
"375 233 OFFCURVE",
"339 316 OFFCURVE",
"409 646 CURVE SMOOTH",
"450 839 OFFCURVE",
"489 965 OFFCURVE",
"571 1054 CURVE",
"571 1054 OFFCURVE",
"602 1057 OFFCURVE",
"614 1057 CURVE SMOOTH"
);
}
);
width = 1051;
}
);
unicode = 05E1;
},
{
glyphname = "ayin-hb";
lastChange = "2013-03-13 10:29:38 +0200";
layers = (
{
anchors = (
{
name = bottom;
position = "{391, 0}";
},
{
name = bottomleft;
position = "{-110, 0}";
},
{
name = center;
position = "{536, 559}";
},
{
name = top;
position = "{629, 1118}";
},
{
name = topleft;
position = "{221, 1118}";
}
);
layerId = UUID0;
name = "Bold Italic";
paths = (
{
closed = 1;
nodes = (
"792 1290 LINE",
"634 700 LINE",
"604 602 OFFCURVE",
"578 452 OFFCURVE",
"454 365 CURVE",
"501 700 LINE",
"517 1290 LINE",
"176 1290 LINE",
"163 229 LINE",
"-46 191 LINE",
"-101 -66 LINE",
"232 -4 LINE SMOOTH",
"735 90 OFFCURVE",
"888 376 OFFCURVE",
"970 694 CURVE SMOOTH",
"1125 1290 LINE"
);
}
);
width = 1041;
}
);
unicode = 05E2;
},
{
glyphname = "finalpe-hb";
lastChange = "2013-03-13 10:29:38 +0200";
layers = (
{
anchors = (
{
name = bottom;
position = "{137, 380}";
},
{
name = bottomleft;
position = "{-116, 0}";
},
{
name = center;
position = "{504, 780}";
},
{
name = top;
position = "{612, 1118}";
},
{
name = topleft;
position = "{221, 1118}";
}
);
layerId = UUID0;
name = "Bold Italic";
paths = (
{
closed = 1;
nodes = (
"373 1310 OFFCURVE",
"126 1137 OFFCURVE",
"59 822 CURVE SMOOTH",
"-4 524 OFFCURVE",
"184 434 OFFCURVE",
"337 419 CURVE SMOOTH",
"383 414 LINE",
"478 657 LINE",
"450 663 LINE SMOOTH",
"400 672 OFFCURVE",
"371 731 OFFCURVE",
"398 856 CURVE SMOOTH",
"404 886 OFFCURVE",
"453 1057 OFFCURVE",
"547 1057 CURVE SMOOTH",
"610 1057 OFFCURVE",
"648 977 OFFCURVE",
"578 646 CURVE SMOOTH",
"339 -478 LINE",
"682 -478 LINE",
"921 646 LINE SMOOTH",
"1045 1230 OFFCURVE",
"749 1310 OFFCURVE",
"601 1310 CURVE SMOOTH"
);
}
);
width = 1006;
}
);
unicode = 05E3;
},
{
glyphname = "pe-hb";
lastChange = "2013-03-13 10:29:38 +0200";
layers = (
{
anchors = (
{
name = bottom;
position = "{377, 0}";
},
{
name = bottomleft;
position = "{-117, 0}";
},
{
name = center;
position = "{534, 780}";
},
{
name = top;
position = "{615, 1118}";
},
{
name = topleft;
position = "{268, 1118}";
}
);
layerId = UUID0;
name = "Bold Italic";
paths = (
{
closed = 1;
nodes = (
"415 1310 OFFCURVE",
"169 1137 OFFCURVE",
"102 822 CURVE SMOOTH",
"38 524 OFFCURVE",
"226 434 OFFCURVE",
"379 419 CURVE SMOOTH",
"425 414 LINE",
"521 657 LINE",
"492 663 LINE SMOOTH",
"443 672 OFFCURVE",
"413 731 OFFCURVE",
"440 856 CURVE SMOOTH",
"446 886 OFFCURVE",
"496 1057 OFFCURVE",
"590 1057 CURVE SMOOTH",
"653 1057 OFFCURVE",
"689 977 OFFCURVE",
"618 646 CURVE SMOOTH",
"557 360 OFFCURVE",
"493 233 OFFCURVE",
"414 233 CURVE SMOOTH",
"237 233 OFFCURVE",
"79 263 OFFCURVE",
"79 263 CURVE",
"26 15 LINE",
"26 15 OFFCURVE",
"144 -20 OFFCURVE",
"361 -20 CURVE SMOOTH",
"508 -21 OFFCURVE",
"839 63 OFFCURVE",
"963 646 CURVE SMOOTH",
"1087 1230 OFFCURVE",
"791 1310 OFFCURVE",
"643 1310 CURVE SMOOTH"
);
}
);
width = 1027;
}
);
unicode = 05E4;
},
{
glyphname = "finaltsadi-hb";
lastChange = "2013-03-13 10:29:38 +0200";
layers = (
{
anchors = (
{
name = bottom;
position = "{-243, 387}";
},
{
name = bottomleft;
position = "{-112, 0}";
},
{
name = center;
position = "{483, 559}";
},
{
name = top;
position = "{601, 1118}";
},
{
name = topleft;
position = "{177, 1118}";
}
);
layerId = UUID0;
name = "Bold Italic";
paths = (
{
closed = 1;
nodes = (
"727 1290 LINE",
"629 828 LINE SMOOTH",
"607 724 OFFCURVE",
"562 636 OFFCURVE",
"501 630 CURVE",
"504 662 LINE",
"514 1290 LINE",
"142 1290 LINE",
"154 1061 OFFCURVE",
"167 804 OFFCURVE",
"179 575 CURVE",
"-45 -478 LINE",
"298 -478 LINE",
"488 417 LINE",
"811 428 OFFCURVE",
"933 639 OFFCURVE",
"973 828 CURVE SMOOTH",
"1071 1290 LINE"
);
}
);
width = 992;
}
);
unicode = 05E5;
},
{
glyphname = "tsadi-hb";
lastChange = "2013-03-13 10:29:38 +0200";
layers = (
{
anchors = (
{
name = bottom;
position = "{371, 0}";
},
{
name = bottomleft;
position = "{-117, 0}";
},
{
name = center;
position = "{105, 446}";
},
{
name = top;
position = "{609, 1118}";
},
{
name = topleft;
position = "{201, 1118}";
}
);
layerId = UUID0;
name = "Bold Italic";
paths = (
{
closed = 1;
nodes = (
"160 1290 LINE",
"355 458 LINE",
"389 385 OFFCURVE",
"425 312 OFFCURVE",
"458 237 CURVE",
"337 251 LINE",
"-42 251 LINE",
"-95 0 LINE",
"797 0 LINE",
"834 176 LINE",
"689 492 LINE",
"921 671 OFFCURVE",
"1024 927 OFFCURVE",
"1056 1035 CURVE SMOOTH",
"1132 1289 LINE",
"792 1289 LINE",
"700 976 LINE SMOOTH",
"677 895 OFFCURVE",
"638 825 OFFCURVE",
"610 781 CURVE",
"516 1290 LINE"
);
}
);
width = 1016;
}
);
unicode = 05E6;
},
{
glyphname = "qof-hb";
lastChange = "2013-03-13 10:29:38 +0200";
layers = (
{
anchors = (
{
name = bottom;
position = "{750, 0}";
},
{
name = bottomleft;
position = "{-117, 0}";
},
{
name = center;
position = "{523, 747}";
},
{
name = top;
position = "{610, 1118}";
},
{
name = topleft;
position = "{260, 1118}";
}
);
layerId = UUID0;
name = "Bold Italic";
paths = (
{
closed = 1;
nodes = (
"228 1290 LINE",
"175 1039 LINE",
"714 1039 LINE",
"514 511 LINE SMOOTH",
"460 357 OFFCURVE",
"405 166 OFFCURVE",
"377 35 CURVE SMOOTH",
"370 0 LINE",
"712 0 LINE",
"719 35 LINE SMOOTH",
"745 155 OFFCURVE",
"796 321 OFFCURVE",
"866 510 CURVE SMOOTH",
"1098 1106 LINE",
"1137 1290 LINE"
);
},
{
closed = 1;
nodes = (
"121 787 LINE",
"-148 -479 LINE",
"195 -479 LINE",
"464 787 LINE"
);
}
);
width = 1019;
}
);
unicode = 05E7;
},
{
glyphname = "resh-hb";
lastChange = "2013-03-13 10:29:38 +0200";
layers = (
{
anchors = (
{
name = bottom;
position = "{480, 0}";
},
{
name = bottomleft;
position = "{-120, 0}";
},
{
name = center;
position = "{219, 559}";
},
{
name = top;
position = "{530, 1118}";
},
{
name = topleft;
position = "{218, 1118}";
}
);
layerId = UUID0;
name = "Bold Italic";
paths = (
{
closed = 1;
nodes = (
"352 1314 OFFCURVE",
"309 1310 OFFCURVE",
"171 1296 CURVE",
"118 1049 LINE",
"118 1049 OFFCURVE",
"252 1061 OFFCURVE",
"357 1061 CURVE SMOOTH",
"476 1061 OFFCURVE",
"505 997 OFFCURVE",
"476 858 CURVE SMOOTH",
"293 0 LINE",
"637 0 LINE",
"820 857 LINE SMOOTH",
"882 1153 OFFCURVE",
"854 1314 OFFCURVE",
"470 1314 CURVE SMOOTH"
);
}
);
width = 863;
}
);
unicode = 05E8;
},
{
glyphname = "shin-hb";
lastChange = "2013-03-13 10:29:38 +0200";
layers = (
{
anchors = (
{
name = bottom;
position = "{436, 0}";
},
{
name = bottomleft;
position = "{-117, 0}";
},
{
name = center;
position = "{564, 285}";
},
{
name = top;
position = "{742, 1118}";
},
{
name = topleft;
position = "{201, 1118}";
},
{
name = topright;
position = "{1261, 1118}";
}
);
layerId = UUID0;
name = "Bold Italic";
paths = (
{
closed = 1;
nodes = (
"1054 1290 LINE",
"874 628 LINE SMOOTH",
"822 435 OFFCURVE",
"665 251 OFFCURVE",
"386 251 CURVE SMOOTH",
"343 251 LINE",
"366 426 LINE",
"655 452 OFFCURVE",
"763 598 OFFCURVE",
"815 775 CURVE",
"946 1290 LINE",
"615 1290 LINE",
"485 775 LINE",
"455 673 OFFCURVE",
"429 663 OFFCURVE",
"395 641 CURVE",
"501 1290 LINE",
"160 1290 LINE",
"-31 0 LINE",
"333 0 LINE SMOOTH",
"982 0 OFFCURVE",
"1162 436 OFFCURVE",
"1206 608 CURVE SMOOTH",
"1384 1290 LINE"
);
}
);
width = 1282;
}
);
unicode = 05E9;
},
{
glyphname = "tav-hb";
lastChange = "2013-03-13 10:29:38 +0200";
layers = (
{
anchors = (
{
name = bottom;
position = "{415, 0}";
},
{
name = bottomleft;
position = "{-117, 0}";
},
{
name = center;
position = "{577, 559}";
},
{
name = top;
position = "{652, 1118}";
},
{
name = topleft;
position = "{240, 1118}";
}
);
layerId = UUID0;
name = "Bold Italic";
paths = (
{
closed = 1;
nodes = (
"435 1310 OFFCURVE",
"210 1254 OFFCURVE",
"210 1254 CURVE",
"157 1005 LINE",
"254 1023 LINE",
"117 375 LINE SMOOTH",
"103 311 OFFCURVE",
"88 240 OFFCURVE",
"31 240 CURVE SMOOTH",
"9 240 OFFCURVE",
"-55 257 OFFCURVE",
"-55 257 CURVE",
"-105 20 LINE",
"-105 20 OFFCURVE",
"-32 -19 OFFCURVE",
"49 -19 CURVE SMOOTH",
"365 -19 OFFCURVE",
"412 143 OFFCURVE",
"462 375 CURVE SMOOTH",
"606 1057 LINE",
"618 1057 LINE SMOOTH",
"726 1057 OFFCURVE",
"749 1009 OFFCURVE",
"716 854 CURVE SMOOTH",
"535 0 LINE",
"880 0 LINE",
"1061 853 LINE SMOOTH",
"1124 1149 OFFCURVE",
"1096 1310 OFFCURVE",
"710 1310 CURVE SMOOTH"
);
}
);
width = 1103;
}
);
unicode = 05EA;
},
{
glyphname = zero;
lastChange = "2013-03-13 10:29:38 +0200";
layers = (
{
layerId = UUID0;
name = "Bold Italic";
paths = (
{
closed = 1;
nodes = (
"284 1484 OFFCURVE",
"152 1148 OFFCURVE",
"64 732 CURVE SMOOTH",
"-24 316 OFFCURVE",
"-36 -20 OFFCURVE",
"336 -20 CURVE SMOOTH",
"708 -20 OFFCURVE",
"840 316 OFFCURVE",
"928 732 CURVE SMOOTH",
"1016 1148 OFFCURVE",
"1028 1484 OFFCURVE",
"656 1484 CURVE SMOOTH"
);
},
{
closed = 1;
nodes = (
"667 1216 OFFCURVE",
"634 992 OFFCURVE",
"579 732 CURVE SMOOTH",
"524 472 OFFCURVE",
"461 248 OFFCURVE",
"393 248 CURVE SMOOTH",
"325 248 OFFCURVE",
"358 472 OFFCURVE",
"413 732 CURVE SMOOTH",
"468 992 OFFCURVE",
"531 1216 OFFCURVE",
"599 1216 CURVE SMOOTH"
);
}
);
width = 991;
}
);
unicode = 0030;
},
{
glyphname = one;
lastChange = "2013-03-13 10:29:38 +0200";
layers = (
{
layerId = UUID0;
name = "Bold Italic";
paths = (
{
closed = 1;
nodes = (
"600 1462 LINE",
"123 1091 LINE",
"269 882 LINE",
"345 947 OFFCURVE",
"483 1064 OFFCURVE",
"483 1064 CURVE",
"427 854 LINE",
"246 0 LINE",
"591 0 LINE",
"901 1462 LINE"
);
}
);
width = 991;
}
);
unicode = 0031;
},
{
glyphname = two;
lastChange = "2013-03-13 10:29:38 +0200";
layers = (
{
layerId = UUID0;
name = "Bold Italic";
paths = (
{
closed = 1;
nodes = (
"471 1482 OFFCURVE",
"332 1399 OFFCURVE",
"175 1260 CURVE",
"325 1056 LINE",
"380 1105 OFFCURVE",
"480 1209 OFFCURVE",
"561 1209 CURVE SMOOTH",
"614 1209 OFFCURVE",
"640 1161 OFFCURVE",
"620 1067 CURVE SMOOTH",
"583 890 OFFCURVE",
"451 744 OFFCURVE",
"307 588 CURVE SMOOTH",
"-31 220 LINE",
"-78 0 LINE",
"768 0 LINE",
"828 278 LINE",
"376 278 LINE",
"554 456 OFFCURVE",
"656 563 OFFCURVE",
"702 615 CURVE SMOOTH",
"824 753 OFFCURVE",
"930 902 OFFCURVE",
"968 1080 CURVE SMOOTH",
"1019 1322 OFFCURVE",
"919 1482 OFFCURVE",
"647 1482 CURVE SMOOTH"
);
}
);
width = 991;
}
);
unicode = 0032;
},
{
glyphname = three;
lastChange = "2013-03-13 10:29:38 +0200";
layers = (
{
layerId = UUID0;
name = "Bold Italic";
paths = (
{
closed = 1;
nodes = (
"378 1482 OFFCURVE",
"192 1319 OFFCURVE",
"192 1319 CURVE",
"285 1121 LINE",
"285 1121 OFFCURVE",
"415 1214 OFFCURVE",
"547 1214 CURVE SMOOTH",
"616 1214 OFFCURVE",
"644 1163 OFFCURVE",
"623 1065 CURVE SMOOTH",
"595 936 OFFCURVE",
"512 870 OFFCURVE",
"385 870 CURVE SMOOTH",
"320 870 LINE",
"269 630 LINE",
"337 630 LINE SMOOTH",
"483 630 OFFCURVE",
"543 566 OFFCURVE",
"516 439 CURVE SMOOTH",
"487 303 OFFCURVE",
"412 244 OFFCURVE",
"289 244 CURVE SMOOTH",
"126 244 OFFCURVE",
"-15 341 OFFCURVE",
"-15 341 CURVE",
"-77 51 LINE",
"18 -4 OFFCURVE",
"133 -19 OFFCURVE",
"267 -19 CURVE SMOOTH",
"556 -19 OFFCURVE",
"800 144 OFFCURVE",
"861 431 CURVE SMOOTH",
"899 611 OFFCURVE",
"833 726 OFFCURVE",
"679 771 CURVE",
"837 833 OFFCURVE",
"945 955 OFFCURVE",
"980 1121 CURVE SMOOTH",
"1031 1360 OFFCURVE",
"864 1482 OFFCURVE",
"633 1482 CURVE SMOOTH"
);
}
);
width = 991;
}
);
unicode = 0033;
},
{
glyphname = four;
lastChange = "2013-03-13 10:29:38 +0200";
layers = (
{
layerId = UUID0;
name = "Bold Italic";
paths = (
{
closed = 1;
nodes = (
"619 1462 LINE",
"-17 535 LINE",
"-67 298 LINE",
"396 298 LINE",
"333 0 LINE",
"667 0 LINE",
"730 298 LINE",
"874 298 LINE",
"929 559 LINE",
"785 559 LINE",
"977 1462 LINE"
);
},
{
closed = 1;
nodes = (
"511 837 LINE",
"451 559 LINE",
"269 559 LINE",
"541 950 LINE"
);
}
);
width = 991;
}
);
unicode = 0034;
},
{
glyphname = five;
lastChange = "2013-03-13 10:29:38 +0200";
layers = (
{
layerId = UUID0;
name = "Bold Italic";
paths = (
{
closed = 1;
nodes = (
"303 1462 LINE",
"102 724 LINE",
"201 638 LINE",
"281 663 OFFCURVE",
"343 676 OFFCURVE",
"390 676 CURVE SMOOTH",
"497 676 OFFCURVE",
"536 607 OFFCURVE",
"507 471 CURVE SMOOTH",
"475 323 OFFCURVE",
"405 249 OFFCURVE",
"294 249 CURVE SMOOTH",
"125 249 OFFCURVE",
"0 351 OFFCURVE",
"0 351 CURVE",
"-60 67 LINE",
"21 9 OFFCURVE",
"129 -19 OFFCURVE",
"266 -19 CURVE SMOOTH",
"571 -19 OFFCURVE",
"796 176 OFFCURVE",
"863 492 CURVE SMOOTH",
"913 728 OFFCURVE",
"827 931 OFFCURVE",
"564 931 CURVE SMOOTH",
"535 931 OFFCURVE",
"507 930 OFFCURVE",
"483 928 CURVE",
"553 1183 LINE",
"934 1183 LINE",
"993 1462 LINE"
);
}
);
width = 991;
}
);
unicode = 0035;
},
{
glyphname = six;
lastChange = "2013-03-13 10:29:38 +0200";
layers = (
{
layerId = UUID0;
name = "Bold Italic";
paths = (
{
closed = 1;
nodes = (
"327 1480 OFFCURVE",
"141 1090 OFFCURVE",
"42 624 CURVE SMOOTH",
"-48 199 OFFCURVE",
"55 -19 OFFCURVE",
"336 -19 CURVE SMOOTH",
"626 -19 OFFCURVE",
"816 208 OFFCURVE",
"876 490 CURVE SMOOTH",
"940 791 OFFCURVE",
"849 959 OFFCURVE",
"631 959 CURVE SMOOTH",
"557 959 OFFCURVE",
"488 938 OFFCURVE",
"429 897 CURVE",
"449 954 OFFCURVE",
"470 1002 OFFCURVE",
"491 1038 CURVE SMOOTH",
"560 1153 OFFCURVE",
"658 1218 OFFCURVE",
"780 1218 CURVE SMOOTH",
"819 1218 OFFCURVE",
"875 1210 OFFCURVE",
"948 1191 CURVE",
"1004 1454 LINE",
"960 1467 OFFCURVE",
"874 1480 OFFCURVE",
"813 1480 CURVE SMOOTH"
);
},
{
closed = 1;
nodes = (
"549 704 OFFCURVE",
"560 621 OFFCURVE",
"531 488 CURVE SMOOTH",
"496 321 OFFCURVE",
"446 246 OFFCURVE",
"394 246 CURVE SMOOTH",
"341 246 OFFCURVE",
"324 313 OFFCURVE",
"361 488 CURVE SMOOTH",
"388 614 OFFCURVE",
"427 704 OFFCURVE",
"493 704 CURVE SMOOTH"
);
}
);
width = 991;
}
);
unicode = 0036;
},
{
glyphname = seven;
lastChange = "2013-03-13 10:29:38 +0200";
layers = (
{
layerId = UUID0;
name = "Bold Italic";
paths = (
{
closed = 1;
nodes = (
"228 1460 LINE",
"169 1183 LINE",
"656 1183 LINE",
"7 0 LINE",
"366 0 LINE",
"1031 1259 LINE",
"1074 1460 LINE"
);
}
);
width = 991;
}
);
unicode = 0037;
},
{
glyphname = eight;
lastChange = "2013-03-13 10:29:38 +0200";
layers = (
{
layerId = UUID0;
name = "Bold Italic";
paths = (
{
closed = 1;
nodes = (
"443 1480 OFFCURVE",
"215 1335 OFFCURVE",
"165 1099 CURVE SMOOTH",
"134 952 OFFCURVE",
"184 858 OFFCURVE",
"277 762 CURVE",
"121 664 OFFCURVE",
"20 535 OFFCURVE",
"-12 382 CURVE SMOOTH",
"-66 127 OFFCURVE",
"80 -19 OFFCURVE",
"337 -19 CURVE SMOOTH",
"576 -19 OFFCURVE",
"800 122 OFFCURVE",
"855 382 CURVE SMOOTH",
"885 525 OFFCURVE",
"850 652 OFFCURVE",
"715 773 CURVE",
"879 875 OFFCURVE",
"954 970 OFFCURVE",
"981 1099 CURVE SMOOTH",
"1030 1329 OFFCURVE",
"886 1480 OFFCURVE",
"655 1480 CURVE SMOOTH"
);
},
{
closed = 1;
nodes = (
"505 551 OFFCURVE",
"543 498 OFFCURVE",
"518 382 CURVE SMOOTH",
"496 281 OFFCURVE",
"453 230 OFFCURVE",
"386 230 CURVE SMOOTH",
"325 230 OFFCURVE",
"302 281 OFFCURVE",
"324 382 CURVE SMOOTH",
"345 480 OFFCURVE",
"389 557 OFFCURVE",
"455 609 CURVE"
);
},
{
closed = 1;
nodes = (
"649 1233 OFFCURVE",
"662 1188 OFFCURVE",
"643 1099 CURVE SMOOTH",
"628 1027 OFFCURVE",
"601 976 OFFCURVE",
"539 926 CURVE",
"500 972 OFFCURVE",
"489 1030 OFFCURVE",
"503 1099 CURVE SMOOTH",
"522 1185 OFFCURVE",
"555 1233 OFFCURVE",
"601 1233 CURVE SMOOTH"
);
}
);
width = 991;
}
);
unicode = 0038;
},
{
glyphname = nine;
lastChange = "2013-03-13 10:29:38 +0200";
layers = (
{
layerId = UUID0;
name = "Bold Italic";
paths = (
{
closed = 1;
nodes = (
"366 1480 OFFCURVE",
"176 1253 OFFCURVE",
"116 971 CURVE SMOOTH",
"52 670 OFFCURVE",
"143 502 OFFCURVE",
"361 502 CURVE SMOOTH",
"435 502 OFFCURVE",
"504 523 OFFCURVE",
"563 564 CURVE",
"543 507 OFFCURVE",
"522 459 OFFCURVE",
"501 423 CURVE SMOOTH",
"432 308 OFFCURVE",
"334 243 OFFCURVE",
"212 243 CURVE SMOOTH",
"173 243 OFFCURVE",
"117 251 OFFCURVE",
"44 270 CURVE",
"-12 7 LINE",
"32 -6 OFFCURVE",
"118 -19 OFFCURVE",
"179 -19 CURVE SMOOTH",
"665 -19 OFFCURVE",
"851 371 OFFCURVE",
"950 837 CURVE SMOOTH",
"1040 1262 OFFCURVE",
"937 1480 OFFCURVE",
"656 1480 CURVE SMOOTH"
);
},
{
closed = 1;
nodes = (
"651 1215 OFFCURVE",
"668 1148 OFFCURVE",
"631 973 CURVE SMOOTH",
"604 847 OFFCURVE",
"565 757 OFFCURVE",
"499 757 CURVE SMOOTH",
"443 757 OFFCURVE",
"432 840 OFFCURVE",
"461 973 CURVE SMOOTH",
"496 1140 OFFCURVE",
"546 1215 OFFCURVE",
"598 1215 CURVE SMOOTH"
);
}
);
width = 991;
}
);
unicode = 0039;
},
{
glyphname = fraction;
lastChange = "2013-03-13 10:29:38 +0200";
layers = (
{
layerId = UUID0;
name = "Bold Italic";
paths = (
{
closed = 1;
nodes = (
"473 1462 LINE",
"-579 0 LINE",
"-297 0 LINE",
"756 1462 LINE"
);
}
);
width = 181;
}
);
unicode = 2044;
},
{
glyphname = onehalf;
lastChange = "2013-03-13 10:29:38 +0200";
layers = (
{
layerId = UUID0;
name = "Bold Italic";
paths = (
{
closed = 1;
nodes = (
"1124 1462 LINE",
"71 0 LINE",
"353 0 LINE",
"1407 1462 LINE"
);
},
{
closed = 1;
nodes = (
"448 1462 LINE",
"138 1222 LINE",
"217 1059 LINE",
"339 1158 LINE",
"308 1038 LINE",
"208 569 LINE",
"457 569 LINE",
"647 1462 LINE"
);
},
{
closed = 1;
nodes = (
"1146 897 OFFCURVE",
"1039 850 OFFCURVE",
"932 754 CURVE",
"1010 581 LINE",
"1099 655 OFFCURVE",
"1160 682 OFFCURVE",
"1189 682 CURVE SMOOTH",
"1210 682 OFFCURVE",
"1246 673 OFFCURVE",
"1238 632 CURVE SMOOTH",
"1224 567 OFFCURVE",
"1106 450 OFFCURVE",
"1042 388 CURVE SMOOTH",
"812 161 LINE",
"774 -16 LINE",
"1348 -16 LINE",
"1395 207 LINE",
"1114 207 LINE",
"1202 287 LINE SMOOTH",
"1315 389 OFFCURVE",
"1433 489 OFFCURVE",
"1464 633 CURVE SMOOTH",
"1499 797 OFFCURVE",
"1421 897 OFFCURVE",
"1255 897 CURVE SMOOTH"
);
}
);
width = 1577;
}
);
unicode = 00BD;
},
{
glyphname = onequarter;
lastChange = "2013-03-13 10:29:38 +0200";
layers = (
{
layerId = UUID0;
name = "Bold Italic";
paths = (
{
closed = 1;
nodes = (
"1112 1462 LINE",
"61 0 LINE",
"343 0 LINE",
"1396 1462 LINE"
);
},
{
closed = 1;
nodes = (
"430 1462 LINE",
"120 1222 LINE",
"200 1059 LINE",
"322 1158 LINE",
"290 1038 LINE",
"191 569 LINE",
"440 569 LINE",
"629 1462 LINE"
);
},
{
closed = 1;
nodes = (
"1020 353 LINE",
"927 353 LINE",
"1055 520 LINE"
);
},
{
closed = 1;
nodes = (
"1150 900 LINE",
"711 319 LINE",
"677 155 LINE",
"978 155 LINE",
"945 1 LINE",
"1194 1 LINE",
"1227 155 LINE",
"1324 155 LINE",
"1366 353 LINE",
"1269 353 LINE",
"1385 900 LINE"
);
}
);
width = 1577;
}
);
unicode = 00BC;
},
{
glyphname = threequarters;
lastChange = "2013-03-13 10:29:38 +0200";
layers = (
{
layerId = UUID0;
name = "Bold Italic";
paths = (
{
closed = 1;
nodes = (
"1144 1462 LINE",
"93 0 LINE",
"375 0 LINE",
"1428 1462 LINE"
);
},
{
closed = 1;
nodes = (
"376 1480 OFFCURVE",
"285 1448 OFFCURVE",
"168 1357 CURVE",
"222 1215 LINE",
"338 1284 OFFCURVE",
"385 1280 OFFCURVE",
"406 1280 CURVE SMOOTH",
"436 1280 OFFCURVE",
"454 1253 OFFCURVE",
"445 1211 CURVE SMOOTH",
"431 1146 OFFCURVE",
"389 1095 OFFCURVE",
"329 1095 CURVE SMOOTH",
"253 1095 LINE",
"222 948 LINE",
"311 948 LINE SMOOTH",
"376 948 OFFCURVE",
"397 901 OFFCURVE",
"385 843 CURVE SMOOTH",
"372 781 OFFCURVE",
"339 750 OFFCURVE",
"285 750 CURVE SMOOTH",
"242 750 OFFCURVE",
"146 756 OFFCURVE",
"63 830 CURVE",
"19 622 LINE",
"75 576 OFFCURVE",
"154 552 OFFCURVE",
"256 552 CURVE SMOOTH",
"456 552 OFFCURVE",
"586 658 OFFCURVE",
"622 828 CURVE SMOOTH",
"641 918 OFFCURVE",
"612 997 OFFCURVE",
"523 1037 CURVE",
"613 1080 OFFCURVE",
"665 1146 OFFCURVE",
"684 1236 CURVE SMOOTH",
"719 1401 OFFCURVE",
"598 1480 OFFCURVE",
"476 1480 CURVE SMOOTH"
);
},
{
closed = 1;
nodes = (
"1018 353 LINE",
"925 353 LINE",
"1053 520 LINE"
);
},
{
closed = 1;
nodes = (
"1148 900 LINE",
"710 319 LINE",
"675 155 LINE",
"976 155 LINE",
"943 1 LINE",
"1192 1 LINE",
"1225 155 LINE",
"1322 155 LINE",
"1364 353 LINE",
"1267 353 LINE",
"1383 900 LINE"
);
}
);
width = 1577;
}
);
unicode = 00BE;
},
{
glyphname = onesuperior;
lastChange = "2013-03-13 10:29:38 +0200";
layers = (
{
layerId = UUID0;
name = "Bold Italic";
paths = (
{
closed = 1;
nodes = (
"393 1462 LINE",
"83 1222 LINE",
"162 1059 LINE",
"284 1158 LINE",
"253 1038 LINE",
"153 569 LINE",
"402 569 LINE",
"592 1462 LINE"
);
}
);
width = 668;
}
);
unicode = 00B9;
},
{
glyphname = twosuperior;
lastChange = "2013-03-13 10:29:38 +0200";
layers = (
{
layerId = UUID0;
name = "Bold Italic";
paths = (
{
closed = 1;
nodes = (
"311 1482 OFFCURVE",
"204 1435 OFFCURVE",
"97 1339 CURVE",
"175 1166 LINE",
"264 1240 OFFCURVE",
"325 1267 OFFCURVE",
"354 1267 CURVE SMOOTH",
"375 1267 OFFCURVE",
"411 1258 OFFCURVE",
"403 1217 CURVE SMOOTH",
"389 1152 OFFCURVE",
"271 1035 OFFCURVE",
"207 973 CURVE SMOOTH",
"-23 746 LINE",
"-61 569 LINE",
"513 569 LINE",
"560 792 LINE",
"279 792 LINE",
"367 872 LINE SMOOTH",
"480 974 OFFCURVE",
"598 1074 OFFCURVE",
"629 1218 CURVE SMOOTH",
"664 1382 OFFCURVE",
"586 1482 OFFCURVE",
"420 1482 CURVE SMOOTH"
);
}
);
width = 668;
}
);
unicode = 00B2;
},
{
glyphname = threesuperior;
lastChange = "2013-03-13 10:29:38 +0200";
layers = (
{
layerId = UUID0;
name = "Bold Italic";
paths = (
{
closed = 1;
nodes = (
"318 1480 OFFCURVE",
"227 1448 OFFCURVE",
"109 1357 CURVE",
"163 1215 LINE",
"279 1284 OFFCURVE",
"326 1280 OFFCURVE",
"347 1280 CURVE SMOOTH",
"377 1280 OFFCURVE",
"395 1253 OFFCURVE",
"386 1211 CURVE SMOOTH",
"373 1146 OFFCURVE",
"331 1095 OFFCURVE",
"271 1095 CURVE SMOOTH",
"195 1095 LINE",
"164 948 LINE",
"253 948 LINE SMOOTH",
"318 948 OFFCURVE",
"339 901 OFFCURVE",
"326 843 CURVE SMOOTH",
"313 781 OFFCURVE",
"280 750 OFFCURVE",
"226 750 CURVE SMOOTH",
"183 750 OFFCURVE",
"88 756 OFFCURVE",
"4 830 CURVE",
"-40 622 LINE",
"16 576 OFFCURVE",
"95 552 OFFCURVE",
"197 552 CURVE SMOOTH",
"397 552 OFFCURVE",
"527 658 OFFCURVE",
"563 828 CURVE SMOOTH",
"582 918 OFFCURVE",
"553 997 OFFCURVE",
"464 1037 CURVE",
"555 1080 OFFCURVE",
"607 1146 OFFCURVE",
"626 1236 CURVE SMOOTH",
"661 1401 OFFCURVE",
"540 1480 OFFCURVE",
"418 1480 CURVE SMOOTH"
);
}
);
width = 668;
}
);
unicode = 00B3;
},
{
glyphname = asterisk;
lastChange = "2013-03-13 10:29:38 +0200";
layers = (
{
layerId = UUID0;
name = "Bold Italic";
paths = (
{
closed = 1;
nodes = (
"450 1556 LINE",
"419 1250 LINE",
"135 1338 LINE",
"43 1085 LINE",
"310 1064 LINE",
"80 822 LINE",
"291 704 LINE",
"450 948 LINE",
"521 702 LINE",
"773 822 LINE",
"644 1064 LINE",
"921 1082 LINE",
"943 1338 LINE",
"616 1250 LINE",
"714 1556 LINE"
);
}
);
width = 981;
}
);
unicode = 002A;
},
{
glyphname = backslash;
lastChange = "2013-03-13 10:29:38 +0200";
layers = (
{
layerId = UUID0;
name = "Bold Italic";
paths = (
{
closed = 1;
nodes = (
"114 1462 LINE",
"349 0 LINE",
"685 0 LINE",
"450 1462 LINE"
);
}
);
width = 809;
}
);
unicode = 005C;
},
{
glyphname = bullet;
lastChange = "2013-03-13 10:29:38 +0200";
layers = (
{
layerId = UUID0;
name = "Bold Italic";
paths = (
{
closed = 1;
nodes = (
"227 1067 OFFCURVE",
"92 952 OFFCURVE",
"48 748 CURVE SMOOTH",
"5 545 OFFCURVE",
"92 427 OFFCURVE",
"292 427 CURVE SMOOTH",
"487 427 OFFCURVE",
"627 547 OFFCURVE",
"670 748 CURVE SMOOTH",
"713 950 OFFCURVE",
"626 1067 OFFCURVE",
"428 1067 CURVE SMOOTH"
);
}
);
width = 730;
}
);
unicode = 2022;
},
{
glyphname = colon;
lastChange = "2013-03-13 10:34:53 +0200";
layers = (
{
layerId = UUID0;
name = "Bold Italic";
paths = (
{
closed = 1;
nodes = (
"228 1146 OFFCURVE",
"164 1080 OFFCURVE",
"139 965 CURVE SMOOTH",
"115 852 OFFCURVE",
"152 785 OFFCURVE",
"285 785 CURVE SMOOTH",
"414 785 OFFCURVE",
"484 851 OFFCURVE",
"508 965 CURVE SMOOTH",
"533 1081 OFFCURVE",
"496 1146 OFFCURVE",
"362 1146 CURVE SMOOTH"
);
},
{
closed = 1;
nodes = (
"55 335 OFFCURVE",
"-9 269 OFFCURVE",
"-33 154 CURVE SMOOTH",
"-57 41 OFFCURVE",
"-21 -26 OFFCURVE",
"112 -26 CURVE SMOOTH",
"241 -26 OFFCURVE",
"311 40 OFFCURVE",
"336 154 CURVE SMOOTH",
"360 270 OFFCURVE",
"323 335 OFFCURVE",
"189 335 CURVE SMOOTH"
);
}
);
width = 521;
}
);
unicode = 003A;
},
{
glyphname = comma;
lastChange = "2013-03-13 10:34:41 +0200";
layers = (
{
layerId = UUID0;
name = "Bold Italic";
paths = (
{
closed = 1;
nodes = (
"62 274 LINE",
"5 116 OFFCURVE",
"-69 -61 OFFCURVE",
"-158 -256 CURVE",
"121 -256 LINE",
"249 -62 OFFCURVE",
"343 99 OFFCURVE",
"405 230 CURVE",
"387 274 LINE"
);
}
);
width = 618;
}
);
unicode = 002C;
},
{
glyphname = ellipsis;
lastChange = "2013-03-13 10:29:38 +0200";
layers = (
{
layerId = UUID0;
name = "Bold Italic";
paths = (
{
closed = 1;
nodes = (
"1298 301 OFFCURVE",
"1229 241 OFFCURVE",
"1207 137 CURVE SMOOTH",
"1185 34 OFFCURVE",
"1229 -27 OFFCURVE",
"1337 -27 CURVE SMOOTH",
"1442 -27 OFFCURVE",
"1516 33 OFFCURVE",
"1538 137 CURVE SMOOTH",
"1560 242 OFFCURVE",
"1516 301 OFFCURVE",
"1407 301 CURVE SMOOTH"
);
},
{
closed = 1;
nodes = (
"192 301 OFFCURVE",
"123 241 OFFCURVE",
"101 137 CURVE SMOOTH",
"79 34 OFFCURVE",
"123 -27 OFFCURVE",
"231 -27 CURVE SMOOTH",
"336 -27 OFFCURVE",
"410 33 OFFCURVE",
"432 137 CURVE SMOOTH",
"454 242 OFFCURVE",
"410 301 OFFCURVE",
"301 301 CURVE SMOOTH"
);
},
{
closed = 1;
nodes = (
"745 301 OFFCURVE",
"676 241 OFFCURVE",
"654 137 CURVE SMOOTH",
"632 34 OFFCURVE",
"676 -27 OFFCURVE",
"784 -27 CURVE SMOOTH",
"889 -27 OFFCURVE",
"963 33 OFFCURVE",
"984.999 137 CURVE SMOOTH",
"1007 242 OFFCURVE",
"963 301 OFFCURVE",
"854 301 CURVE SMOOTH"
);
}
);
width = 1639;
}
);
unicode = 2026;
},
{
glyphname = exclam;
lastChange = "2013-03-13 10:29:38 +0200";
layers = (
{
layerId = UUID0;
name = "Bold Italic";
paths = (
{
closed = 1;
nodes = (
"237 1462 LINE",
"73 457 LINE",
"369 457 LINE",
"634 1462 LINE"
);
},
{
closed = 1;
nodes = (
"60 335 OFFCURVE",
"-23 269 OFFCURVE",
"-48 154 CURVE SMOOTH",
"-72 41 OFFCURVE",
"-16 -26 OFFCURVE",
"117 -26 CURVE SMOOTH",
"246 -26 OFFCURVE",
"335 40 OFFCURVE",
"359 154 CURVE SMOOTH",
"384 270 OFFCURVE",
"328 335 OFFCURVE",
"194 335 CURVE SMOOTH"
);
}
);
width = 549;
}
);
unicode = 0021;
},
{
glyphname = exclamdown;
lastChange = "2013-03-13 10:29:38 +0200";
layers = (
{
layerId = UUID0;
name = "Bold Italic";
paths = (
{
closed = 1;
nodes = (
"166 646 LINE",
"-98 -358 LINE",
"303 -358 LINE",
"465 646 LINE"
);
},
{
closed = 1;
nodes = (
"294 1128 OFFCURVE",
"203 1062 OFFCURVE",
"178 947 CURVE SMOOTH",
"154 832 OFFCURVE",
"213 768 OFFCURVE",
"341 768 CURVE SMOOTH",
"475 768 OFFCURVE",
"561 832 OFFCURVE",
"585 947 CURVE SMOOTH",
"610 1061 OFFCURVE",
"552 1128 OFFCURVE",
"418 1128 CURVE SMOOTH"
);
}
);
width = 535;
}
);
unicode = 00A1;
},
{
glyphname = numbersign;
lastChange = "2013-03-13 10:29:38 +0200";
layers = (
{
layerId = UUID0;
name = "Bold Italic";
paths = (
{
closed = 1;
nodes = (
"879 1462 LINE",
"834 1335 OFFCURVE",
"780 1189 OFFCURVE",
"734 1061 CURVE",
"643 1061 LINE",
"785 1462 LINE",
"517 1462 LINE",
"473 1335 OFFCURVE",
"419 1189 OFFCURVE",
"374 1061 CURVE",
"149 1061 LINE",
"100 831 LINE",
"292 831 LINE",
"219 629 LINE",
"5 629 LINE",
"-44 398 LINE",
"136 398 LINE",
"-6 0 LINE",
"266 0 LINE",
"310 126 OFFCURVE",
"363 271 OFFCURVE",
"408 398 CURVE",
"497 398 LINE",
"354 0 LINE",
"627 0 LINE",
"769 398 LINE",
"994 398 LINE",
"1043 629 LINE",
"849 629 LINE",
"922 831 LINE",
"1137 831 LINE",
"1186 1061 LINE",
"1005 1061 LINE",
"1147 1462 LINE"
);
},
{
closed = 1;
nodes = (
"579 629 LINE",
"490 629 LINE",
"560 831 LINE",
"652 831 LINE"
);
}
);
width = 1143;
}
);
unicode = 0023;
},
{
glyphname = period;
lastChange = "2013-03-13 10:33:51 +0200";
layers = (
{
layerId = UUID0;
name = "Bold Italic";
paths = (
{
closed = 1;
nodes = (
"46 335 OFFCURVE",
"-18 269 OFFCURVE",
"-42 154 CURVE SMOOTH",
"-66 41 OFFCURVE",
"-29 -26 OFFCURVE",
"104 -26 CURVE SMOOTH",
"233 -26 OFFCURVE",
"303 40 OFFCURVE",
"327 154 CURVE SMOOTH",
"352 270 OFFCURVE",
"314 335 OFFCURVE",
"180 335 CURVE SMOOTH"
);
}
);
width = 521;
}
);
unicode = 002E;
},
{
glyphname = periodcentered;
lastChange = "2013-03-13 10:29:38 +0200";
layers = (
{
layerId = UUID0;
name = "Bold Italic";
paths = (
{
closed = 1;
nodes = (
"166 904 OFFCURVE",
"83 838 OFFCURVE",
"59 723 CURVE SMOOTH",
"35 610 OFFCURVE",
"91 543 OFFCURVE",
"224 543 CURVE SMOOTH",
"353 543 OFFCURVE",
"442 609 OFFCURVE",
"466 723 CURVE SMOOTH",
"491 839 OFFCURVE",
"434 904 OFFCURVE",
"300 904 CURVE SMOOTH"
);
}
);
width = 533;
}
);
unicode = 00B7;
},
{
glyphname = question;
lastChange = "2013-03-13 10:29:38 +0200";
layers = (
{
layerId = UUID0;
name = "Bold Italic";
paths = (
{
closed = 1;
nodes = (
"397 1482 OFFCURVE",
"262 1442 OFFCURVE",
"125 1361 CURVE",
"187 1116 LINE",
"305 1182 OFFCURVE",
"393 1216 OFFCURVE",
"450 1216 CURVE SMOOTH",
"505 1216 OFFCURVE",
"537 1188 OFFCURVE",
"521 1116 CURVE SMOOTH",
"503 1027 OFFCURVE",
"435 944 OFFCURVE",
"355 873 CURVE",
"356 873 LINE",
"242 775 OFFCURVE",
"175 689 OFFCURVE",
"142 547 CURVE SMOOTH",
"122 457 LINE",
"437 457 LINE",
"455 538 LINE SMOOTH",
"473 625 OFFCURVE",
"510 669 OFFCURVE",
"586 737 CURVE SMOOTH",
"724 858 OFFCURVE",
"808 949 OFFCURVE",
"845 1125 CURVE SMOOTH",
"893 1348 OFFCURVE",
"759 1482 OFFCURVE",
"533 1482 CURVE SMOOTH"
);
},
{
closed = 1;
nodes = (
"122 335 OFFCURVE",
"58 270 OFFCURVE",
"33 154 CURVE SMOOTH",
"9 40 OFFCURVE",
"48 -26 OFFCURVE",
"179 -26 CURVE SMOOTH",
"310 -26 OFFCURVE",
"376 43 OFFCURVE",
"400 154 CURVE SMOOTH",
"424 268 OFFCURVE",
"389 335 OFFCURVE",
"255 335 CURVE SMOOTH"
);
}
);
width = 788;
}
);
unicode = 003F;
},
{
glyphname = questiondown;
lastChange = "2013-03-13 10:29:38 +0200";
layers = (
{
layerId = UUID0;
name = "Bold Italic";
paths = (
{
closed = 1;
nodes = (
"330 646 LINE",
"312 564 LINE SMOOTH",
"303 521 OFFCURVE",
"290 489 OFFCURVE",
"276 468 CURVE",
"276 469 LINE",
"256 438 OFFCURVE",
"222 404 OFFCURVE",
"179 366 CURVE SMOOTH",
"107 302 OFFCURVE",
"57 253 OFFCURVE",
"35 224 CURVE SMOOTH",
"-21 153 OFFCURVE",
"-59 74 OFFCURVE",
"-79 -22 CURVE SMOOTH",
"-102 -130 OFFCURVE",
"-85 -218 OFFCURVE",
"-30 -285 CURVE",
"-30 -285 LINE",
"21 -349 OFFCURVE",
"110 -380 OFFCURVE",
"234 -380 CURVE SMOOTH",
"370 -380 OFFCURVE",
"506 -340 OFFCURVE",
"641 -259 CURVE",
"577 -14 LINE",
"461 -81 OFFCURVE",
"374 -115 OFFCURVE",
"315 -115 CURVE SMOOTH",
"263 -115 OFFCURVE",
"248 -63 OFFCURVE",
"263 6 CURVE SMOOTH",
"272 50 OFFCURVE",
"284 83 OFFCURVE",
"301 110 CURVE",
"300 110 LINE",
"322 143 OFFCURVE",
"359 181 OFFCURVE",
"411 227 CURVE SMOOTH",
"479 288 OFFCURVE",
"529 343 OFFCURVE",
"555 385 CURVE SMOOTH",
"587 436 OFFCURVE",
"610 493 OFFCURVE",
"623 554 CURVE SMOOTH",
"643 646 LINE"
);
},
{
closed = 1;
nodes = (
"461 1128 OFFCURVE",
"370 1062 OFFCURVE",
"346 947 CURVE SMOOTH",
"321 832 OFFCURVE",
"381 768 OFFCURVE",
"509 768 CURVE SMOOTH",
"643 768 OFFCURVE",
"728 832 OFFCURVE",
"753 947 CURVE SMOOTH",
"777 1061 OFFCURVE",
"719 1128 OFFCURVE",
"585 1128 CURVE SMOOTH"
);
}
);
width = 762;
}
);
unicode = 00BF;
},
{
glyphname = quotedbl;
lastChange = "2013-03-13 10:29:38 +0200";
layers = (
{
layerId = UUID0;
name = "Bold Italic";
paths = (
{
closed = 1;
nodes = (
"568 1462 LINE",
"492 907 LINE",
"751 907 LINE",
"912 1462 LINE"
);
},
{
closed = 1;
nodes = (
"170 1462 LINE",
"95 907 LINE",
"353 907 LINE",
"514 1462 LINE"
);
}
);
width = 964;
}
);
unicode = 0022;
},
{
glyphname = quotesingle;
lastChange = "2013-03-13 10:29:38 +0200";
layers = (
{
layerId = UUID0;
name = "Bold Italic";
paths = (
{
closed = 1;
nodes = (
"170 1462 LINE",
"95 907 LINE",
"353 907 LINE",
"514 1462 LINE"
);
}
);
width = 566;
}
);
unicode = 0027;
},
{
glyphname = semicolon;
lastChange = "2013-03-13 10:34:11 +0200";
layers = (
{
layerId = UUID0;
name = "Bold Italic";
paths = (
{
closed = 1;
nodes = (
"76 274 LINE",
"18 116 OFFCURVE",
"-56 -61 OFFCURVE",
"-145 -256 CURVE",
"134 -256 LINE",
"262 -62 OFFCURVE",
"356 99 OFFCURVE",
"418 230 CURVE",
"401 274 LINE"
);
},
{
closed = 1;
nodes = (
"298 1146 OFFCURVE",
"234 1080 OFFCURVE",
"210 965 CURVE SMOOTH",
"186 852 OFFCURVE",
"222 785 OFFCURVE",
"355 785 CURVE SMOOTH",
"484 785 OFFCURVE",
"554 851 OFFCURVE",
"579 965 CURVE SMOOTH",
"603 1081 OFFCURVE",
"566 1146 OFFCURVE",
"432 1146 CURVE SMOOTH"
);
}
);
width = 618;
}
);
unicode = 003B;
},
{
glyphname = slash;
lastChange = "2013-03-13 10:29:38 +0200";
layers = (
{
layerId = UUID0;
name = "Bold Italic";
paths = (
{
closed = 1;
nodes = (
"700 1462 LINE",
"-155 0 LINE",
"179 0 LINE",
"1034 1462 LINE"
);
}
);
width = 873;
}
);
unicode = 002F;
},
{
glyphname = underscore;
lastChange = "2013-03-13 10:29:38 +0200";
layers = (
{
layerId = UUID0;
name = "Bold Italic";
paths = (
{
closed = 1;
nodes = (
"-33 -136 LINE",
"-71 -315 LINE",
"698 -315 LINE",
"736 -136 LINE"
);
}
);
width = 676;
}
);
unicode = 005F;
},
{
glyphname = braceleft;
lastChange = "2013-03-13 10:29:38 +0200";
layers = (
{
layerId = UUID0;
name = "Bold Italic";
paths = (
{
closed = 1;
nodes = (
"617 1457 OFFCURVE",
"478 1392 OFFCURVE",
"427 1167 CURVE SMOOTH",
"359 848 LINE SMOOTH",
"337 745 OFFCURVE",
"239 703 OFFCURVE",
"79 703 CURVE",
"23 444 LINE",
"183 444 OFFCURVE",
"265 402 OFFCURVE",
"241 289 CURVE SMOOTH",
"175 -19 LINE SMOOTH",
"132 -244 OFFCURVE",
"239 -311 OFFCURVE",
"607 -316 CURVE",
"660 -68 LINE",
"582 -65 OFFCURVE",
"535 -54 OFFCURVE",
"518 -36 CURVE SMOOTH",
"506 -22 OFFCURVE",
"507 8 OFFCURVE",
"516 53 CURVE SMOOTH",
"581 359 LINE SMOOTH",
"605 468 OFFCURVE",
"556 539 OFFCURVE",
"438 574 CURVE",
"570 610 OFFCURVE",
"649 685 OFFCURVE",
"675 801 CURVE SMOOTH",
"738 1095 LINE SMOOTH",
"748 1141 OFFCURVE",
"760 1170 OFFCURVE",
"779 1183 CURVE",
"803 1202 OFFCURVE",
"855 1213 OFFCURVE",
"932 1215 CURVE",
"985 1463 LINE"
);
}
);
width = 852;
}
);
unicode = 007B;
},
{
glyphname = braceright;
lastChange = "2013-03-13 10:29:38 +0200";
layers = (
{
layerId = UUID0;
name = "Bold Italic";
paths = (
{
closed = 1;
nodes = (
"192 1215 LINE",
"270 1213 OFFCURVE",
"318 1203 OFFCURVE",
"334 1184 CURVE",
"347 1171 OFFCURVE",
"348 1141 OFFCURVE",
"338 1095 CURVE SMOOTH",
"275 800 LINE SMOOTH",
"253 685 OFFCURVE",
"300 610 OFFCURVE",
"417 574 CURVE",
"285 538 OFFCURVE",
"204 465 OFFCURVE",
"181 356 CURVE SMOOTH",
"116 53 LINE SMOOTH",
"107 8 OFFCURVE",
"93 -22 OFFCURVE",
"74 -36 CURVE SMOOTH",
"51 -54 OFFCURVE",
"-2 -65 OFFCURVE",
"-80 -68 CURVE",
"-133 -315 LINE",
"58 -315 OFFCURVE",
"192 -293 OFFCURVE",
"266 -249 CURVE",
"265 -249 LINE",
"351 -199 OFFCURVE",
"405 -122 OFFCURVE",
"427 -18 CURVE SMOOTH",
"493 289 LINE SMOOTH",
"517 402 OFFCURVE",
"611 444 OFFCURVE",
"773 444 CURVE",
"829 703 LINE",
"667 703 OFFCURVE",
"589 745 OFFCURVE",
"611 848 CURVE SMOOTH",
"679 1167 LINE SMOOTH",
"701 1270 OFFCURVE",
"679 1346 OFFCURVE",
"616 1396 CURVE",
"617 1396 LINE",
"561 1441 OFFCURVE",
"437 1462 OFFCURVE",
"245 1462 CURVE"
);
}
);
width = 853;
}
);
unicode = 007D;
},
{
glyphname = bracketleft;
lastChange = "2013-03-13 10:29:38 +0200";
layers = (
{
layerId = UUID0;
name = "Bold Italic";
paths = (
{
closed = 1;
nodes = (
"271 1462 LINE",
"-107 -315 LINE",
"433 -315 LINE",
"483 -79 LINE",
"267 -79 LINE",
"545 1227 LINE",
"761 1227 LINE",
"811 1462 LINE"
);
}
);
width = 629;
}
);
unicode = 005B;
},
{
glyphname = bracketright;
lastChange = "2013-03-13 10:29:38 +0200";
layers = (
{
layerId = UUID0;
name = "Bold Italic";
paths = (
{
closed = 1;
nodes = (
"186 1462 LINE",
"136 1227 LINE",
"353 1227 LINE",
"75 -79 LINE",
"-142 -79 LINE",
"-192 -315 LINE",
"349 -315 LINE",
"727 1462 LINE"
);
}
);
width = 629;
}
);
unicode = 005D;
},
{
glyphname = parenleft;
lastChange = "2013-03-13 10:29:38 +0200";
layers = (
{
layerId = UUID0;
name = "Bold Italic";
paths = (
{
closed = 1;
nodes = (
"562 1462 LINE",
"311 1224 OFFCURVE",
"136 910 OFFCURVE",
"62 566 CURVE SMOOTH",
"-10 227 OFFCURVE",
"33 -82 OFFCURVE",
"185 -315 CURVE",
"496 -315 LINE",
"361 -56 OFFCURVE",
"324 245 OFFCURVE",
"393 568 CURVE SMOOTH",
"460 882 OFFCURVE",
"627 1197 OFFCURVE",
"876 1462 CURVE"
);
}
);
width = 732;
}
);
unicode = 0028;
},
{
glyphname = parenright;
lastChange = "2013-03-13 10:29:38 +0200";
layers = (
{
layerId = UUID0;
name = "Bold Italic";
paths = (
{
closed = 1;
nodes = (
"234 1462 LINE",
"372 1197 OFFCURVE",
"405 882 OFFCURVE",
"338 568 CURVE SMOOTH",
"271 253 OFFCURVE",
"106 -49 OFFCURVE",
"-142 -315 CURVE",
"170 -315 LINE",
"420 -84 OFFCURVE",
"595 224 OFFCURVE",
"667 566 CURVE SMOOTH",
"736 887 OFFCURVE",
"706 1203 OFFCURVE",
"549 1462 CURVE"
);
}
);
width = 732;
}
);
unicode = 0029;
},
{
glyphname = emdash;
lastChange = "2013-03-13 10:29:38 +0200";
layers = (
{
layerId = UUID0;
name = "Bold Italic";
paths = (
{
closed = 1;
nodes = (
"54 682 LINE",
"0 429 LINE",
"1480 429 LINE",
"1534 682 LINE"
);
}
);
width = 1559;
}
);
unicode = 2014;
},
{
glyphname = endash;
lastChange = "2013-03-13 10:29:38 +0200";
layers = (
{
layerId = UUID0;
name = "Bold Italic";
paths = (
{
closed = 1;
nodes = (
"49 682 LINE",
"-5 429 LINE",
"889 429 LINE",
"943 682 LINE"
);
}
);
width = 953;
}
);
unicode = 2013;
},
{
glyphname = hyphen;
lastChange = "2013-03-13 10:29:38 +0200";
layers = (
{
layerId = UUID0;
name = "Bold Italic";
paths = (
{
closed = 1;
nodes = (
"62 689 LINE",
"4 419 LINE",
"578 419 LINE",
"636 689 LINE"
);
}
);
width = 640;
}
);
unicode = 002D;
},
{
glyphname = uni00AD;
lastChange = "2013-03-13 10:29:38 +0200";
layers = (
{
layerId = UUID0;
name = "Bold Italic";
paths = (
{
closed = 1;
nodes = (
"51 689 LINE",
"-7 419 LINE",
"567 419 LINE",
"625 689 LINE"
);
}
);
width = 627;
}
);
unicode = 00AD;
},
{
glyphname = guillemotleft;
lastChange = "2013-03-13 10:29:38 +0200";
layers = (
{
layerId = UUID0;
name = "Bold Italic";
paths = (
{
closed = 1;
nodes = (
"503 574 LINE",
"497 548 LINE",
"722 77 LINE",
"1008 219 LINE",
"962 329 OFFCURVE",
"909 451 OFFCURVE",
"864 562 CURVE",
"1154 905 LINE",
"928 1047 LINE"
);
},
{
closed = 1;
nodes = (
"30 574 LINE",
"24 548 LINE",
"250 77 LINE",
"535 219 LINE",
"489 329 OFFCURVE",
"436 451 OFFCURVE",
"391 562 CURVE",
"681 905 LINE",
"456 1047 LINE"
);
}
);
width = 1121;
}
);
unicode = 00AB;
},
{
glyphname = guillemotright;
lastChange = "2013-03-13 10:29:38 +0200";
layers = (
{
layerId = UUID0;
name = "Bold Italic";
paths = (
{
closed = 1;
nodes = (
"569 905 LINE",
"615 795 OFFCURVE",
"668 673 OFFCURVE",
"713 562 CURVE",
"423 219 LINE",
"649 77 LINE",
"1074 548 LINE",
"1080 574 LINE",
"855 1047 LINE"
);
},
{
closed = 1;
nodes = (
"97 905 LINE",
"142 795 OFFCURVE",
"195 673 OFFCURVE",
"240 562 CURVE",
"-49 219 LINE",
"175 77 LINE",
"601 548 LINE",
"607 574 LINE",
"381 1047 LINE"
);
}
);
width = 1121;
}
);
unicode = 00BB;
},
{
glyphname = guilsinglleft;
lastChange = "2013-03-13 10:29:38 +0200";
layers = (
{
layerId = UUID0;
name = "Bold Italic";
paths = (
{
closed = 1;
nodes = (
"27 574 LINE",
"21 548 LINE",
"246 77 LINE",
"531 219 LINE",
"486 329 OFFCURVE",
"433 451 OFFCURVE",
"387 562 CURVE",
"677 905 LINE",
"452 1047 LINE"
);
}
);
width = 633;
}
);
unicode = 2039;
},
{
glyphname = guilsinglright;
lastChange = "2013-03-13 10:29:38 +0200";
layers = (
{
layerId = UUID0;
name = "Bold Italic";
paths = (
{
closed = 1;
nodes = (
"93 905 LINE",
"139 795 OFFCURVE",
"192 673 OFFCURVE",
"236 562 CURVE",
"-53 219 LINE",
"171 77 LINE",
"598 548 LINE",
"604 574 LINE",
"377 1047 LINE"
);
}
);
width = 633;
}
);
unicode = 203A;
},
{
glyphname = quotedblbase;
lastChange = "2013-03-13 10:29:38 +0200";
layers = (
{
layerId = UUID0;
name = "Bold Italic";
paths = (
{
closed = 1;
nodes = (
"629 238 LINE",
"572 81 OFFCURVE",
"502 -87 OFFCURVE",
"422 -264 CURVE",
"625 -264 LINE",
"747 -79 OFFCURVE",
"839 80 OFFCURVE",
"902 215 CURVE",
"893 238 LINE"
);
},
{
closed = 1;
nodes = (
"195 238 LINE",
"138 81 OFFCURVE",
"68 -87 OFFCURVE",
"-12 -264 CURVE",
"191 -264 LINE",
"313 -79 OFFCURVE",
"405 80 OFFCURVE",
"468 215 CURVE",
"459 238 LINE"
);
}
);
width = 967;
}
);
unicode = 201E;
},
{
glyphname = quotedblleft;
lastChange = "2013-03-13 10:29:38 +0200";
layers = (
{
layerId = UUID0;
name = "Bold Italic";
paths = (
{
closed = 1;
nodes = (
"643 1462 LINE SMOOTH",
"643 1462 OFFCURVE",
"544 1290 OFFCURVE",
"498 1202 CURVE SMOOTH",
"430 1070 OFFCURVE",
"376 957 OFFCURVE",
"376 957 CURVE",
"383 933 LINE",
"695 933 LINE",
"695 933 OFFCURVE",
"747 1095 OFFCURVE",
"783 1187 CURVE SMOOTH",
"823 1292 OFFCURVE",
"896 1462 OFFCURVE",
"896 1462 CURVE SMOOTH"
);
},
{
closed = 1;
nodes = (
"227 1462 LINE SMOOTH",
"227 1462 OFFCURVE",
"128 1290 OFFCURVE",
"82 1202 CURVE SMOOTH",
"14 1070 OFFCURVE",
"-40 957 OFFCURVE",
"-40 957 CURVE",
"-33 933 LINE",
"279 933 LINE",
"279 933 OFFCURVE",
"331 1095 OFFCURVE",
"367 1187 CURVE SMOOTH",
"407 1292 OFFCURVE",
"480 1462 OFFCURVE",
"480 1462 CURVE SMOOTH"
);
}
);
width = 867;
}
);
unicode = 201C;
},
{
glyphname = quotedblright;
lastChange = "2013-03-13 10:29:38 +0200";
layers = (
{
layerId = UUID0;
name = "Bold Italic";
paths = (
{
closed = 1;
nodes = (
"588 1462 LINE SMOOTH",
"588 1462 OFFCURVE",
"536 1300 OFFCURVE",
"500 1208 CURVE SMOOTH",
"460 1103 OFFCURVE",
"387 933 OFFCURVE",
"387 933 CURVE",
"640 933 LINE",
"640 933 OFFCURVE",
"739 1105 OFFCURVE",
"785 1193 CURVE SMOOTH",
"853 1325 OFFCURVE",
"907 1438 OFFCURVE",
"907 1438 CURVE",
"900 1462 LINE"
);
},
{
closed = 1;
nodes = (
"172 1462 LINE SMOOTH",
"172 1462 OFFCURVE",
"120 1300 OFFCURVE",
"84 1208 CURVE SMOOTH",
"44 1103 OFFCURVE",
"-29 933 OFFCURVE",
"-29 933 CURVE",
"224 933 LINE",
"224 933 OFFCURVE",
"323 1105 OFFCURVE",
"369 1193 CURVE SMOOTH",
"437 1325 OFFCURVE",
"491 1438 OFFCURVE",
"491 1438 CURVE",
"484 1462 LINE"
);
}
);
width = 867;
}
);
unicode = 201D;
},
{
glyphname = quoteleft;
lastChange = "2013-03-13 10:29:38 +0200";
layers = (
{
layerId = UUID0;
name = "Bold Italic";
paths = (
{
closed = 1;
nodes = (
"227 1462 LINE SMOOTH",
"227 1462 OFFCURVE",
"128 1290 OFFCURVE",
"82 1202 CURVE SMOOTH",
"14 1070 OFFCURVE",
"-40 957 OFFCURVE",
"-40 957 CURVE",
"-33 933 LINE",
"279 933 LINE",
"279 933 OFFCURVE",
"331 1095 OFFCURVE",
"367 1187 CURVE SMOOTH",
"407 1292 OFFCURVE",
"480 1462 OFFCURVE",
"480 1462 CURVE SMOOTH"
);
}
);
width = 451;
}
);
unicode = 2018;
},
{
glyphname = quoteright;
lastChange = "2013-03-13 10:29:38 +0200";
layers = (
{
layerId = UUID0;
name = "Bold Italic";
paths = (
{
closed = 1;
nodes = (
"172 1462 LINE SMOOTH",
"172 1462 OFFCURVE",
"120 1300 OFFCURVE",
"84 1208 CURVE SMOOTH",
"44 1103 OFFCURVE",
"-29 933 OFFCURVE",
"-29 933 CURVE",
"224 933 LINE",
"224 933 OFFCURVE",
"323 1105 OFFCURVE",
"369 1193 CURVE SMOOTH",
"437 1325 OFFCURVE",
"491 1438 OFFCURVE",
"491 1438 CURVE",
"484 1462 LINE"
);
}
);
width = 451;
}
);
unicode = 2019;
},
{
glyphname = quotesinglbase;
lastChange = "2013-03-13 10:29:38 +0200";
layers = (
{
layerId = UUID0;
name = "Bold Italic";
paths = (
{
closed = 1;
nodes = (
"158 274 LINE",
"101 116 OFFCURVE",
"27 -61 OFFCURVE",
"-62 -256 CURVE",
"217 -256 LINE",
"345 -62 OFFCURVE",
"439 99 OFFCURVE",
"501 230 CURVE",
"483 274 LINE"
);
}
);
width = 533;
}
);
unicode = 201A;
},
{
glyphname = "geresh-hb";
lastChange = "2013-03-13 10:36:38 +0200";
layers = (
{
layerId = UUID0;
name = "Bold Italic";
paths = (
{
closed = 1;
nodes = (
"274 1290 LINE SMOOTH",
"274 1290 OFFCURVE",
"222 1128 OFFCURVE",
"186 1036 CURVE SMOOTH",
"146 931 OFFCURVE",
"73 761 OFFCURVE",
"73 761 CURVE",
"326 761 LINE",
"326 761 OFFCURVE",
"425 933 OFFCURVE",
"471 1021 CURVE SMOOTH",
"539 1153 OFFCURVE",
"593 1266 OFFCURVE",
"593 1266 CURVE",
"586 1290 LINE"
);
}
);
width = 471;
}
);
unicode = 05F3;
},
{
glyphname = "gershayim-hb";
lastChange = "2013-03-13 10:36:14 +0200";
layers = (
{
layerId = UUID0;
name = "Bold Italic";
paths = (
{
closed = 1;
nodes = (
"668 1290 LINE SMOOTH",
"668 1290 OFFCURVE",
"616 1128 OFFCURVE",
"580 1036 CURVE SMOOTH",
"540 931 OFFCURVE",
"467 761 OFFCURVE",
"467 761 CURVE",
"720 761 LINE",
"720 761 OFFCURVE",
"819 933 OFFCURVE",
"865 1021 CURVE SMOOTH",
"933 1153 OFFCURVE",
"987 1266 OFFCURVE",
"987 1266 CURVE",
"980 1290 LINE"
);
},
{
closed = 1;
nodes = (
"252 1290 LINE SMOOTH",
"252 1290 OFFCURVE",
"200 1128 OFFCURVE",
"164 1036 CURVE SMOOTH",
"124 931 OFFCURVE",
"51 761 OFFCURVE",
"51 761 CURVE",
"304 761 LINE",
"304 761 OFFCURVE",
"403 933 OFFCURVE",
"449 1021 CURVE SMOOTH",
"517 1153 OFFCURVE",
"571 1266 OFFCURVE",
"571 1266 CURVE",
"564 1290 LINE"
);
}
);
width = 887;
}
);
unicode = 05F4;
},
{
glyphname = "maqaf-hb";
lastChange = "2013-03-13 10:36:21 +0200";
layers = (
{
layerId = UUID0;
name = "Bold Italic";
paths = (
{
closed = 1;
nodes = (
"192 1290 LINE",
"134 1020 LINE",
"708 1020 LINE",
"766 1290 LINE"
);
}
);
width = 660;
}
);
unicode = 05BE;
},
{
glyphname = .notdef;
lastChange = "2013-03-13 10:29:38 +0200";
layers = (
{
layerId = UUID0;
name = "Bold Italic";
paths = (
{
closed = 1;
nodes = (
"329 1462 LINE",
"19 0 LINE",
"861 0 LINE",
"1171 1462 LINE"
);
},
{
closed = 1;
nodes = (
"778 104 LINE",
"146 104 LINE",
"412 1358 LINE",
"1044 1358 LINE"
);
}
);
width = 1192;
}
);
},
{
glyphname = florin;
lastChange = "2013-03-13 10:29:38 +0200";
layers = (
{
layerId = UUID0;
name = "Bold Italic";
paths = (
{
closed = 1;
nodes = (
"563 1469 OFFCURVE",
"425 1351 OFFCURVE",
"371 1095 CURVE SMOOTH",
"355 1020 LINE",
"180 945 LINE",
"146 786 LINE",
"305 786 LINE",
"125 -62 LINE SMOOTH",
"103 -165 OFFCURVE",
"67 -212 OFFCURVE",
"8 -212 CURVE SMOOTH",
"-23 -212 OFFCURVE",
"-72 -200 OFFCURVE",
"-140 -178 CURVE",
"-196 -442 LINE",
"-124 -463 OFFCURVE",
"-57 -473 OFFCURVE",
"6 -473 CURVE SMOOTH",
"257 -473 OFFCURVE",
"418 -343 OFFCURVE",
"471 -95 CURVE SMOOTH",
"533 197 OFFCURVE",
"598 493 OFFCURVE",
"660 786 CURVE",
"871 786 LINE",
"924 1033 LINE",
"713 1033 LINE",
"724 1085 LINE SMOOTH",
"741 1167 OFFCURVE",
"769 1212 OFFCURVE",
"815 1212 CURVE SMOOTH",
"847 1212 OFFCURVE",
"898 1197 OFFCURVE",
"968 1169 CURVE",
"1099 1411 LINE",
"1017 1450 OFFCURVE",
"928 1469 OFFCURVE",
"831 1469 CURVE SMOOTH"
);
}
);
width = 928;
}
);
unicode = 0192;
},
{
glyphname = Euro;
lastChange = "2013-03-13 10:29:38 +0200";
layers = (
{
layerId = UUID0;
name = "Bold Italic";
paths = (
{
closed = 1;
nodes = (
"516 1484 OFFCURVE",
"298 1303 OFFCURVE",
"171 961 CURVE",
"43 961 LINE",
"-1 755 LINE",
"113 755 LINE",
"97 679 LINE",
"-17 679 LINE",
"-61 473 LINE",
"69 473 LINE",
"55 153 OFFCURVE",
"191 -19 OFFCURVE",
"463 -19 CURVE SMOOTH",
"573 -19 OFFCURVE",
"678 10 OFFCURVE",
"778 66 CURVE",
"841 362 LINE",
"707 291 OFFCURVE",
"610 255 OFFCURVE",
"550 255 CURVE SMOOTH",
"463 255 OFFCURVE",
"419 329 OFFCURVE",
"418 473 CURVE",
"655 473 LINE",
"699 679 LINE",
"442 679 LINE",
"458 755 LINE",
"758 755 LINE",
"802 961 LINE",
"519 961 LINE",
"582 1123 OFFCURVE",
"658 1211 OFFCURVE",
"739 1211 CURVE SMOOTH",
"784 1211 OFFCURVE",
"845 1188 OFFCURVE",
"925 1146 CURVE",
"1086 1400 LINE",
"993 1459 OFFCURVE",
"910 1484 OFFCURVE",
"785 1484 CURVE SMOOTH"
);
}
);
width = 928;
}
);
unicode = 20AC;
},
{
glyphname = cent;
lastChange = "2013-03-13 10:29:38 +0200";
layers = (
{
layerId = UUID0;
name = "Bold Italic";
paths = (
{
closed = 1;
nodes = (
"546 1479 LINE",
"509 1306 LINE",
"308 1238 OFFCURVE",
"164 1047 OFFCURVE",
"98 737 CURVE SMOOTH",
"35 438 OFFCURVE",
"98 254 OFFCURVE",
"271 185 CURVE",
"228 -19 LINE",
"475 -19 LINE",
"515 172 LINE",
"574 183 OFFCURVE",
"637 208 OFFCURVE",
"699 243 CURVE",
"762 536 LINE",
"636 463 OFFCURVE",
"546 426 OFFCURVE",
"493 426 CURVE SMOOTH",
"414 426 OFFCURVE",
"405 532 OFFCURVE",
"449 739 CURVE SMOOTH",
"495 957 OFFCURVE",
"551 1062 OFFCURVE",
"631 1062 CURVE SMOOTH",
"659 1062 OFFCURVE",
"709 1038 OFFCURVE",
"783 989 CURVE",
"932 1243 LINE",
"877 1278 OFFCURVE",
"820 1303 OFFCURVE",
"759 1316 CURVE",
"793 1479 LINE"
);
}
);
width = 928;
}
);
unicode = 00A2;
},
{
glyphname = currency;
lastChange = "2013-03-13 10:29:38 +0200";
layers = (
{
layerId = UUID0;
name = "Bold Italic";
paths = (
{
closed = 1;
nodes = (
"107 1042 LINE",
"137 1006 OFFCURVE",
"175 955 OFFCURVE",
"207 916 CURVE",
"156 849 OFFCURVE",
"126 786 OFFCURVE",
"113 723 CURVE SMOOTH",
"99 657 OFFCURVE",
"102 592 OFFCURVE",
"125 530 CURVE",
"-25 407 LINE",
"113 230 LINE",
"271 358 LINE",
"315 339 OFFCURVE",
"384 322 OFFCURVE",
"451 322 CURVE SMOOTH",
"519 322 OFFCURVE",
"582 335 OFFCURVE",
"644 361 CURVE",
"751 229 LINE",
"964 405 LINE",
"867 528 LINE",
"915 588 OFFCURVE",
"946 653 OFFCURVE",
"961 723 CURVE SMOOTH",
"975 791 OFFCURVE",
"972 855 OFFCURVE",
"950 918 CURVE",
"1104 1046 LINE",
"959 1219 LINE",
"798 1086 LINE",
"750 1113 OFFCURVE",
"690 1126 OFFCURVE",
"622 1126 CURVE SMOOTH",
"554 1126 OFFCURVE",
"490 1113 OFFCURVE",
"428 1087 CURVE",
"323 1220 LINE"
);
},
{
closed = 1;
nodes = (
"613 897 OFFCURVE",
"646 880 OFFCURVE",
"673 846 CURVE SMOOTH",
"695 816 OFFCURVE",
"702 776 OFFCURVE",
"691 723 CURVE SMOOTH",
"680 672 OFFCURVE",
"656 631 OFFCURVE",
"621 602 CURVE SMOOTH",
"580 568 OFFCURVE",
"539 551 OFFCURVE",
"500 551 CURVE SMOOTH",
"463 551 OFFCURVE",
"431 568 OFFCURVE",
"404 602 CURVE SMOOTH",
"381 631 OFFCURVE",
"375 672 OFFCURVE",
"386 723 CURVE SMOOTH",
"397 777 OFFCURVE",
"421 817 OFFCURVE",
"456 847 CURVE SMOOTH",
"497 881 OFFCURVE",
"537 897 OFFCURVE",
"574 897 CURVE SMOOTH"
);
}
);
width = 1092;
}
);
unicode = 00A4;
},
{
glyphname = dollar;
lastChange = "2013-03-13 10:29:38 +0200";
layers = (
{
layerId = UUID0;
name = "Bold Italic";
paths = (
{
closed = 1;
nodes = (
"579 1554 LINE",
"545 1392 LINE",
"325 1358 OFFCURVE",
"179 1231 OFFCURVE",
"137 1036 CURVE SMOOTH",
"93 827 OFFCURVE",
"212 734 OFFCURVE",
"374 645 CURVE SMOOTH",
"538 549 LINE SMOOTH",
"577 526 OFFCURVE",
"582 487 OFFCURVE",
"576 458 CURVE SMOOTH",
"565 410 OFFCURVE",
"530 317 OFFCURVE",
"412 317 CURVE SMOOTH",
"275 317 OFFCURVE",
"130 398 OFFCURVE",
"18 473 CURVE",
"-45 179 LINE",
"47 124 OFFCURVE",
"148 94 OFFCURVE",
"267 86 CURVE",
"225 -116 LINE",
"416 -116 LINE",
"460 93 LINE",
"688 125 OFFCURVE",
"831 256 OFFCURVE",
"875 464 CURVE SMOOTH",
"899 577 OFFCURVE",
"881 714 OFFCURVE",
"743 789 CURVE SMOOTH",
"508 917 LINE SMOOTH",
"449 949 OFFCURVE",
"426 998 OFFCURVE",
"434 1036 CURVE SMOOTH",
"443 1076 OFFCURVE",
"474 1145 OFFCURVE",
"595 1145 CURVE SMOOTH",
"723 1145 OFFCURVE",
"793 1096 OFFCURVE",
"874 1053 CURVE",
"1020 1301 LINE",
"926 1354 OFFCURVE",
"833 1384 OFFCURVE",
"737 1396 CURVE",
"770 1554 LINE"
);
}
);
width = 990;
}
);
unicode = 0024;
},
{
glyphname = sterling;
lastChange = "2013-03-13 10:29:38 +0200";
layers = (
{
layerId = UUID0;
name = "Bold Italic";
paths = (
{
closed = 1;
nodes = (
"477 1482 OFFCURVE",
"307 1334 OFFCURVE",
"249 1063 CURVE SMOOTH",
"209 872 LINE",
"58 872 LINE",
"7 632 LINE",
"158 632 LINE",
"130 501 LINE SMOOTH",
"117 439 OFFCURVE",
"98 391 OFFCURVE",
"72 358 CURVE",
"44 320 OFFCURVE",
"-7 284 OFFCURVE",
"-76 250 CURVE",
"-130 0 LINE",
"758 0 LINE",
"818 278 LINE",
"330 278 LINE",
"411 344 OFFCURVE",
"458 425 OFFCURVE",
"479 524 CURVE SMOOTH",
"502 632 LINE",
"736 632 LINE",
"787 872 LINE",
"553 872 LINE",
"592 1057 LINE SMOOTH",
"615 1163 OFFCURVE",
"649 1216 OFFCURVE",
"694 1216 CURVE SMOOTH",
"743 1216 OFFCURVE",
"806 1191 OFFCURVE",
"881 1142 CURVE",
"1036 1396 LINE",
"947 1453 OFFCURVE",
"848 1482 OFFCURVE",
"736 1482 CURVE SMOOTH"
);
}
);
width = 928;
}
);
unicode = 00A3;
},
{
glyphname = uni20AA;
lastChange = "2013-03-13 10:29:38 +0200";
layers = (
{
layerId = UUID0;
name = "Bold Italic";
paths = (
{
closed = 1;
nodes = (
"236 1295 LINE",
"-40 0 LINE",
"303 0 LINE",
"521 1026 LINE",
"664 1026 LINE SMOOTH",
"859 1026 OFFCURVE",
"893 951 OFFCURVE",
"845 727 CURVE SMOOTH",
"791 473 LINE",
"1052 473 LINE",
"1106 727 LINE SMOOTH",
"1168 1021 OFFCURVE",
"1176 1295 OFFCURVE",
"722 1295 CURVE SMOOTH"
);
},
{
closed = 1;
nodes = (
"1294 1295 LINE",
"1183 775 LINE SMOOTH",
"1117 466 OFFCURVE",
"1059 269 OFFCURVE",
"785 269 CURVE SMOOTH",
"680 269 LINE",
"798 826 LINE",
"555 826 LINE",
"379 0 LINE",
"728 0 LINE SMOOTH",
"1334 0 OFFCURVE",
"1446 453 OFFCURVE",
"1514 775 CURVE SMOOTH",
"1625 1295 LINE"
);
}
);
width = 1588;
}
);
unicode = 20AA;
},
{
glyphname = yen;
lastChange = "2013-03-13 10:29:38 +0200";
layers = (
{
layerId = UUID0;
name = "Bold Italic";
paths = (
{
closed = 1;
nodes = (
"756 1462 LINE",
"512 983 LINE",
"468 1462 LINE",
"107 1462 LINE",
"221 733 LINE",
"47 733 LINE",
"3 525 LINE",
"242 525 LINE",
"222 430 LINE",
"-17 430 LINE",
"-61 222 LINE",
"178 222 LINE",
"131 0 LINE",
"475 0 LINE",
"522 222 LINE",
"759 222 LINE",
"803 430 LINE",
"566 430 LINE",
"586 525 LINE",
"823 525 LINE",
"867 733 LINE",
"694 733 LINE",
"1117 1462 LINE"
);
}
);
width = 928;
}
);
unicode = 00A5;
},
{
glyphname = asciitilde;
lastChange = "2013-03-13 10:29:38 +0200";
layers = (
{
layerId = UUID0;
name = "Bold Italic";
paths = (
{
closed = 1;
nodes = (
"836 814 OFFCURVE",
"760 780 OFFCURVE",
"708 780 CURVE SMOOTH",
"653 780 OFFCURVE",
"594 794 OFFCURVE",
"532 822 CURVE SMOOTH",
"490 841 OFFCURVE",
"454 854 OFFCURVE",
"425 861 CURVE SMOOTH",
"395 868 OFFCURVE",
"362 872 OFFCURVE",
"327 872 CURVE SMOOTH",
"244 872 OFFCURVE",
"170 844 OFFCURVE",
"104 788 CURVE",
"58 571 LINE",
"134 633 OFFCURVE",
"202 664 OFFCURVE",
"259 664 CURVE SMOOTH",
"313 664 OFFCURVE",
"371 650 OFFCURVE",
"432 622 CURVE SMOOTH",
"511 586 OFFCURVE",
"565 572 OFFCURVE",
"638 572 CURVE SMOOTH",
"721 572 OFFCURVE",
"795 600 OFFCURVE",
"861 656 CURVE",
"907 873 LINE"
);
}
);
width = 965;
}
);
unicode = 007E;
},
{
glyphname = divide;
lastChange = "2013-03-13 10:29:38 +0200";
layers = (
{
layerId = UUID0;
name = "Bold Italic";
paths = (
{
closed = 1;
nodes = (
"83 844 LINE",
"31 600 LINE",
"801 600 LINE",
"853 844 LINE"
);
},
{
closed = 1;
nodes = (
"295 546 OFFCURVE",
"227 492 OFFCURVE",
"204 383 CURVE SMOOTH",
"179 268 OFFCURVE",
"239 220 OFFCURVE",
"333 220 CURVE SMOOTH",
"435 220 OFFCURVE",
"508 282 OFFCURVE",
"530 383 CURVE SMOOTH",
"552 487 OFFCURVE",
"510 546 OFFCURVE",
"403 546 CURVE SMOOTH"
);
},
{
closed = 1;
nodes = (
"439 1224 OFFCURVE",
"371 1170 OFFCURVE",
"348 1061 CURVE SMOOTH",
"324 946 OFFCURVE",
"384 899 OFFCURVE",
"478 899 CURVE SMOOTH",
"580 899 OFFCURVE",
"653 961 OFFCURVE",
"674 1061 CURVE SMOOTH",
"697 1167 OFFCURVE",
"654 1224 OFFCURVE",
"547 1224 CURVE SMOOTH"
);
}
);
width = 898;
}
);
unicode = 00F7;
},
{
glyphname = equal;
lastChange = "2013-03-13 10:29:38 +0200";
layers = (
{
layerId = UUID0;
name = "Bold Italic";
paths = (
{
closed = 1;
nodes = (
"42 653 LINE",
"-9 410 LINE",
"761 410 LINE",
"812 653 LINE"
);
},
{
closed = 1;
nodes = (
"123 1033 LINE",
"72 791 LINE",
"842 791 LINE",
"893 1033 LINE"
);
}
);
width = 898;
}
);
unicode = 003D;
},
{
glyphname = greater;
lastChange = "2013-03-13 10:29:38 +0200";
layers = (
{
layerId = UUID0;
name = "Bold Italic";
paths = (
{
closed = 1;
nodes = (
"115 996 LINE",
"244 910 OFFCURVE",
"390 811 OFFCURVE",
"522 723 CURVE",
"-1 449 LINE",
"-61 166 LINE",
"810 642 LINE",
"845 805 LINE",
"175 1279 LINE"
);
}
);
width = 898;
}
);
unicode = 003E;
},
{
glyphname = less;
lastChange = "2013-03-13 10:29:38 +0200";
layers = (
{
layerId = UUID0;
name = "Bold Italic";
paths = (
{
closed = 1;
nodes = (
"75 805 LINE",
"40 642 LINE",
"709 166 LINE",
"769 449 LINE",
"640 535 OFFCURVE",
"494 635 OFFCURVE",
"364 723 CURVE",
"885 996 LINE",
"945 1279 LINE"
);
}
);
width = 898;
}
);
unicode = 003C;
},
{
glyphname = logicalnot;
lastChange = "2013-03-13 10:29:38 +0200";
layers = (
{
layerId = UUID0;
name = "Bold Italic";
paths = (
{
closed = 1;
nodes = (
"121 844 LINE",
"69 600 LINE",
"564 600 LINE",
"488 243 LINE",
"763 243 LINE",
"891 844 LINE"
);
}
);
width = 898;
}
);
unicode = 00AC;
},
{
glyphname = multiply;
lastChange = "2013-03-13 10:29:38 +0200";
layers = (
{
layerId = UUID0;
name = "Bold Italic";
paths = (
{
closed = 1;
nodes = (
"479 896 LINE",
"332 1082 LINE",
"123 909 LINE",
"269 723 LINE",
"43 537 LINE",
"180 364 LINE",
"405 550 LINE",
"552 364 LINE",
"761 537 LINE",
"615 723 LINE",
"841 909 LINE",
"704 1082 LINE"
);
}
);
width = 896;
}
);
unicode = 00D7;
},
{
glyphname = percent;
lastChange = "2013-03-13 10:29:38 +0200";
layers = (
{
layerId = UUID0;
name = "Bold Italic";
paths = (
{
closed = 1;
nodes = (
"1128 1462 LINE",
"215 0 LINE",
"443 0 LINE",
"1358 1462 LINE"
);
},
{
closed = 1;
nodes = (
"298 1484 OFFCURVE",
"149 1324 OFFCURVE",
"84 1020 CURVE SMOOTH",
"19 716 OFFCURVE",
"100 556 OFFCURVE",
"307 556 CURVE SMOOTH",
"518 556 OFFCURVE",
"667 716 OFFCURVE",
"732 1020 CURVE SMOOTH",
"797 1324 OFFCURVE",
"716 1484 OFFCURVE",
"505 1484 CURVE SMOOTH"
);
},
{
closed = 1;
nodes = (
"488 1264 OFFCURVE",
"505 1235 OFFCURVE",
"459 1020 CURVE SMOOTH",
"413 805 OFFCURVE",
"384 776 OFFCURVE",
"356 776 CURVE SMOOTH",
"328 776 OFFCURVE",
"311 805 OFFCURVE",
"357 1020 CURVE SMOOTH",
"403 1235 OFFCURVE",
"432 1264 OFFCURVE",
"460 1264 CURVE SMOOTH"
);
},
{
closed = 1;
nodes = (
"1055 910 OFFCURVE",
"906 750 OFFCURVE",
"841 446 CURVE SMOOTH",
"776 142 OFFCURVE",
"857 -18 OFFCURVE",
"1064 -18 CURVE SMOOTH",
"1275 -18 OFFCURVE",
"1424 142 OFFCURVE",
"1489 446 CURVE SMOOTH",
"1554 750 OFFCURVE",
"1473 910 OFFCURVE",
"1262 910 CURVE SMOOTH"
);
},
{
closed = 1;
nodes = (
"1245 690 OFFCURVE",
"1262 661 OFFCURVE",
"1216 446 CURVE SMOOTH",
"1170 231 OFFCURVE",
"1141 202 OFFCURVE",
"1113 202 CURVE SMOOTH",
"1085 202 OFFCURVE",
"1068 231 OFFCURVE",
"1114 446 CURVE SMOOTH",
"1160 661 OFFCURVE",
"1189 690 OFFCURVE",
"1217 690 CURVE SMOOTH"
);
}
);
width = 1579;
}
);
unicode = 0025;
},
{
glyphname = perthousand;
lastChange = "2013-03-13 10:29:38 +0200";
layers = (
{
layerId = UUID0;
name = "Bold Italic";
paths = (
{
closed = 1;
nodes = (
"1128 1462 LINE",
"215 0 LINE",
"443 0 LINE",
"1358 1462 LINE"
);
},
{
closed = 1;
nodes = (
"298 1484 OFFCURVE",
"149 1324 OFFCURVE",
"84 1020 CURVE SMOOTH",
"19 716 OFFCURVE",
"100 556 OFFCURVE",
"307 556 CURVE SMOOTH",
"518 556 OFFCURVE",
"667 716 OFFCURVE",
"732 1020 CURVE SMOOTH",
"797 1324 OFFCURVE",
"716 1484 OFFCURVE",
"505 1484 CURVE SMOOTH"
);
},
{
closed = 1;
nodes = (
"488 1264 OFFCURVE",
"505 1235 OFFCURVE",
"459 1020 CURVE SMOOTH",
"413 805 OFFCURVE",
"384 776 OFFCURVE",
"356 776 CURVE SMOOTH",
"328 776 OFFCURVE",
"311 805 OFFCURVE",
"357 1020 CURVE SMOOTH",
"403 1235 OFFCURVE",
"432 1264 OFFCURVE",
"460 1264 CURVE SMOOTH"
);
},
{
closed = 1;
nodes = (
"1055 910 OFFCURVE",
"906 750 OFFCURVE",
"841 446 CURVE SMOOTH",
"776 142 OFFCURVE",
"857 -18 OFFCURVE",
"1064 -18 CURVE SMOOTH",
"1275 -18 OFFCURVE",
"1424 142 OFFCURVE",
"1489 446 CURVE SMOOTH",
"1554 750 OFFCURVE",
"1473 910 OFFCURVE",
"1262 910 CURVE SMOOTH"
);
},
{
closed = 1;
nodes = (
"1245 690 OFFCURVE",
"1262 661 OFFCURVE",
"1216 446 CURVE SMOOTH",
"1170 231 OFFCURVE",
"1141 202 OFFCURVE",
"1113 202 CURVE SMOOTH",
"1085 202 OFFCURVE",
"1068 231 OFFCURVE",
"1114 446 CURVE SMOOTH",
"1160 661 OFFCURVE",
"1189 690 OFFCURVE",
"1217 690 CURVE SMOOTH"
);
},
{
closed = 1;
nodes = (
"1760 910 OFFCURVE",
"1611 750 OFFCURVE",
"1546 446 CURVE SMOOTH",
"1481 142 OFFCURVE",
"1562 -18 OFFCURVE",
"1769 -18 CURVE SMOOTH",
"1980 -18 OFFCURVE",
"2129 142 OFFCURVE",
"2194 446 CURVE SMOOTH",
"2259 750 OFFCURVE",
"2178 910 OFFCURVE",
"1967 910 CURVE SMOOTH"
);
},
{
closed = 1;
nodes = (
"1950 690 OFFCURVE",
"1967 661 OFFCURVE",
"1921 446 CURVE SMOOTH",
"1875 231 OFFCURVE",
"1846 202 OFFCURVE",
"1818 202 CURVE SMOOTH",
"1790 202 OFFCURVE",
"1773 231 OFFCURVE",
"1819 446 CURVE SMOOTH",
"1865 661 OFFCURVE",
"1894 690 OFFCURVE",
"1922 690 CURVE SMOOTH"
);
}
);
width = 2278;
}
);
unicode = 2030;
},
{
glyphname = plus;
lastChange = "2013-03-13 10:29:38 +0200";
layers = (
{
layerId = UUID0;
name = "Bold Italic";
paths = (
{
closed = 1;
nodes = (
"402 1108 LINE",
"346 845 LINE",
"83 845 LINE",
"31 601 LINE",
"294 601 LINE",
"238 338 LINE",
"482 338 LINE",
"538 601 LINE",
"801 601 LINE",
"853 845 LINE",
"590 845 LINE",
"646 1108 LINE"
);
}
);
width = 896;
}
);
unicode = 002B;
},
{
glyphname = plusminus;
lastChange = "2013-03-13 10:29:38 +0200";
layers = (
{
layerId = UUID0;
name = "Bold Italic";
paths = (
{
closed = 1;
nodes = (
"431 1206 LINE",
"354 844 LINE",
"108 844 LINE",
"56 600 LINE",
"302 600 LINE",
"226 243 LINE",
"503 243 LINE",
"579 600 LINE",
"826 600 LINE",
"878 844 LINE",
"631 844 LINE",
"708 1206 LINE"
);
},
{
closed = 1;
nodes = (
"-19 244 LINE",
"-71 0 LINE",
"699 0 LINE",
"751 244 LINE"
);
}
);
width = 898;
}
);
unicode = 00B1;
},
{
glyphname = ampersand;
lastChange = "2013-03-13 10:29:38 +0200";
layers = (
{
layerId = UUID0;
name = "Bold Italic";
paths = (
{
closed = 1;
nodes = (
"500 1482 OFFCURVE",
"306 1347 OFFCURVE",
"259 1129 CURVE SMOOTH",
"231 994 OFFCURVE",
"262 942 OFFCURVE",
"312 808 CURVE",
"130 693 OFFCURVE",
"25 557 OFFCURVE",
"-8 401 CURVE SMOOTH",
"-64 139 OFFCURVE",
"67 -19 OFFCURVE",
"337 -19 CURVE SMOOTH",
"463 -19 OFFCURVE",
"575 12 OFFCURVE",
"674 74 CURVE",
"710 0 LINE",
"1088 0 LINE",
"1046 83 OFFCURVE",
"986 197 OFFCURVE",
"944 283 CURVE",
"1054 424 OFFCURVE",
"1149 601 OFFCURVE",
"1214 788 CURVE",
"905 788 LINE",
"872 710 OFFCURVE",
"840 628 OFFCURVE",
"802 561 CURVE",
"757 649 OFFCURVE",
"744 681 OFFCURVE",
"703 763 CURVE",
"893 891 OFFCURVE",
"985 1012 OFFCURVE",
"1013 1145 CURVE SMOOTH",
"1058 1355 OFFCURVE",
"932 1482 OFFCURVE",
"720 1482 CURVE SMOOTH"
);
},
{
closed = 1;
nodes = (
"476 481 OFFCURVE",
"511 406 OFFCURVE",
"560 305 CURVE",
"512 271 OFFCURVE",
"466 253 OFFCURVE",
"423 253 CURVE SMOOTH",
"351 253 OFFCURVE",
"320 318 OFFCURVE",
"343 425 CURVE SMOOTH",
"356 488 OFFCURVE",
"385 543 OFFCURVE",
"425 586 CURVE"
);
},
{
closed = 1;
nodes = (
"684 1220 OFFCURVE",
"698 1191 OFFCURVE",
"683 1121 CURVE SMOOTH",
"671 1065 OFFCURVE",
"647 1022 OFFCURVE",
"599 977 CURVE",
"580 1019 OFFCURVE",
"571 1063 OFFCURVE",
"583 1118 CURVE SMOOTH",
"597 1185 OFFCURVE",
"627 1220 OFFCURVE",
"660 1220 CURVE SMOOTH"
);
}
);
width = 1222;
}
);
unicode = 0026;
},
{
glyphname = asciicircum;
lastChange = "2013-03-13 10:29:38 +0200";
layers = (
{
layerId = UUID0;
name = "Bold Italic";
paths = (
{
closed = 1;
nodes = (
"505 1470 LINE",
"-143 511 LINE",
"158 511 LINE",
"529 1081 LINE",
"693 511 LINE",
"998 511 LINE",
"701 1470 LINE"
);
}
);
width = 1070;
}
);
unicode = 005E;
},
{
glyphname = at;
lastChange = "2013-03-13 10:29:38 +0200";
layers = (
{
layerId = UUID0;
name = "Bold Italic";
paths = (
{
closed = 1;
nodes = (
"528 1477 OFFCURVE",
"155 1049 OFFCURVE",
"59 598 CURVE SMOOTH",
"-40 132 OFFCURVE",
"164 -170 OFFCURVE",
"585 -163 CURVE SMOOTH",
"726 -163 OFFCURVE",
"865 -130 OFFCURVE",
"1004 -63 CURVE",
"1053 169 LINE",
"878 93 OFFCURVE",
"739 54 OFFCURVE",
"632 54 CURVE SMOOTH",
"334 54 OFFCURVE",
"289 340 OFFCURVE",
"346 608 CURVE SMOOTH",
"402 875 OFFCURVE",
"602 1260 OFFCURVE",
"934 1260 CURVE SMOOTH",
"1168 1260 OFFCURVE",
"1265 1089 OFFCURVE",
"1193 749 CURVE SMOOTH",
"1175 665 OFFCURVE",
"1119 434 OFFCURVE",
"1051 434 CURVE SMOOTH",
"1032 434 OFFCURVE",
"1021 466 OFFCURVE",
"1040 555 CURVE",
"1168 1055 LINE",
"1062 1091 OFFCURVE",
"991 1105 OFFCURVE",
"908 1105 CURVE SMOOTH",
"635 1105 OFFCURVE",
"462 865 OFFCURVE",
"408 608 CURVE SMOOTH",
"353 349 OFFCURVE",
"436 224 OFFCURVE",
"623 224 CURVE SMOOTH",
"706 224 OFFCURVE",
"781 257 OFFCURVE",
"841 312 CURVE",
"869 257 OFFCURVE",
"934 224 OFFCURVE",
"1017 224 CURVE SMOOTH",
"1291 224 OFFCURVE",
"1424 512 OFFCURVE",
"1474 748 CURVE SMOOTH",
"1563 1167 OFFCURVE",
"1422 1477 OFFCURVE",
"985 1477 CURVE SMOOTH"
);
},
{
closed = 1;
nodes = (
"858 895 OFFCURVE",
"866 895 OFFCURVE",
"869 894 CURVE",
"851 821 OFFCURVE",
"832 757 OFFCURVE",
"813 684 CURVE SMOOTH",
"769 527 OFFCURVE",
"733 434 OFFCURVE",
"700 434 CURVE SMOOTH",
"672 434 OFFCURVE",
"662 497 OFFCURVE",
"686 608 CURVE SMOOTH",
"702 686 OFFCURVE",
"773 895 OFFCURVE",
"853 895 CURVE SMOOTH"
);
}
);
width = 1527;
}
);
unicode = 0040;
},
{
glyphname = bar;
lastChange = "2013-03-13 10:29:38 +0200";
layers = (
{
layerId = UUID0;
name = "Bold Italic";
paths = (
{
closed = 1;
nodes = (
"590 1549 LINE",
"164 -457 LINE",
"450 -457 LINE",
"876 1549 LINE"
);
}
);
width = 1040;
}
);
unicode = 007C;
},
{
glyphname = brokenbar;
lastChange = "2013-03-13 10:29:38 +0200";
layers = (
{
layerId = UUID0;
name = "Bold Italic";
paths = (
{
closed = 1;
nodes = (
"572 1549 LINE",
"396 721 LINE",
"682 721 LINE",
"858 1549 LINE"
);
},
{
closed = 1;
nodes = (
"322 371 LINE",
"146 -457 LINE",
"432 -457 LINE",
"608 371 LINE"
);
}
);
width = 1018;
}
);
unicode = 00A6;
},
{
glyphname = copyright;
lastChange = "2013-03-13 10:29:38 +0200";
layers = (
{
layerId = UUID0;
name = "Bold Italic";
paths = (
{
closed = 1;
nodes = (
"856 1393 OFFCURVE",
"739 1363 OFFCURVE",
"624 1304 CURVE SMOOTH",
"508 1245 OFFCURVE",
"411 1164 OFFCURVE",
"330 1061 CURVE SMOOTH",
"249 958 OFFCURVE",
"197 848 OFFCURVE",
"172 731 CURVE SMOOTH",
"147 615 OFFCURVE",
"153 506 OFFCURVE",
"188 404 CURVE SMOOTH",
"224 303 OFFCURVE",
"287 222 OFFCURVE",
"377 161 CURVE SMOOTH",
"467 100 OFFCURVE",
"572 70 OFFCURVE",
"693 70 CURVE SMOOTH",
"813 70 OFFCURVE",
"931 100 OFFCURVE",
"1044 159 CURVE SMOOTH",
"1158 218 OFFCURVE",
"1255 299 OFFCURVE",
"1336 400 CURVE SMOOTH",
"1416 501 OFFCURVE",
"1470 612 OFFCURVE",
"1495 731 CURVE SMOOTH",
"1521 853 OFFCURVE",
"1514 965 OFFCURVE",
"1475 1068 CURVE SMOOTH",
"1435 1171 OFFCURVE",
"1371 1250 OFFCURVE",
"1281 1307 CURVE SMOOTH",
"1192 1364 OFFCURVE",
"1090 1393 OFFCURVE",
"975 1393 CURVE SMOOTH"
);
},
{
closed = 1;
nodes = (
"820 1142 OFFCURVE",
"719 1106 OFFCURVE",
"636 1034 CURVE SMOOTH",
"555 962 OFFCURVE",
"501 862 OFFCURVE",
"474 735 CURVE SMOOTH",
"446 603 OFFCURVE",
"458 500 OFFCURVE",
"510 427 CURVE SMOOTH",
"564 354 OFFCURVE",
"652 318 OFFCURVE",
"777 318 CURVE SMOOTH",
"862 318 OFFCURVE",
"946 337 OFFCURVE",
"1028 375 CURVE",
"1071 578 LINE",
"992 538 OFFCURVE",
"913 518 OFFCURVE",
"832 518 CURVE SMOOTH",
"725 518 OFFCURVE",
"688 580 OFFCURVE",
"720 731 CURVE SMOOTH",
"749 870 OFFCURVE",
"821 942 OFFCURVE",
"917 942 CURVE SMOOTH",
"978 942 OFFCURVE",
"1036 926 OFFCURVE",
"1091 893 CURVE",
"1211 1073 LINE",
"1129 1119 OFFCURVE",
"1039 1142 OFFCURVE",
"942 1142 CURVE SMOOTH"
);
},
{
closed = 1;
nodes = (
"1038 1248 OFFCURVE",
"1120 1225 OFFCURVE",
"1190 1178 CURVE SMOOTH",
"1260 1132 OFFCURVE",
"1310 1069 OFFCURVE",
"1338 989 CURVE SMOOTH",
"1366 909 OFFCURVE",
"1370 823 OFFCURVE",
"1351 731 CURVE SMOOTH",
"1331 638 OFFCURVE",
"1290 552 OFFCURVE",
"1226 472 CURVE SMOOTH",
"1163 392 OFFCURVE",
"1086 329 OFFCURVE",
"997 283 CURVE SMOOTH",
"908 237 OFFCURVE",
"817 214 OFFCURVE",
"724 214 CURVE SMOOTH",
"632 214 OFFCURVE",
"551 237 OFFCURVE",
"480 282 CURVE SMOOTH",
"410 327 OFFCURVE",
"360 390 OFFCURVE",
"331 471 CURVE SMOOTH",
"301 552 OFFCURVE",
"296 638 OFFCURVE",
"316 731 CURVE SMOOTH",
"336 824 OFFCURVE",
"377 910 OFFCURVE",
"440 990 CURVE SMOOTH",
"504 1070 OFFCURVE",
"580 1133 OFFCURVE",
"670 1179 CURVE SMOOTH",
"760 1225 OFFCURVE",
"851 1248 OFFCURVE",
"944 1248 CURVE SMOOTH"
);
}
);
width = 1668;
}
);
unicode = 00A9;
},
{
glyphname = dagger;
lastChange = "2013-03-13 10:29:38 +0200";
layers = (
{
layerId = UUID0;
name = "Bold Italic";
paths = (
{
closed = 1;
nodes = (
"524 1556 LINE",
"491 1139 LINE",
"186 1169 LINE",
"137 940 LINE",
"455 971 LINE",
"194 0 LINE",
"460 0 LINE",
"611 971 LINE",
"935 940 LINE",
"984 1169 LINE",
"647 1139 LINE",
"790 1556 LINE"
);
}
);
width = 1004;
}
);
unicode = 2020;
},
{
glyphname = daggerdbl;
lastChange = "2013-03-13 10:29:38 +0200";
layers = (
{
layerId = UUID0;
name = "Bold Italic";
paths = (
{
closed = 1;
nodes = (
"534 1556 LINE",
"509 1180 LINE",
"184 1210 LINE",
"135 981 LINE",
"474 1012 LINE",
"379 786 LINE",
"374 545 LINE",
"49 575 LINE",
"0 346 LINE",
"339 377 LINE",
"204 0 LINE",
"470 0 LINE",
"495 377 LINE",
"820 346 LINE",
"869 575 LINE",
"530 545 LINE",
"629 786 LINE",
"630 1012 LINE",
"955 981 LINE",
"1004 1210 LINE",
"665 1180 LINE",
"800 1556 LINE"
);
}
);
width = 1004;
}
);
unicode = 2021;
},
{
glyphname = degree;
lastChange = "2013-03-13 10:29:38 +0200";
layers = (
{
layerId = UUID0;
name = "Bold Italic";
paths = (
{
closed = 1;
nodes = (
"283 1482 OFFCURVE",
"94 1325 OFFCURVE",
"53 1132 CURVE SMOOTH",
"12 939 OFFCURVE",
"135 783 OFFCURVE",
"328 783 CURVE SMOOTH",
"521 783 OFFCURVE",
"711 939 OFFCURVE",
"752 1132 CURVE SMOOTH",
"793 1325 OFFCURVE",
"669 1482 OFFCURVE",
"476 1482 CURVE SMOOTH"
);
},
{
closed = 1;
nodes = (
"507 1269 OFFCURVE",
"555 1208 OFFCURVE",
"539 1132 CURVE SMOOTH",
"523 1056 OFFCURVE",
"449 995 OFFCURVE",
"373 995 CURVE SMOOTH",
"297 995 OFFCURVE",
"249 1056 OFFCURVE",
"265 1132 CURVE SMOOTH",
"281 1208 OFFCURVE",
"355 1269 OFFCURVE",
"431 1269 CURVE SMOOTH"
);
}
);
width = 811;
}
);
unicode = 00B0;
},
{
glyphname = paragraph;
lastChange = "2013-03-13 10:29:38 +0200";
layers = (
{
layerId = UUID0;
name = "Bold Italic";
paths = (
{
closed = 1;
nodes = (
"577 1553 LINE SMOOTH",
"320 1553 OFFCURVE",
"171 1380 OFFCURVE",
"97 1033 CURVE SMOOTH",
"25 693 OFFCURVE",
"97 525 OFFCURVE",
"332 525 CURVE SMOOTH",
"354 525 OFFCURVE",
"375 526 OFFCURVE",
"394 529 CURVE",
"228 -252 LINE",
"463 -252 LINE",
"798 1324 LINE",
"869 1324 LINE",
"534 -252 LINE",
"768 -252 LINE",
"1152 1553 LINE"
);
}
);
width = 1063;
}
);
unicode = 00B6;
},
{
glyphname = registered;
lastChange = "2013-03-13 10:29:38 +0200";
layers = (
{
layerId = UUID0;
name = "Bold Italic";
paths = (
{
closed = 1;
nodes = (
"856 1393 OFFCURVE",
"739 1363 OFFCURVE",
"624 1304 CURVE SMOOTH",
"508 1245 OFFCURVE",
"411 1164 OFFCURVE",
"330 1061 CURVE SMOOTH",
"249 958 OFFCURVE",
"197 848 OFFCURVE",
"172 731 CURVE SMOOTH",
"147 615 OFFCURVE",
"153 506 OFFCURVE",
"188 404 CURVE SMOOTH",
"224 303 OFFCURVE",
"287 222 OFFCURVE",
"377 161 CURVE SMOOTH",
"467 100 OFFCURVE",
"572 70 OFFCURVE",
"693 70 CURVE SMOOTH",
"813 70 OFFCURVE",
"931 100 OFFCURVE",
"1044 159 CURVE SMOOTH",
"1158 218 OFFCURVE",
"1255 299 OFFCURVE",
"1336 400 CURVE SMOOTH",
"1416 501 OFFCURVE",
"1470 612 OFFCURVE",
"1495 731 CURVE SMOOTH",
"1521 853 OFFCURVE",
"1514 965 OFFCURVE",
"1475 1068 CURVE SMOOTH",
"1435 1171 OFFCURVE",
"1371 1250 OFFCURVE",
"1281 1307 CURVE SMOOTH",
"1192 1364 OFFCURVE",
"1090 1393 OFFCURVE",
"975 1393 CURVE SMOOTH"
);
},
{
closed = 1;
nodes = (
"1038 1248 OFFCURVE",
"1120 1225 OFFCURVE",
"1190 1178 CURVE SMOOTH",
"1260 1132 OFFCURVE",
"1310 1069 OFFCURVE",
"1338 989 CURVE SMOOTH",
"1366 909 OFFCURVE",
"1370 823 OFFCURVE",
"1351 731 CURVE SMOOTH",
"1331 638 OFFCURVE",
"1290 552 OFFCURVE",
"1226 472 CURVE SMOOTH",
"1163 392 OFFCURVE",
"1086 329 OFFCURVE",
"997 283 CURVE SMOOTH",
"908 237 OFFCURVE",
"817 214 OFFCURVE",
"724 214 CURVE SMOOTH",
"632 214 OFFCURVE",
"551 237 OFFCURVE",
"480 282 CURVE SMOOTH",
"410 327 OFFCURVE",
"360 390 OFFCURVE",
"331 471 CURVE SMOOTH",
"301 552 OFFCURVE",
"296 638 OFFCURVE",
"316 731 CURVE SMOOTH",
"336 824 OFFCURVE",
"377 910 OFFCURVE",
"440 990 CURVE SMOOTH",
"504 1070 OFFCURVE",
"580 1133 OFFCURVE",
"670 1179 CURVE SMOOTH",
"760 1225 OFFCURVE",
"851 1248 OFFCURVE",
"944 1248 CURVE SMOOTH"
);
},
{
closed = 1;
nodes = (
"621 1133 LINE",
"458 363 LINE",
"705 363 LINE",
"765 645 LINE",
"796 645 LINE",
"864 363 LINE",
"1119 363 LINE",
"1017 683 LINE",
"1113 724 OFFCURVE",
"1164 793 OFFCURVE",
"1186 896 CURVE SMOOTH",
"1220 1054 OFFCURVE",
"1117 1133 OFFCURVE",
"878 1133 CURVE SMOOTH"
);
},
{
closed = 1;
nodes = (
"923 962 OFFCURVE",
"948 941 OFFCURVE",
"936 886 CURVE SMOOTH",
"922 822 OFFCURVE",
"876 800 OFFCURVE",
"808 800 CURVE SMOOTH",
"798 800 LINE",
"832 962 LINE",
"843 962 LINE SMOOTH"
);
}
);
width = 1668;
}
);
unicode = 00AE;
},
{
glyphname = section;
lastChange = "2013-03-13 10:29:38 +0200";
layers = (
{
layerId = UUID0;
name = "Bold Italic";
paths = (
{
closed = 1;
nodes = (
"480 1556 OFFCURVE",
"382 1529 OFFCURVE",
"307 1476 CURVE SMOOTH",
"225 1417 OFFCURVE",
"175 1344 OFFCURVE",
"156 1254 CURVE SMOOTH",
"136 1161 OFFCURVE",
"156 1074 OFFCURVE",
"218 1013 CURVE",
"127 954 OFFCURVE",
"69 872 OFFCURVE",
"48 775 CURVE SMOOTH",
"38 726 OFFCURVE",
"38 679 OFFCURVE",
"49 635 CURVE SMOOTH",
"58 601 OFFCURVE",
"80 563 OFFCURVE",
"115 522 CURVE SMOOTH",
"141 493 OFFCURVE",
"199 449 OFFCURVE",
"289 393 CURVE",
"288 393 LINE",
"355 349 OFFCURVE",
"380 316 OFFCURVE",
"372 276 CURVE SMOOTH",
"358 210 OFFCURVE",
"315 182 OFFCURVE",
"239 182 CURVE SMOOTH",
"157 182 OFFCURVE",
"53 214 OFFCURVE",
"-69 279 CURVE",
"-121 36 LINE",
"-35 -11 OFFCURVE",
"61 -34 OFFCURVE",
"219 -34 CURVE SMOOTH",
"475 -34 OFFCURVE",
"642 89 OFFCURVE",
"686 294 CURVE SMOOTH",
"704 382 OFFCURVE",
"682 442 OFFCURVE",
"623 499 CURVE",
"713 565 OFFCURVE",
"770 650 OFFCURVE",
"792 751 CURVE SMOOTH",
"806 817 OFFCURVE",
"801 879 OFFCURVE",
"774 936 CURVE SMOOTH",
"752 982 OFFCURVE",
"695 1037 OFFCURVE",
"620 1087 CURVE SMOOTH",
"548 1135 LINE SMOOTH",
"479 1180 OFFCURVE",
"455 1214 OFFCURVE",
"465 1258 CURVE SMOOTH",
"474 1304 OFFCURVE",
"504 1336 OFFCURVE",
"549 1336 CURVE SMOOTH",
"632 1336 OFFCURVE",
"724 1293 OFFCURVE",
"817 1249 CURVE",
"943 1475 LINE",
"840 1520 OFFCURVE",
"733 1556 OFFCURVE",
"598 1556 CURVE SMOOTH"
);
},
{
closed = 1;
nodes = (
"465 848 OFFCURVE",
"500 787 OFFCURVE",
"485 717 CURVE SMOOTH",
"477 683 OFFCURVE",
"466 652 OFFCURVE",
"449 626 CURVE",
"432 638 LINE SMOOTH",
"393 664 OFFCURVE",
"366 690 OFFCURVE",
"349 717 CURVE",
"339 734 OFFCURVE",
"337 760 OFFCURVE",
"344 795 CURVE SMOOTH",
"354 840 OFFCURVE",
"374 875 OFFCURVE",
"393 895 CURVE"
);
}
);
width = 852;
}
);
unicode = 00A7;
},
{
glyphname = trademark;
lastChange = "2013-03-13 10:29:38 +0200";
layers = (
{
layerId = UUID0;
name = "Bold Italic";
paths = (
{
closed = 1;
nodes = (
"1029 1462 LINE",
"890 1155 LINE",
"888 1462 LINE",
"572 1462 LINE",
"414 719 LINE",
"644 719 LINE",
"682 897 LINE",
"685 719 LINE",
"905 719 LINE",
"989 907 LINE",
"949 719 LINE",
"1183 719 LINE",
"1341 1462 LINE"
);
},
{
closed = 1;
nodes = (
"47 1462 LINE",
"9 1282 LINE",
"174 1282 LINE",
"54 719 LINE",
"289 719 LINE",
"409 1282 LINE",
"574 1282 LINE",
"612 1462 LINE"
);
}
);
width = 1346;
}
);
unicode = 2122;
},
{
glyphname = acute;
lastChange = "2013-03-13 10:29:38 +0200";
layers = (
{
layerId = UUID0;
name = "Bold Italic";
paths = (
{
closed = 1;
nodes = (
"477 1566 LINE",
"456 1544 OFFCURVE",
"431 1519 OFFCURVE",
"399 1490 CURVE SMOOTH",
"370 1462 OFFCURVE",
"299 1400 OFFCURVE",
"189 1303 CURVE",
"183 1278 LINE",
"411 1278 LINE",
"460 1304 OFFCURVE",
"531 1346 OFFCURVE",
"625 1404 CURVE SMOOTH",
"720 1463 OFFCURVE",
"794 1511 OFFCURVE",
"849 1548 CURVE",
"853 1566 LINE"
);
}
);
width = 1094;
}
);
unicode = 00B4;
},
{
glyphname = breve;
lastChange = "2013-03-13 10:29:38 +0200";
layers = (
{
layerId = UUID0;
name = "Bold Italic";
paths = (
{
closed = 1;
nodes = (
"736 1567 LINE",
"719 1522 OFFCURVE",
"699 1489 OFFCURVE",
"674 1470 CURVE SMOOTH",
"649 1451 OFFCURVE",
"611 1442 OFFCURVE",
"559 1442 CURVE SMOOTH",
"504 1442 OFFCURVE",
"468 1451 OFFCURVE",
"452 1469 CURVE SMOOTH",
"437 1487 OFFCURVE",
"432 1520 OFFCURVE",
"437 1567 CURVE",
"277 1567 LINE",
"241 1360 OFFCURVE",
"319 1241 OFFCURVE",
"514 1241 CURVE SMOOTH",
"699 1241 OFFCURVE",
"837 1358 OFFCURVE",
"897 1567 CURVE"
);
}
);
width = 1106;
}
);
unicode = 02D8;
},
